<?xml version="1.0" standalone="no"?>
<!DOCTYPE svg PUBLIC "-//W3C//DTD SVG 1.1//EN" "http://www.w3.org/Graphics/SVG/1.1/DTD/svg11.dtd" >
<svg>
<metadata>
Created by FontForge 20110222 at Wed Aug 21 13:33:07 2013
 By Orthosie Webhosting
[c] Copyright 2006, The Font Bureau, Inc. All Rights Reserved.
</metadata>
<defs>
<font id="BentonModDispExCondSemiboldIt" horiz-adv-x="371" >
  <font-face 
    font-family="BentonModDispExCondSemiboldIt"
    font-weight="600"
    font-style="italic"
    font-stretch="condensed"
    units-per-em="1000"
    panose-1="2 0 6 6 8 0 0 2 0 3"
    ascent="780"
    descent="-220"
    x-height="431"
    cap-height="684"
    bbox="-172 -209 823 882"
    underline-thickness="20"
    underline-position="-113"
    slope="-12"
    unicode-range="U+0020-FB02"
  />
<missing-glyph horiz-adv-x="500" 
 />
    <glyph glyph-name="fi" unicode="fi" horiz-adv-x="435" 
d="M-96 -206q-28 0 -43 16.5t-15 38.5q0 25 12.5 39.5t29.5 14.5q37 0 37 -49q0 -6 -1.5 -13t-3 -11.5t-2.5 -8.5t0.5 -6t5.5 -2q11 0 26.5 39.5t27.5 99.5l93 454h-51l5 17h50l9 39q25 118 83.5 176.5t126.5 58.5q39 0 61.5 -20.5t22.5 -52.5q0 -24 -12.5 -41.5
t-32.5 -17.5q-16 0 -27 11t-11 33q0 17 10.5 33t10.5 20q0 15 -22 15q-76 0 -111 -169l-18 -85h63l143 9q0 -46 -23 -128l-47 -173q-12 -46 -12 -65q0 -27 18 -27q31 0 72 93l12 -8q-53 -130 -130 -130q-29 0 -44 19t-15 46q0 31 11 70l57 219q6 21 6 34q0 24 -35 24h-80
l-49 -225q-32 -149 -67 -237t-68 -119t-73 -31z" />
    <glyph glyph-name="fl" unicode="fl" horiz-adv-x="437" 
d="M-96 -206q-27 0 -42 16.5t-15 38.5q0 24 12.5 38.5t28.5 14.5q37 0 37 -49q0 -6 -1.5 -13t-2.5 -11.5t-2 -8.5t0 -5.5t5 -1.5q11 0 26.5 39.5t27.5 99.5l93 454h-51l5 17h50l8 38q24 112 82.5 174t126.5 62q46 0 69 -28l84 32l-142 -567q-12 -46 -14 -68q-2 -29 17 -29
q27 0 73 93l11 -7q-26 -62 -57 -95.5t-72 -33.5q-57 0 -59 62q0 30 11 72l71 278h-123l-49 -225q-32 -149 -67 -237t-68 -119t-73 -31zM165 423h123l37 144q-27 5 -27 43q0 16 9.5 31.5t9.5 18.5q0 17 -25 17q-32 0 -61 -39.5t-48 -129.5z" />
    <glyph glyph-name="f_f_l" unicode="ffl" horiz-adv-x="647" 
d="M-96 -206q-28 0 -43 16.5t-15 38.5q0 25 12.5 39.5t29.5 14.5q37 0 37 -49q0 -6 -1.5 -13t-3 -11.5t-2.5 -8.5t0.5 -6t5.5 -2q11 0 26.5 39.5t27.5 99.5l93 454h-51l4 17h51l9 41q24 117 79 171t116 54q37 0 59.5 -19.5t23.5 -49.5q59 77 142 77q45 0 68 -28l85 32
l-143 -567q-13 -56 -14 -68q-2 -29 17 -29q29 0 73 93l12 -7q-26 -62 -57 -95.5t-72 -33.5q-57 0 -59 62q0 33 10 72l71 278h-122l-45 -207q-46 -212 -95.5 -295.5t-110.5 -83.5q-28 0 -43.5 17t-15.5 39q0 24 13 38.5t29 14.5q41 0 38 -49q-1 -6 -2.5 -13t-3 -11.5t-2 -8.5
t1 -5.5t5.5 -1.5q11 0 26.5 39t27.5 99l87 428h-122l-49 -225q-32 -149 -67 -237t-68 -119t-73 -31zM165 423h122l9 42q14 64 36 104q-9 -6 -21 -6q-13 0 -22.5 11.5t-8.5 29.5q1 17 10.5 32.5t9.5 19.5q0 16 -20 16q-60 0 -97 -168zM376 423h123l37 144q-28 6 -27 43
q1 16 10 31t9 19q0 17 -24 17q-73 0 -110 -169z" />
    <glyph glyph-name="f_f_i" unicode="ffi" horiz-adv-x="646" 
d="M-96 -206q-28 0 -43 16.5t-15 38.5q0 25 12.5 39.5t29.5 14.5q37 0 37 -49q0 -6 -1.5 -13t-3 -11.5t-2.5 -8.5t0.5 -6t5.5 -2q11 0 26.5 39.5t27.5 99.5l93 454h-51l4 17h51l9 41q24 117 79 171t116 54q38 0 61 -20t23 -51q59 79 143 79q39 0 61.5 -20.5t22.5 -52.5
q0 -24 -12.5 -41.5t-32.5 -17.5q-16 0 -27.5 11t-10.5 33q1 17 11 33t10 20q0 15 -22 15q-76 0 -112 -169l-18 -85h64l142 9q0 -50 -22 -128l-47 -173q-13 -49 -13 -65q0 -27 19 -27q30 0 71 93l13 -8q-55 -130 -130 -130q-30 0 -45 18t-15 46q0 25 11 71l58 219q6 21 6 34
q1 13 -7.5 18.5t-27.5 5.5h-80l-45 -207q-46 -212 -95.5 -295.5t-110.5 -83.5q-28 0 -43.5 17t-15.5 39q0 24 13 38.5t29 14.5q41 0 38 -49q-1 -6 -2.5 -13t-3 -11.5t-2 -8.5t1 -5.5t5.5 -1.5q11 0 26.5 39t27.5 99l87 428h-122l-49 -225q-32 -149 -67 -237t-68 -119
t-73 -31zM165 423h122l9 42q16 67 37 105q-7 -7 -22 -7q-32 4 -31 41q1 17 10.5 32.5t9.5 19.5q0 16 -20 16q-60 0 -97 -168z" />
    <glyph glyph-name="f_f" unicode="ff" horiz-adv-x="449" 
d="M-96 -206q-28 0 -43 16.5t-15 38.5q0 25 12.5 39.5t29.5 14.5q37 0 37 -49q0 -6 -1.5 -13t-3 -11.5t-2.5 -8.5t0.5 -6t5.5 -2q11 0 26.5 39.5t27.5 99.5l93 454h-51l4 17h51l9 41q24 117 78 171t115 54q37 0 59 -19t23 -46q48 73 120 73q34 0 53 -18.5t18 -46.5
q-1 -26 -13.5 -43.5t-32.5 -17.5q-17 0 -27.5 12.5t-9.5 31.5q1 18 10.5 33.5t9.5 19.5q0 12 -12 12q-43 0 -79 -164l-20 -93h75l-4 -17h-74l-45 -207q-46 -212 -95.5 -295.5t-110.5 -83.5q-28 0 -43.5 17t-15.5 39q0 24 13 38.5t29 14.5q41 0 38 -49q-1 -6 -2.5 -13
t-3 -11.5t-2 -8.5t1 -5.5t5.5 -1.5q11 0 26.5 39t27.5 99l87 428h-122l-49 -225q-32 -149 -67 -237t-68 -119t-73 -31zM165 423h122l11 48q13 58 29 94q-8 -5 -19 -3q-13 2 -22 13.5t-8 28.5t11 32.5t10 19.5q1 7 -4 11.5t-16 4.5q-59 0 -96 -168z" />
    <glyph glyph-name="f_j" unicode="fj" horiz-adv-x="411" 
d="M191 -16l80 364q6 28 6 34q1 13 -7.5 18.5t-27.5 5.5h-81l-49 -225q-32 -149 -67 -237t-68 -119t-73 -31q-27 0 -42 16.5t-15 38.5q0 24 12.5 38.5t28.5 14.5q37 0 37 -49q0 -6 -1.5 -13t-2.5 -11.5t-2 -8.5t0 -5.5t5 -1.5q11 0 26.5 39.5t27.5 99.5l93 454h-51l5 17h50
l8 38q26 117 84.5 176.5t124.5 59.5q39 0 62.5 -21t23.5 -52q0 -24 -12.5 -41.5t-32.5 -17.5q-15 0 -26 11t-11 32q0 17 10 33t10 19q0 17 -23 17q-74 0 -110 -169l-18 -85h63l143 9q0 -45 -22 -128l-24 -91q-32 -149 -67 -237t-68 -119t-73 -31q-27 0 -42 16.5t-15 38.5
q0 24 12.5 38.5t28.5 14.5q37 0 37 -49q0 -6 -1.5 -13t-2.5 -11.5t-2 -8.5t0 -5.5t5 -1.5q11 0 26.5 39.5t27.5 99.5z" />
    <glyph glyph-name=".notdef" horiz-adv-x="500" 
 />
    <glyph glyph-name=".null" horiz-adv-x="0" 
 />
    <glyph glyph-name="nonmarkingreturn" horiz-adv-x="333" 
 />
    <glyph glyph-name="space" unicode=" " horiz-adv-x="170" 
 />
    <glyph glyph-name="exclam" unicode="!" horiz-adv-x="229" 
d="M68 204q41 172 41 318q0 71 3 92q10 81 74 81q26 0 38.5 -17t10.5 -45q-2 -37 -39 -112q-76 -149 -114 -317h-14zM-14 46q0 23 16.5 39.5t39.5 16.5t39.5 -16.5t16.5 -39.5q0 -24 -16.5 -40t-39.5 -16t-39.5 16t-16.5 40z" />
    <glyph glyph-name="quotedbl" unicode="&#x22;" horiz-adv-x="334" 
d="M94 410l6 185q1 37 18 63t47 26q31 0 39 -27t-10 -62l-88 -185h-12zM243 410l6 185q1 37 18 63t47 26q31 0 38.5 -27t-9.5 -62l-87 -185h-13z" />
    <glyph glyph-name="numbersign" unicode="#" horiz-adv-x="431" 
d="M33 -7l49 166h-91l29 90h92l43 145h-104l29 90h104l51 168h22l-51 -168h122l51 168h22l-50 -168h86l-28 -90h-87l-44 -145h99l-29 -90h-98l-51 -166h-22l50 166h-122l-50 -166h-22zM133 249h122l45 145h-123z" />
    <glyph glyph-name="dollar" unicode="$" horiz-adv-x="355" 
d="M60 -135l30 134q-50 7 -80 40t-29 79q1 38 18.5 60t40.5 22q18 0 29.5 -14t10.5 -35q-1 -29 -17.5 -44t-40.5 -13q-15 2 -15 -10q0 -21 25.5 -42.5t61.5 -25.5l16 68l30 134l15 67q-100 74 -97 182q2 84 52 134t128 48l17 72h20l-17 -74q49 -7 74 -34.5t24 -71.5
q-1 -32 -16 -51t-35 -19q-17 0 -28.5 14t-10.5 34q3 49 49 52q15 2 11 15q-4 16 -24.5 29t-46.5 16l-56 -252q31 -27 43.5 -40t33 -39t28.5 -53.5t7 -61.5q-2 -86 -59.5 -137.5t-141.5 -49.5l-30 -133h-20zM180 393l54 239q-49 1 -78.5 -32t-30.5 -90q-1 -59 55 -117z
M114 15q58 0 93.5 33t38.5 90q2 41 -17 71t-56 62z" />
    <glyph glyph-name="percent" unicode="%" horiz-adv-x="525" 
d="M135 350q-41 0 -66 33t-25 87q0 23 7 51q16 61 55.5 98.5t85.5 36.5q38 -1 63.5 -33t25.5 -85q0 -21 -5 -43q-14 -65 -54.5 -105t-86.5 -40zM133 363q23 -2 39 31.5t32 101.5q15 68 15 99q0 46 -24 49q-22 2 -40 -29.5t-33 -97.5q-16 -67 -16 -107q0 -46 27 -47zM18 -6
l454 659h28l-455 -659h-27zM333 -9q-42 0 -66.5 33t-24.5 87q0 23 7 51q16 61 55.5 98.5t85.5 36.5q38 -1 63 -33.5t25 -85.5q0 -26 -4 -42q-14 -65 -54.5 -105.5t-86.5 -39.5zM330 4q23 -2 39.5 31t32.5 101q14 64 14 100q0 45 -24 48q-21 2 -39 -29.5t-34 -98.5
q-15 -68 -15 -106q1 -43 26 -46z" />
    <glyph glyph-name="ampersand" unicode="&#x26;" horiz-adv-x="529" 
d="M126 -10q-69 0 -104 40t-32 112q3 83 50.5 139.5t133.5 105.5q0 28 1 42q6 126 58.5 195.5t115.5 69.5q42 0 66 -27t22 -70q-2 -50 -42.5 -90.5t-133.5 -89.5q8 -179 50 -281q39 54 64.5 110.5t28.5 98.5q3 40 -69 42l4 15h193l-5 -15q-42 -2 -66.5 -20.5t-40.5 -61.5
q-44 -113 -101 -187q28 -58 65 -58q55 0 79 102h13q-16 -78 -52 -124t-88 -46q-56 0 -88 56q-57 -58 -122 -58zM261 436q102 64 113 168q8 75 -31 75q-36 0 -57 -57t-24 -139q-2 -33 -1 -47zM156 27q40 0 84 37q-61 114 -65 304q-92 -75 -97 -216q-2 -56 19.5 -90.5
t58.5 -34.5z" />
    <glyph glyph-name="quotesingle" unicode="'" horiz-adv-x="184" 
d="M94 410l6 185q1 37 18 63t47 26q31 0 39 -27t-10 -62l-88 -185h-12z" />
    <glyph glyph-name="parenleft" unicode="(" horiz-adv-x="252" 
d="M140 -137q-65 54 -100 138.5t-32 183.5q4 161 87.5 294.5t228.5 216.5l-2 -16q-101 -80 -158.5 -232t-64.5 -312q-8 -180 46 -260z" />
    <glyph glyph-name="parenright" unicode=")" horiz-adv-x="252" 
d="M-101 -135l3 16q95 76 152.5 218.5t68.5 292.5q16 208 -39 292l5 13q66 -54 100.5 -143t27.5 -193q-10 -157 -93.5 -286t-224.5 -210z" />
    <glyph glyph-name="asterisk" unicode="*" horiz-adv-x="355" 
d="M78 379q-11 14 -6 30.5t20 29.5q9 8 27 18t45.5 23.5t41.5 21.5q-15 6 -59 19t-58 22q-40 25 -20 55q19 29 57 4q10 -6 23 -20t31.5 -35.5t30.5 -34.5q0 17 -0.5 49.5t0 54.5t3.5 34q9 44 43 37q33 -7 22 -53q-4 -16 -27.5 -62.5t-30.5 -62.5q17 5 42.5 15t44 16.5
t30.5 7.5q19 2 32 -6.5t14 -26.5q1 -17 -11 -26t-32 -11q-12 -1 -30 2t-45.5 9t-43.5 9q9 -16 38 -52t35 -50q8 -18 4.5 -34.5t-18.5 -22.5q-16 -7 -30 1.5t-20 26.5q-4 12 -7.5 33.5t-6 49.5t-5.5 43q-9 -13 -26 -39.5t-29.5 -44t-21.5 -25.5q-14 -14 -29.5 -16t-27.5 11z
" />
    <glyph glyph-name="plus" unicode="+" horiz-adv-x="415" 
d="M190 125v188h-144v34h144v188h35v-188h144v-34h-144v-188h-35z" />
    <glyph glyph-name="comma" unicode="," horiz-adv-x="214" 
d="M-46 -160l-8 14q48 30 83 69t35 65q0 8 -3 9t-11.5 -1.5t-15.5 -2.5q-25 0 -40.5 14.5t-15.5 37.5q0 24 15 39.5t39 15.5q25 0 42.5 -19t17.5 -53q0 -100 -138 -188z" />
    <glyph glyph-name="hyphen" unicode="-" horiz-adv-x="228" 
d="M-12 196l16 65h190l-16 -65h-190z" />
    <glyph glyph-name="hyphen" unicode="&#xad;" horiz-adv-x="228" 
d="M-12 196l16 65h190l-16 -65h-190z" />
    <glyph glyph-name="period" unicode="." horiz-adv-x="210" 
d="M-21 45q0 23 16 39.5t39 16.5t39 -16.5t16 -39.5t-16 -39t-39 -16t-39 16t-16 39z" />
    <glyph glyph-name="slash" unicode="/" horiz-adv-x="304" 
d="M-116 -85l456 774h32l-457 -774h-31z" />
    <glyph glyph-name="zero" unicode="0" horiz-adv-x="416" 
d="M139 -15q-60 0 -95 56t-35 158q0 61 16 134q33 146 105.5 238.5t147.5 92.5q55 0 92 -55.5t36 -163.5q0 -53 -12 -115q-31 -149 -105 -247t-150 -98zM140 0q44 0 79.5 79t70.5 238q35 157 35 234q0 97 -47 97q-45 0 -80 -76t-69 -229q-38 -170 -38 -250q0 -93 49 -93z
" />
    <glyph glyph-name="one" unicode="1" horiz-adv-x="265" 
d="M-61 0l4 16h24q53 0 65 56l100 435q6 30 -1 44t-35 14h-27l2 17q129 10 173 81h16l-136 -590q-13 -57 37 -57h25l-4 -16h-243z" />
    <glyph glyph-name="two" unicode="2" horiz-adv-x="349" 
d="M-62 0l7 29q40 86 83 147t123 135q103 95 112 206q9 123 -60 123q-42 0 -78.5 -33.5t-40.5 -81.5q-1 -6 0 -8t4.5 -1t7 2.5t9.5 3.5t12 2q17 0 29.5 -14t11.5 -38q-1 -27 -16 -41t-34 -14q-22 0 -36.5 18.5t-13.5 51.5q3 84 54 129.5t109 45.5q70 0 107 -42t32 -112
q-6 -74 -50 -125.5t-141 -115.5q-121 -80 -173 -174h173q42 0 68 31t45 96h14l-58 -220h-300z" />
    <glyph glyph-name="three" unicode="3" horiz-adv-x="350" 
d="M95 -14q-63 0 -94.5 36t-30.5 91q0 43 18 67.5t41 24.5q21 0 33 -15t11 -37q-1 -24 -15 -37.5t-33 -13.5q-6 0 -12 2t-10 3.5t-7 2.5t-5 -1t-2 -8q-2 -37 24 -66.5t70 -29.5q99 0 112 188q5 61 -9 94.5t-45 33.5q-8 0 -18 -3t-19 -3q-5 0 -10 4t-5 12q0 17 20 17
q6 0 16 -3t18 -3q107 0 118 170q4 64 -9 97t-52 33q-44 0 -74 -29t-32 -55q-1 -8 1 -10.5t10.5 -1.5t11.5 1q16 -2 27.5 -15t10.5 -35q-1 -24 -14.5 -38.5t-32.5 -14.5q-21 0 -34 16t-13 45q0 69 46.5 112.5t111.5 43.5q61 0 101 -40.5t36 -108.5q-4 -77 -50.5 -123.5
t-119.5 -55.5v-2q54 -11 83 -49.5t26 -97.5q-4 -85 -59.5 -141.5t-140.5 -56.5z" />
    <glyph glyph-name="four" unicode="4" horiz-adv-x="380" 
d="M59 0l3 16h25q28 0 40 12t20 44l20 85h-189l4 18l362 484h30l-110 -479h72l-5 -23h-73l-19 -85q-7 -32 0.5 -44t35.5 -12h17l-4 -16h-229zM10 180h162l74 316z" />
    <glyph glyph-name="five" unicode="5" horiz-adv-x="351" 
d="M93 -13q-58 0 -89.5 35t-29.5 92q1 46 20.5 69t42.5 23q19 0 30.5 -13.5t10.5 -36.5q-1 -26 -15.5 -40t-35.5 -14q-5 0 -15 3.5t-14 1t-4 -13.5q0 -35 23 -61t61 -26q57 0 91.5 76t41.5 186q7 109 -56 110q-51 0 -77 -33q-13 -51 -31 -51q-11 0 -9 14q2 21 26 44l85 301
l8 4q57 -29 125 -31q58 -2 105 26l5 -9q-61 -111 -177 -111q-47 0 -78 14l-54 -180q39 31 95 30q57 0 94.5 -44t34.5 -120q-4 -101 -68 -173t-146 -72z" />
    <glyph glyph-name="six" unicode="6" horiz-adv-x="377" 
d="M130 -14q-63 0 -94 53.5t-28 139.5q7 200 104.5 342.5t212.5 140.5q43 -1 65 -24.5t20 -60.5q-2 -33 -17.5 -51t-36.5 -18q-20 0 -31.5 13t-9.5 34q1 20 11.5 34.5t27.5 18.5q4 1 7.5 1.5t5.5 0.5h3.5t2 0.5t1 1.5t0.5 3q0 11 -12 21.5t-34 10.5q-34 0 -67 -29t-59 -78
t-46 -104t-34 -116q18 37 48 59.5t65 22.5q51 0 80.5 -40t26.5 -110q-5 -101 -67 -183.5t-145 -82.5zM133 1q34 0 60 47t39 106.5t19 128.5q8 96 -35 96q-44 0 -82 -67t-47 -196q-8 -115 46 -115z" />
    <glyph glyph-name="seven" unicode="7" horiz-adv-x="344" 
d="M100 -14q-25 0 -39 23t-6 65q15 85 87 210.5t205 274.5h-146q-60 0 -89.5 -31t-62.5 -124h-16l68 243h305l-14 -59q-102 -119 -146 -204.5t-70 -213.5q-6 -30 -10 -70t-6 -49q-12 -65 -60 -65z" />
    <glyph glyph-name="eight" unicode="8" horiz-adv-x="362" 
d="M129 -15q-69 0 -110 44.5t-38 108.5q3 69 43 112t108 76q-69 70 -63 161q6 80 56 128t115 48q61 0 98 -38.5t33 -97.5q-6 -91 -133 -162q85 -77 81 -174q-5 -86 -58 -146t-132 -60zM227 375q36 30 56 75t22 93q1 48 -17.5 76t-50.5 28q-44 0 -73.5 -34t-32.5 -85
q-3 -45 21 -78t75 -75zM133 0q50 0 83.5 39.5t36.5 98.5q1 15 -1.5 29.5t-5 25t-12 24.5t-13 20t-18 21t-18 18t-22.5 20t-21 19q-89 -72 -94 -192q-2 -52 18.5 -87.5t66.5 -35.5z" />
    <glyph glyph-name="nine" unicode="9" horiz-adv-x="377" 
d="M248 665q63 0 94 -54t29 -140q-4 -131 -51 -243.5t-118.5 -176t-147.5 -62.5q-44 0 -65.5 23t-19.5 62q1 31 17 49.5t37 18.5q18 0 29.5 -13.5t10.5 -34.5q-1 -20 -12 -34.5t-26 -18.5q-5 -1 -9 -1.5t-6 -0.5t-3.5 -0.5t-2 -1.5t-0.5 -4q0 -10 12.5 -20t34.5 -10
q65 0 119 95t86 232q-40 -81 -111 -81q-51 0 -81.5 40t-27.5 109q5 101 67 184t145 83zM245 649q-34 0 -60 -46.5t-39 -106.5t-19 -128q-8 -97 38 -97q43 0 80 67t46 196q8 115 -46 115z" />
    <glyph glyph-name="colon" unicode=":" horiz-adv-x="210" 
d="M-21 45q0 23 16 39.5t39 16.5t39 -16.5t16 -39.5t-16 -39t-39 -16t-39 16t-16 39zM44 340q0 23 16 39.5t39 16.5t39 -16.5t16 -39.5t-16 -39t-39 -16t-39 16t-16 39z" />
    <glyph glyph-name="semicolon" unicode=";" horiz-adv-x="210" 
d="M-45 -160l-8 14q47 30 82 69t36 65q0 8 -2.5 9t-11.5 -1.5t-16 -2.5q-24 0 -40 15t-16 37q0 24 15.5 39.5t38.5 15.5q26 0 43 -19t17 -53q0 -100 -138 -188zM44 340q0 23 16 39.5t39 16.5t39 -16.5t16 -39.5t-16 -39t-39 -16t-39 16t-16 39z" />
    <glyph glyph-name="less" unicode="&#x3c;" horiz-adv-x="415" 
d="M364 136l-314 180v21l314 180v-36l-269 -155l269 -153v-37z" />
    <glyph glyph-name="equal" unicode="=" horiz-adv-x="415" 
d="M56 385v34h303v-34h-303zM56 231v34h303v-34h-303z" />
    <glyph glyph-name="greater" unicode="&#x3e;" horiz-adv-x="415" 
d="M51 136v36l269 154l-269 155v36l313 -180v-21z" />
    <glyph glyph-name="question" unicode="?" horiz-adv-x="328" 
d="M97 202l3 14q15 66 32 105.5t50 81.5q61 76 66 173q6 100 -56 100q-34 0 -58.5 -20t-31.5 -44q-1 -5 -1.5 -7t0.5 -2.5t2.5 0t5.5 1t7 0.5q17 0 28.5 -14.5t11.5 -35.5q0 -22 -13 -37.5t-33 -15.5q-19 0 -32 15t-13 44q1 56 41.5 94.5t102.5 38.5q69 0 106.5 -34
t36.5 -96q-1 -31 -10.5 -56.5t-31 -48.5t-33 -33.5t-39.5 -31.5q-27 -21 -38.5 -31.5t-33 -34t-34 -51.5t-19.5 -64l-2 -10h-14zM25 45q0 24 16.5 40.5t39.5 16.5t39.5 -16.5t16.5 -40.5q0 -23 -16.5 -39.5t-39.5 -16.5t-39.5 16.5t-16.5 39.5z" />
    <glyph glyph-name="at" unicode="@" horiz-adv-x="724" 
d="M344 -153q-66 0 -123 23.5t-101.5 68.5t-68.5 119.5t-20 168.5q8 181 117 302t252 121q123 0 202 -84t72 -229q-5 -121 -61.5 -202t-131.5 -81q-41 0 -65 25.5t-21 68.5h-4q-42 -94 -110 -94q-48 0 -77 40.5t-26 108.5q5 96 61 171t125 75q68 0 77 -92h3l19 87h90
l-76 -282q-21 -79 29 -79q51 0 97.5 73.5t51.5 180.5q7 138 -66.5 217.5t-191.5 79.5q-136 0 -237.5 -121.5t-109.5 -284.5q-4 -91 19 -162.5t65.5 -114.5t97 -65t116.5 -22q132 0 238 97l10 -14q-116 -100 -252 -100zM308 81q39 0 73 75t41 154q5 50 -4.5 81t-34.5 31
q-41 0 -75.5 -83.5t-39.5 -165.5q-6 -92 40 -92z" />
    <glyph glyph-name="A" unicode="A" horiz-adv-x="534" 
d="M-78 0l4 16q32 4 53.5 26.5t49.5 76.5l309 579h24l42 -611q3 -39 15 -53.5t44 -17.5l-4 -16h-245l4 16h24q50 0 57 45q4 20 2 66l-6 102h-182l-36 -72q-36 -74 -39 -97q-7 -44 36 -44h16l-4 -16h-164zM123 248h171l-16 296z" />
    <glyph glyph-name="B" unicode="B" horiz-adv-x="482" 
d="M-61 0l4 16h15q28 0 42 14t22 47l120 530q7 33 -2.5 47t-36.5 14h-16l3 16h215q84 0 130.5 -38t44.5 -107q-3 -72 -55 -118.5t-136 -65.5v-2q62 -13 101.5 -54.5t36.5 -100.5q-4 -90 -76.5 -144t-180.5 -54h-231zM186 361h43q51 0 86.5 35t49.5 81t14 95q0 95 -72 95h-7
q-24 0 -37.5 -13t-20.5 -46zM158 17h15q49 0 84.5 35t50.5 82t16 99q1 49 -23.5 79.5t-75.5 30.5h-43l-59 -267q-7 -32 1 -45.5t34 -13.5z" />
    <glyph glyph-name="C" unicode="C" horiz-adv-x="470" 
d="M190 -15q-81 0 -127.5 65.5t-46.5 172.5q0 120 42.5 229t116 176t157.5 66q55 -1 92 -43q13 -16 23 -16q22 0 43 56h14l-54 -274h-17q10 126 -16 193.5t-82 67.5q-125 0 -195 -332q-21 -101 -21 -189q0 -144 92 -144q60 -1 108.5 59.5t84.5 176.5h20q-41 -135 -97 -199.5
t-137 -64.5z" />
    <glyph glyph-name="D" unicode="D" horiz-adv-x="526" 
d="M-61 0l4 16h15q29 0 43.5 14t21.5 48l118 528q15 62 -39 62h-15l3 16h225q88 0 140.5 -62.5t52.5 -177.5q0 -62 -15 -125.5t-45 -120.5t-70.5 -101.5t-96.5 -70.5t-118 -26h-224zM158 17h11q60 0 106 58.5t83 169.5q50 147 50 268q0 74 -24.5 114t-70.5 40h-10
q-26 0 -40 -13t-21 -45l-119 -533q-7 -33 1 -46t34 -13z" />
    <glyph glyph-name="E" unicode="E" horiz-adv-x="483" 
d="M-61 0l4 16h15q28 0 42.5 14t22.5 47l118 529q8 32 -1 47t-37 15h-16l4 16h410l-48 -252h-17q16 121 -4 178t-97 57h-27q-29 0 -44 -13.5t-22 -46.5l-54 -243h19q57 0 85 35.5t46 109.5h16l-71 -317h-16q17 73 3 113.5t-67 40.5h-19l-60 -269q-7 -33 2 -46.5t37 -13.5h35
q77 0 127 66.5t90 189.5h18l-68 -273h-426z" />
    <glyph glyph-name="F" unicode="F" horiz-adv-x="452" 
d="M-61 0l4 16h15q28 0 42.5 14t22.5 47l118 530q7 33 -1.5 47t-36.5 14h-16l3 16h411l-50 -254h-16q16 126 -5.5 181.5t-100.5 55.5h-21q-28 0 -43 -14t-23 -46l-55 -249h18q61 0 89.5 35.5t47.5 111.5h16l-72 -320h-16q8 43 9.5 77.5t-17 56t-60.5 21.5h-20l-58 -263
q-7 -32 2 -46.5t37 -14.5h28l-3 -16h-249z" />
    <glyph glyph-name="G" unicode="G" horiz-adv-x="511" 
d="M187 -9q-80 0 -126.5 64t-45.5 177q2 123 47 230t117.5 169.5t152.5 62.5q52 0 95 -45q13 -15 25 -15q21 0 45 58h14l-54 -270h-16q6 256 -108 256q-60 0 -104 -75t-80 -219q-34 -132 -35 -232q-2 -144 82 -144q79 0 108 130l20 92q7 33 -2 47t-36 14h-22l3 16h228
l-3 -16h-5q-28 0 -42.5 -13t-22.5 -48l-53 -238h-14q-3 67 -26 67q-10 0 -33 -21q-54 -47 -109 -47z" />
    <glyph glyph-name="H" unicode="H" horiz-adv-x="559" 
d="M-61 0l4 16h15q28 0 42.5 14t22.5 47l118 529q14 62 -39 62h-15l3 16h237l-4 -16h-16q-28 0 -42.5 -14.5t-22.5 -46.5l-55 -247h193l55 246q8 32 -1 47t-37 15h-17l4 16h237l-4 -16h-16q-28 0 -42.5 -14t-22.5 -47l-118 -530q-13 -60 39 -61h15l-4 -16h-237l4 16h16
q53 0 66 61l58 263h-192l-59 -263q-13 -60 39 -60l16 -1l-5 -16h-235z" />
    <glyph glyph-name="I" unicode="I" horiz-adv-x="273" 
d="M-56 0l4 16h13q29 0 43.5 13.5t21.5 47.5l119 529q7 35 -1.5 48.5t-37.5 13.5h-14l4 16h232l-3 -16h-13q-29 0 -44 -13.5t-22 -48.5l-119 -529q-7 -34 2 -47.5t37 -13.5h14l-4 -16h-232z" />
    <glyph glyph-name="J" unicode="J" horiz-adv-x="393" 
d="M76 -12q-54 0 -82.5 27.5t-28.5 74.5q0 42 22 80t58 38q22 0 34.5 -16.5t9.5 -42.5q-3 -29 -20 -43.5t-36 -14.5q-12 0 -23.5 6t-13.5 6q-10 0 -10 -20q-2 -31 17.5 -52t53.5 -21q41 0 68 38t46 126l97 433q7 32 -2 46.5t-37 14.5h-27l3 16h250l-4 -16h-16
q-28 0 -43.5 -14t-22.5 -47l-90 -408q-24 -106 -77 -158.5t-126 -52.5z" />
    <glyph glyph-name="K" unicode="K" horiz-adv-x="534" 
d="M-61 0l4 16h15q28 0 42.5 14t22.5 47l118 530q8 33 -1 47t-38 14h-15l3 16h237l-4 -16h-15q-28 0 -43 -14t-23 -47l-65 -289l201 217q67 73 71 100q2 17 -9.5 25t-37.5 8h-7l4 16h189l-4 -16q-31 0 -59 -19t-69 -62l-152 -160l105 -349q9 -32 21 -47t36 -15h7l-4 -16
h-226l4 16h16q36 0 42 24q3 14 -5 37l-76 266l-53 -55l-47 -211q-7 -33 2 -47t37 -14h16l-5 -16h-235z" />
    <glyph glyph-name="L" unicode="L" horiz-adv-x="448" 
d="M-61 0l4 16h15q28 0 42.5 14t22.5 47l118 530q7 32 -2 46.5t-38 14.5h-14l3 16h247l-4 -16h-23q-30 0 -45 -14t-23 -47l-118 -530q-13 -60 36 -60h22q80 0 127.5 63.5t91.5 198.5h16l-76 -279h-402z" />
    <glyph glyph-name="M" unicode="M" horiz-adv-x="644" 
d="M202 -10l-33 621h-3l-105 -471q-16 -69 -7 -96.5t55 -27.5h3l-4 -16h-178l4 16h6q40 0 60.5 27t36.5 97l104 467q8 32 -1.5 46.5t-38.5 14.5h-20l5 16h178l24 -509l241 509h177l-3 -16h-16q-28 0 -43.5 -14t-22.5 -47l-118 -530q-7 -32 2 -46.5t37 -14.5h16l-4 -16h-245
l4 16h28q27 0 40 13.5t21 47.5l120 534h-3l-295 -621h-22z" />
    <glyph glyph-name="N" unicode="N" horiz-adv-x="535" 
d="M349 -11l-189 594l-98 -440q-17 -72 -8 -99.5t54 -27.5h4l-4 -16h-175l4 16h5q41 0 60.5 27t35.5 100l106 475q-11 27 -25.5 37.5t-39.5 12.5l3 16h151l160 -500l80 357q15 79 4.5 102t-51.5 25h-4l4 16h181l-4 -16h-4q-42 0 -64 -28t-38 -99l-123 -552h-25z" />
    <glyph glyph-name="O" unicode="O" horiz-adv-x="514" 
d="M186 -15q-77 0 -123.5 65.5t-46.5 175.5q0 117 43 226.5t116 178t154 68.5q76 0 122.5 -65.5t46.5 -173.5q0 -117 -43 -227t-116 -179t-153 -69zM187 1q114 0 185 331q31 145 30 228q-2 123 -74 123q-46 0 -83 -48t-60 -115.5t-44 -166.5q-31 -145 -31 -226
q0 -126 77 -126z" />
    <glyph glyph-name="P" unicode="P" horiz-adv-x="467" 
d="M-62 0l4 16h16q28 0 43 13.5t22 47.5l118 530q7 33 -2.5 47t-36.5 14h-15l4 16h224q84 0 131.5 -40t47.5 -111q0 -104 -77 -169t-194 -65h-50l-49 -222q-7 -32 2 -46.5t38 -14.5h24l-4 -16h-246zM178 317h44q58 0 97.5 41.5t54 95t14.5 112.5q0 101 -78 101h-7
q-26 0 -40 -13t-21 -47z" />
    <glyph glyph-name="Q" unicode="Q" horiz-adv-x="514" 
d="M290 -192q-63 0 -63 95q0 39 12 91q-27 -9 -54 -9q-76 0 -122.5 65t-46.5 174q0 117 42 226.5t115.5 179t157.5 69.5q78 0 122.5 -67.5t44.5 -181.5q0 -133 -62 -260t-151 -175q-4 -28 -4 -49q3 -63 41 -63q51 0 76 101h16q-40 -196 -124 -196zM145 13l2 2q-25 30 -15 95
q6 47 30.5 78t62.5 31q66 0 68 -97q0 -14 -4 -46q50 92 85 265q28 132 28 217q0 125 -73 125q-66 0 -110 -87.5t-79 -250.5q-30 -135 -31 -208q-2 -94 36 -124zM192 1q27 0 51 21q18 76 18 117q1 59 -41 59q-29 0 -48 -26t-25 -70q-7 -46 5 -73.5t40 -27.5z" />
    <glyph glyph-name="R" unicode="R" horiz-adv-x="512" 
d="M345 -12q-44 0 -65 36t-12 126q12 106 1 141.5t-62 35.5h-28l-56 -250q-7 -33 2.5 -47t38.5 -14h17l-4 -16h-239l4 16h17q27 0 42 14.5t22 47.5l118 530q7 31 -2 45.5t-38 14.5h-14l4 16h217q83 0 130.5 -36t47.5 -104q0 -83 -62 -139.5t-156 -69.5v-1q90 -30 95 -151
q4 -75 11.5 -99.5t26.5 -24.5q35 0 52 87h16q-13 -79 -46.5 -118.5t-77.5 -39.5zM183 345h45q39 0 70.5 24.5t48.5 61.5t26 76t9 73q0 44 -17 65.5t-56 21.5h-8q-46 0 -59 -59z" />
    <glyph glyph-name="S" unicode="S" horiz-adv-x="429" 
d="M-35 -10l52 267h15q-8 -125 31.5 -188t110.5 -63q59 0 95 40t36 101q0 81 -107 145q-64 38 -96.5 84.5t-31.5 109.5q1 87 51 147.5t138 60.5q60 0 104 -42q17 -17 29 -17q21 0 46 58h13l-53 -265h-15q6 128 -27 188.5t-97 60.5q-56 0 -86.5 -39t-31.5 -95q0 -41 23.5 -74
t77.5 -65q132 -79 132 -193q0 -92 -54.5 -157t-147.5 -65q-58 0 -117 45q-21 16 -31 16q-22 0 -46 -60h-13z" />
    <glyph glyph-name="T" unicode="T" horiz-adv-x="478" 
d="M29 0l5 16h29q29 0 44 14t22 47l132 591h-16q-25 0 -45.5 -7t-35.5 -15.5t-30.5 -30t-24.5 -36t-23 -49t-20.5 -54t-22.5 -65.5h-15l70 273h434l-51 -273h-17q17 140 10 182q-11 66 -73 74q-10 1 -22 1h-17l-132 -591q-7 -32 2 -46.5t37 -14.5h30l-5 -16h-265z" />
    <glyph glyph-name="U" unicode="U" horiz-adv-x="540" 
d="M208 -11q-85 0 -128 40.5t-43 114.5q0 39 10 82l84 381q7 33 -2 47t-38 14h-14l5 16h239l-4 -16h-19q-28 0 -43.5 -14t-22.5 -47l-86 -391q-10 -47 -10 -79q-2 -110 103 -110q64 0 103.5 48.5t61.5 148.5l71 318q16 68 5.5 97t-54.5 29h-4l4 16h183l-3 -16h-6
q-41 0 -63.5 -28t-37.5 -97l-72 -321q-26 -115 -77.5 -174t-141.5 -59z" />
    <glyph glyph-name="V" unicode="V" horiz-adv-x="536" 
d="M175 -14l-45 609q-3 41 -14.5 56t-43.5 17l4 16h245l-3 -16h-24q-44 0 -55 -39q-7 -25 -4 -68l23 -423l199 390q39 76 41 104q2 18 -8.5 27t-32.5 9h-14l4 16h163l-3 -16q-35 -6 -54 -25.5t-48 -74.5l-303 -582h-27z" />
    <glyph glyph-name="W" unicode="W" horiz-adv-x="750" 
d="M152 -14l-20 593q-2 52 -12.5 69.5t-46.5 19.5l4 16h223l-4 -16h-5q-42 0 -52 -33q-7 -23 -5 -69l9 -398l149 303l-5 116q-2 45 -13 61.5t-43 19.5l5 16h234l-4 -16h-22q-42 0 -52 -37q-6 -19 -4 -65l14 -400l165 353q34 71 40 106q7 43 -39 43h-13l4 16h164l-4 -16
q-36 -6 -57 -27.5t-48 -76.5l-275 -578h-27l-18 444l-218 -444h-24z" />
    <glyph glyph-name="X" unicode="X" horiz-adv-x="524" 
d="M-73 0l3 16q39 4 64 24.5t67 76.5l161 210l-73 279q-8 32 -20.5 47t-36.5 15h-4l4 16h224l-4 -16h-17q-40 0 -43 -25q-1 -15 4 -35l48 -201l101 148q38 53 42 79q6 34 -36 34h-13l5 16h171l-3 -16q-39 -4 -63 -22t-67 -78l-131 -182l80 -307q17 -63 55 -63h3l-4 -16h-225
l4 16h18q41 0 45 27q2 13 -3 33l-54 229l-131 -176q-41 -52 -43 -79q-2 -15 7.5 -24.5t32.5 -9.5h11l-4 -16h-175z" />
    <glyph glyph-name="Y" unicode="Y" horiz-adv-x="524" 
d="M66 0l5 16h26q29 0 44.5 16.5t23.5 53.5l47 210l-76 310q-7 31 -20 46.5t-39 15.5h-4l4 16h231l-4 -16h-20q-34 0 -40 -25q-4 -18 1 -36l63 -276l139 218q38 58 41 83q2 17 -8.5 26.5t-32.5 9.5h-12l4 16h162l-5 -16q-36 -6 -58 -29t-69 -95l-155 -237l-49 -221
q-8 -36 0.5 -53t36.5 -17h28l-4 -16h-260z" />
    <glyph glyph-name="Z" unicode="Z" horiz-adv-x="471" 
d="M-54 0l4 21l450 647h-115q-83 0 -125.5 -54t-81.5 -184h-17l61 254h389l-4 -21l-452 -647h141q82 0 125 60.5t87 199.5h17l-70 -276h-409z" />
    <glyph glyph-name="bracketleft" unicode="[" horiz-adv-x="241" 
d="M-51 -130l183 814h174l-4 -15h-83l-174 -784h82l-4 -15h-174z" />
    <glyph glyph-name="backslash" unicode="\" horiz-adv-x="344" 
d="M217 -85l-113 774h31l112 -774h-30z" />
    <glyph glyph-name="bracketright" unicode="]" horiz-adv-x="241" 
d="M258 684l-183 -814h-171l4 15h80l175 784h-82l4 15h173z" />
    <glyph glyph-name="asciicircum" unicode="^" horiz-adv-x="417" 
d="M93 407l-11 6l122 274h52l122 -274l-11 -6l-138 197z" />
    <glyph glyph-name="underscore" unicode="_" horiz-adv-x="358" 
d="M-102 -106l7 24h361l-7 -24h-361z" />
    <glyph glyph-name="grave" unicode="`" 
d="M282 480l-100 55q-39 21 -41 50q-1 16 11 28.5t29 12.5q29 0 52 -40l55 -99z" />
    <glyph glyph-name="a" unicode="a" horiz-adv-x="412" 
d="M84 -6q-43 0 -71 38t-26 113q3 115 67 202t137 87q66 0 78 -102h3q45 50 74 106l21 -1q-3 -8 -40 -147.5t-41 -156.5q-12 -46 -12 -66q0 -26 16 -26q30 0 71 92l13 -8q-54 -129 -124 -129q-52 0 -54 60q0 26 5 48h-2q-46 -110 -115 -110zM109 26q29 0 58 46.5t50 116.5
q22 69 25 133q2 44 -9 67.5t-33 23.5q-36 0 -64 -59.5t-46 -143.5q-14 -65 -16 -114q-2 -70 35 -70z" />
    <glyph glyph-name="b" unicode="b" horiz-adv-x="384" 
d="M123 -8q-56 0 -86.5 37t-30.5 104q0 49 13 102l96 379q6 28 5 36q-1 12 -8.5 16t-25.5 4h-17l4 15l151 17l-61 -238q-2 -16 -37 -134h3q48 103 116 103q41 0 67.5 -36t25.5 -106q-2 -118 -66 -208.5t-149 -90.5zM126 9q43 0 82.5 104t42.5 219q1 68 -32 68t-71 -62
t-54 -147q-12 -67 -12 -103q0 -79 44 -79z" />
    <glyph glyph-name="c" unicode="c" horiz-adv-x="317" 
d="M107 -8q-52 0 -86 37t-34 104q0 120 69 212.5t156 92.5q48 0 68.5 -29.5t18.5 -75.5q-1 -29 -16 -45.5t-32 -16.5q-18 0 -30 13t-11 35t14 36t31 14q15 0 16 1q2 2 2 7q0 17 -13 29t-35 12q-42 0 -77.5 -47t-53.5 -110.5t-18 -123.5q0 -109 63 -109q56 0 109 92l12 -9
q-33 -62 -69 -90.5t-84 -28.5z" />
    <glyph glyph-name="d" unicode="d" horiz-adv-x="414" 
d="M85 -6q-43 0 -71 38t-26 112q3 118 67 204t135 86q70 0 70 -115h3q11 77 22 119l45 176q6 28 6 35q-1 21 -36 21h-23l4 15l156 17l-149 -570q-13 -54 -13 -66q0 -25 17 -25q30 0 71 92l13 -8q-53 -129 -124 -129q-53 0 -55 60q0 32 6 48h-2q-46 -110 -116 -110zM110 26
q52 0 103 150q29 81 30 141q3 93 -43 93q-33 0 -62.5 -57.5t-47.5 -141.5q-15 -73 -15 -115q0 -70 35 -70z" />
    <glyph glyph-name="e" unicode="e" horiz-adv-x="323" 
d="M101 -8q-54 0 -86 44t-28 119q6 115 75 199t156 84q40 0 63 -24.5t21 -64.5q-5 -115 -222 -166q-3 -12 -5 -45q-5 -113 57 -113q63 0 121 96l12 -10q-72 -119 -164 -119zM82 200q76 20 111.5 58.5t38.5 101.5q3 62 -31 62q-32 0 -67.5 -65t-51.5 -157z" />
    <glyph glyph-name="f" unicode="f" horiz-adv-x="239" 
d="M-96 -206q-28 0 -43 16.5t-15 38.5q0 25 12.5 39.5t29.5 14.5q37 0 37 -49q0 -6 -1.5 -13t-3 -11.5t-2.5 -8.5t0.5 -6t5.5 -2q11 0 26.5 39.5t27.5 99.5l93 454h-51l4 17h51l11 50q23 111 73.5 167.5t107.5 56.5q34 0 53 -18t19 -46q0 -26 -13 -44t-34 -18
q-17 0 -27.5 12t-9.5 32q1 18 11 34t10 19q0 12 -13 12q-44 0 -79 -164l-19 -93h75l-4 -17h-75l-49 -225q-32 -149 -67 -237t-68 -119t-73 -31z" />
    <glyph glyph-name="g" unicode="g" horiz-adv-x="374" 
d="M92 -206q-80 0 -129.5 28t-48.5 76q1 40 36 64.5t92 30.5v2q-31 8 -47 26.5t-16 42.5q0 50 80 90q-41 42 -39 110q1 72 47 123t107 51q55 0 91 -39q35 64 74 64q18 0 29.5 -13t11.5 -37q0 -18 -10 -29.5t-23 -11.5q-14 0 -22 10.5t-5 31.5q2 14 -4 14q-17 0 -40 -43
q29 -39 29 -89q0 -73 -48 -124.5t-110 -51.5q-41 0 -73 22q-35 -17 -35 -39q0 -13 20 -23.5t76 -21.5q74 -15 107.5 -44t32.5 -78q-1 -65 -53 -103.5t-130 -38.5zM145 135q36 0 56 65.5t21 139.5q2 83 -40 83q-32 0 -54.5 -63t-24.5 -138q-1 -87 42 -87zM95 -190
q50 0 88.5 23t39.5 67q1 38 -39 59t-107 22q-42 0 -71 -23t-31 -61q-1 -40 30.5 -63.5t89.5 -23.5z" />
    <glyph glyph-name="h" unicode="h" horiz-adv-x="409" 
d="M245 -6q-63 0 -63 69q0 31 14 71l40 124q24 69 25 103q0 28 -20 28q-33 0 -78.5 -80t-65.5 -158l-37 -151h-90l155 606q6 21 6 39q0 14 -8 19t-30 5h-25l4 16l165 17l-62 -241l-52 -194l2 -1q73 166 155 166q32 0 49 -21t17 -58q0 -33 -21 -96l-42 -124q-16 -51 -16 -71
q0 -25 17 -25q32 0 73 93l12 -8q-53 -128 -124 -128z" />
    <glyph glyph-name="i" unicode="i" horiz-adv-x="232" 
d="M59 -6q-29 0 -44.5 19t-15.5 45q0 32 11 71l59 221q6 21 6 34q0 24 -35 24h-28l4 14l153 10q0 -46 -23 -128l-47 -173q-12 -46 -12 -65q0 -27 17 -27q31 0 72 93l13 -8q-53 -130 -130 -130zM141 520q-23 0 -40.5 17t-17.5 41q0 23 17.5 40t40.5 17t40 -17t17 -40
q0 -24 -17 -41t-40 -17z" />
    <glyph glyph-name="j" unicode="j" horiz-adv-x="209" 
d="M-103 -206q-33 0 -51 19.5t-18 49.5q0 28 13.5 44.5t32.5 16.5q16 0 26 -11.5t9 -29.5q-1 -31 -30 -43q-13 -6 -13 -15q0 -16 23 -16q45 0 72 107l108 435q6 28 6 33q0 24 -35 24h-28l3 14l152 10q2 -39 -21 -127l-76 -302q-24 -97 -70 -153t-103 -56zM140 520
q-24 0 -41 17t-17 41q0 23 17 40t41 17q22 0 39.5 -17.5t17.5 -39.5q0 -24 -17 -41t-40 -17z" />
    <glyph glyph-name="k" unicode="k" horiz-adv-x="389" 
d="M234 -6q-33 0 -50 20.5t-16 58.5q1 20 6 55.5t5 51.5q0 29 -8.5 39.5t-34.5 10.5q-3 0 -10.5 -0.5t-9.5 -0.5l-25 -105l-31 -124h-89l154 605q6 24 6 39q0 14 -8 19.5t-30 5.5h-25l4 16l165 17l-68 -267l-48 -182q72 5 105 84q23 55 42.5 79t49.5 24q20 0 32 -14t12 -38
q-1 -23 -12.5 -37t-29.5 -14q-16 0 -26.5 11.5t-9.5 33.5q0 8 4 22q-10 -4 -18.5 -18.5t-19.5 -40t-20 -40.5q-30 -48 -72 -59v-2q46 2 72 -25t25 -78q0 -10 -2 -32t-2 -27q-1 -45 21 -45q27 0 70 92l13 -7q-26 -60 -54 -94t-67 -34z" />
    <glyph glyph-name="l" unicode="l" horiz-adv-x="228" 
d="M53 -6q-57 0 -59 62q0 30 11 72l123 483q6 30 6 36q0 14 -7.5 18.5t-26.5 4.5h-25l4 15l159 16l-144 -567q-13 -54 -13 -68q-2 -29 17 -29q28 0 72 93l12 -7q-27 -62 -57 -95.5t-72 -33.5z" />
    <glyph glyph-name="m" unicode="m" horiz-adv-x="599" 
d="M435 -6q-62 0 -62 69q0 31 14 71l40 123q24 78 25 104q2 28 -19 28q-33 0 -79.5 -82.5t-66.5 -164.5l-35 -142h-87l70 257q24 85 24 104q0 28 -18 28q-33 0 -77.5 -80.5t-64.5 -159.5l-38 -149h-89l93 349q6 19 6 33q0 26 -38 26h-25l4 14l147 9q0 -48 -24 -128l-11 -36
l3 -1q36 80 72 123t80 43q28 0 42.5 -20.5t13.5 -57.5q-1 -36 -21 -92l2 -1q73 171 155 171q32 0 49.5 -21.5t16.5 -58.5q-1 -33 -22 -96l-40 -123q-17 -54 -17 -71q0 -25 18 -25q31 0 72 93l12 -8q-25 -62 -55 -95t-70 -33z" />
    <glyph glyph-name="n" unicode="n" horiz-adv-x="410" 
d="M247 -6q-63 0 -63 69q0 28 13 71l40 123q25 72 26 104q0 28 -21 28q-32 0 -78 -80.5t-65 -157.5l-38 -151h-89l93 348q5 22 5 34q0 26 -37 26h-25l4 14l147 9q0 -48 -24 -128l-11 -36l3 -1q73 166 154 166q32 0 49.5 -21.5t17.5 -58.5q0 -30 -22 -96l-41 -123
q-16 -51 -16 -71q0 -25 17 -25q32 0 73 93l12 -8q-53 -128 -124 -128z" />
    <glyph glyph-name="o" unicode="o" horiz-adv-x="372" 
d="M113 -8q-57 0 -92 46.5t-34 126.5q2 112 68.5 192.5t146.5 80.5q55 0 90.5 -46t34.5 -124q-1 -112 -68 -194t-146 -82zM111 8q49 0 88.5 117.5t42.5 218.5q1 79 -37 79q-34 0 -66.5 -64t-50 -142.5t-18.5 -133.5q-2 -75 41 -75z" />
    <glyph glyph-name="p" unicode="p" horiz-adv-x="399" 
d="M-125 -204l3 16h10q26 0 38.5 16t22.5 57l116 459q5 20 5 36q0 28 -38 28h-23l4 15l146 9q1 -30 -20 -108l2 -1q52 110 121 110q36 0 63.5 -35.5t27.5 -103.5q0 -124 -62 -212t-131 -88q-39 0 -58.5 29t-16.5 64h-2q-18 -83 -21 -96l-26 -108q-10 -39 -5 -55t32 -16h23
l-4 -16h-207zM147 20q43 0 80 102t39 211q1 67 -32 67q-35 0 -73.5 -67.5t-51.5 -152.5q-14 -74 -4.5 -117t42.5 -43z" />
    <glyph glyph-name="q" unicode="q" horiz-adv-x="394" 
d="M71 -204l2 16h10q28 0 39 11t20 48l29 123l31 107h-3q-45 -107 -113 -107q-46 0 -73.5 39t-25.5 113q3 113 66.5 200.5t136.5 87.5q70 0 80 -105h3q50 60 74 108h22q-6 -18 -41.5 -160t-67.5 -275l-32 -133q-9 -35 -3.5 -46t33.5 -11h15l-4 -16h-198zM110 25q50 0 99 142
q29 78 34 150q3 46 -9 71t-35 25q-32 0 -61 -56.5t-48 -141.5q-15 -70 -16 -120q-2 -70 36 -70z" />
    <glyph glyph-name="r" unicode="r" horiz-adv-x="315" 
d="M-28 0l94 352q4 14 4 28q0 28 -37 28h-25l4 14l147 9q0 -52 -24 -128l-13 -40l3 -1q39 88 71 130.5t68 42.5q24 0 38.5 -18t14.5 -46q-1 -30 -14 -47t-32 -17q-18 0 -29 13t-10 34q0 8 2 15t4.5 12.5t2.5 6.5q2 7 -4 7q-27 0 -71.5 -82t-68.5 -172l-37 -141h-88z" />
    <glyph glyph-name="s" unicode="s" horiz-adv-x="307" 
d="M90 -8q-54 0 -87.5 31.5t-32.5 72.5q1 26 14.5 40.5t28.5 14.5t26.5 -11.5t10.5 -32.5q-1 -22 -17.5 -36t-16.5 -20q-2 -16 20 -30t56 -14q35 0 58.5 19.5t27.5 52.5t-13.5 56t-58.5 49q-42 28 -61 54t-16 70q3 57 43.5 93.5t97.5 36.5q50 -1 81 -27.5t30 -59.5
q-2 -23 -13.5 -37.5t-28.5 -14.5q-16 0 -26.5 11t-9.5 30q1 17 12.5 32.5t11.5 20.5q0 12 -17 20t-42 8q-31 1 -53 -17.5t-25 -49.5q-2 -28 13 -47.5t54 -44.5q48 -30 67.5 -60.5t15.5 -78.5q-6 -62 -49.5 -96.5t-100.5 -34.5z" />
    <glyph glyph-name="t" unicode="t" horiz-adv-x="276" 
d="M88 -6q-40 0 -61 22t-22 61q0 25 9 65l62 264h-57l2 12q60 8 102 44.5t75 134.5h15l-44 -174h102l-3 -17h-103l-67 -274l-8 -52q2 -46 34 -46q23 0 44.5 25.5t48.5 80.5l13 -6q-33 -74 -65.5 -107t-76.5 -33z" />
    <glyph glyph-name="u" unicode="u" horiz-adv-x="417" 
d="M59 -6q-32 0 -48.5 21t-16.5 58q0 29 20 97l53 174q7 22 7 38q1 13 -8 19.5t-28 6.5h-29l5 14l154 9q1 -46 -23 -126l-44 -136q-24 -86 -24 -103q0 -28 20 -28q32 0 77.5 74.5t67.5 161.5l36 147h89l-76 -282q-14 -51 -14 -71q0 -27 17 -27q29 0 71 90l13 -7
q-55 -128 -126 -128q-28 0 -42 18.5t-14 46.5q0 25 10 60l10 35l-3 1q-73 -163 -154 -163z" />
    <glyph glyph-name="v" unicode="v" horiz-adv-x="359" 
d="M100 -8q-94 0 -93 111q0 41 25 130l33 116q6 21 6 33q0 26 -35 26h-26l4 14l149 8q0 -47 -23 -127l-18 -67q-2 -8 -9.5 -35t-11 -39t-7 -31.5t-3.5 -33.5q-3 -69 44 -69q47 -1 99.5 93t55.5 170q1 13 -2.5 23.5t-6.5 14.5t-11.5 13t-10.5 11q-19 26 -19 47q0 16 10 26.5
t24 10.5q22 0 34.5 -26t10.5 -68q-3 -79 -34 -160t-81.5 -136t-103.5 -55z" />
    <glyph glyph-name="w" unicode="w" horiz-adv-x="541" 
d="M95 -6q-90 0 -89 108q0 41 27 139l32 108q6 21 6 33q0 26 -34 26h-27l4 14l149 8q0 -49 -23 -127l-19 -60q-29 -105 -31 -146q-4 -67 38 -67q24 0 49.5 40.5t39.5 97.5l62 255h84l-42 -177q-26 -114 -26 -147q0 -68 44 -68q29 0 61.5 45t53 106t20.5 109q0 13 -4 23.5
t-7.5 15t-11.5 13t-10 10.5q-20 23 -20 47q0 16 10 26.5t24 10.5q23 0 35 -26t11 -68q-2 -79 -28 -159t-71 -135t-96 -55q-46 0 -69.5 30t-20.5 87h-2q-43 -117 -119 -117z" />
    <glyph glyph-name="x" unicode="x" horiz-adv-x="379" 
d="M5 -5q-19 0 -31.5 14.5t-11.5 37.5t13 37.5t28 14.5q31 0 29 -39q0 -4 -1 -11.5t-0.5 -10t4.5 -2.5q24 0 89 152q-8 118 -15.5 155.5t-21.5 37.5q-26 0 -70 -84l-12 7q32 67 58.5 97t63.5 30q20 0 32.5 -9.5t23.5 -46.5t16 -105q37 89 64.5 125.5t61.5 36.5
q20 0 31.5 -15.5t11.5 -38.5q0 -24 -12 -38.5t-27 -14.5q-36 0 -33 48v7q1 12 -5 12q-13 0 -38 -43.5t-51 -108.5q8 -125 15 -160t24 -36q25 0 64 85l12 -7q-54 -128 -112 -128q-38 0 -55.5 32t-23.5 133q-35 -89 -62 -126.5t-59 -37.5z" />
    <glyph glyph-name="y" unicode="y" horiz-adv-x="350" 
d="M-12 -206q-26 0 -43 18t-17 44q-1 25 12 41.5t30 16.5q16 0 26.5 -12t9.5 -32q-1 -12 -7.5 -25t-6.5 -16q0 -12 11 -12q26 0 61.5 46.5t64.5 104.5q-8 104 -40 293q-12 69 -19.5 93t-18.5 24q-21 0 -62 -81l-12 8q28 64 55 94.5t65 30.5q32 0 50.5 -37.5t34.5 -148.5
q11 -74 15 -147q79 153 80 212q0 15 -13 40.5t-14 43.5q-1 19 8.5 31t26.5 12q35 0 35 -58q-1 -39 -36.5 -130.5t-95.5 -205.5q-75 -144 -116 -196t-84 -52z" />
    <glyph glyph-name="z" unicode="z" horiz-adv-x="347" 
d="M-14 -6q-24 0 -21 33q4 56 126 164q33 29 78.5 63.5t68 56t37.5 51.5l-3 2q-35 -46 -81 -46q-20 0 -48.5 14t-47.5 14q-23 0 -43.5 -21t-33.5 -62h-11q13 68 42.5 118.5t77.5 50.5q31 0 65 -28.5t60 -28.5q23 0 32 32q7 24 23 24q19 0 17 -28q-3 -32 -45 -79t-105 -95
q-7 -5 -25.5 -19.5t-26.5 -21l-24 -19.5t-24.5 -21.5t-19.5 -20t-18.5 -22t-12.5 -20.5l2 -1q29 29 65 29q22 0 53.5 -15.5t52.5 -15.5q66 0 86 94h11q-9 -75 -42.5 -128.5t-85.5 -53.5q-27 0 -52 17t-44.5 34t-33.5 17q-10 0 -16 -10t-6 -23q-1 -14 -8.5 -24.5t-18.5 -10.5
z" />
    <glyph glyph-name="braceleft" unicode="{" horiz-adv-x="309" 
d="M187 -129h-24q-78 0 -114 27t-29 87q3 32 27.5 97.5t27.5 95.5q5 50 -11.5 72t-69.5 21l4 13q63 -1 95.5 29.5t44.5 98.5q4 24 6.5 74t5.5 67q12 75 63 103t143 28h21l-2 -13q-66 -1 -92.5 -26.5t-34.5 -83.5q-2 -14 -6 -68.5t-10 -81.5q-8 -38 -27 -64t-48.5 -39.5
t-54.5 -19.5t-61 -10v-2q60 -7 92.5 -34.5t28.5 -78.5q-2 -35 -25 -98.5t-26 -88.5q-4 -46 12 -68.5t67 -22.5z" />
    <glyph glyph-name="bar" unicode="|" horiz-adv-x="196" 
d="M84 -209v893h28v-893h-28z" />
    <glyph glyph-name="braceright" unicode="}" horiz-adv-x="308" 
d="M86 685h22q78 0 114.5 -27t29.5 -87q-4 -33 -27.5 -97.5t-26.5 -94.5q-5 -51 11.5 -72.5t68.5 -20.5l-3 -14q-63 1 -95.5 -29.5t-44.5 -98.5q-4 -24 -7 -74t-6 -67q-12 -75 -62.5 -103t-142.5 -28h-24l2 13q67 1 94.5 27t35.5 84q2 16 6.5 69.5t9.5 79.5q8 38 27 64
t48.5 39.5t54.5 19.5t61 10v3q-60 6 -92 33t-28 79q3 34 25 97.5t25 89.5q5 45 -11 68t-67 23z" />
    <glyph glyph-name="asciitilde" unicode="~" horiz-adv-x="283" 
d="M-1 167l-8 3q23 109 86 109q20 0 55.5 -10t48.5 -10q20 0 31 7.5t21 33.5l9 -3q-10 -55 -30.5 -83t-55.5 -27q-20 1 -55.5 11.5t-48.5 10.5q-19 0 -30.5 -8t-22.5 -34z" />
    <glyph glyph-name="nbspace" unicode="&#xa0;" horiz-adv-x="500" 
 />
    <glyph glyph-name="exclamdown" unicode="&#xa1;" horiz-adv-x="229" 
d="M157 480q-41 -170 -41 -318q0 -70 -3 -91q-10 -81 -74 -81q-26 0 -39 17t-11 45q1 34 40 112q77 156 114 316h14zM127 639q0 23 16 39.5t39 16.5t40 -16.5t17 -39.5q0 -24 -16.5 -40t-40.5 -16q-23 0 -39 16t-16 40z" />
    <glyph glyph-name="cent" unicode="&#xa2;" horiz-adv-x="336" 
d="M-16 -135l68 145q-56 47 -44 160q11 108 76.5 188t143.5 80q15 0 21 -2l45 99h17l-47 -103q54 -21 52 -97q-1 -28 -14.5 -44.5t-30.5 -16.5q-18 0 -29 13t-11 33q1 22 13.5 36.5t29.5 14.5q15 0 14 0q2 1 2 7q0 13 -9 24t-25 14l-158 -350q16 -44 54 -44q56 0 113 93
l12 -10q-69 -119 -158 -119q-32 0 -55 16l-64 -137h-16zM93 91l147 328h-4q-53 -1 -90 -68t-49 -157q-9 -59 -4 -103z" />
    <glyph glyph-name="sterling" unicode="&#xa3;" horiz-adv-x="399" 
d="M15 -9q-30 0 -48 20t-17 53q2 39 25.5 61.5t58.5 22.5q33 0 85 -32q19 43 23 106q2 41 -9 98h-87l6 19h77q-12 64 -10 107q5 99 60 157t140 58q54 0 82.5 -32.5t24.5 -83.5q-3 -41 -20 -60t-38 -19q-19 0 -31.5 14.5t-11.5 36.5t14.5 37.5t35.5 15.5q7 0 14 -3.5
t9.5 -2.5t3.5 11q2 27 -19 48.5t-56 21.5q-51 0 -77.5 -44.5t-34.5 -137.5q-3 -39 -1 -124h116l-6 -19h-109q1 -14 -4 -56q-13 -92 -63 -162q35 -22 66 -22q88 0 120 125h14q-18 -105 -56 -158.5t-90 -53.5q-53 0 -90 59q-51 -61 -97 -61zM14 7q44 0 84 67q-34 57 -71 57
q-25 0 -41.5 -18.5t-18.5 -45.5q-2 -28 11.5 -44t35.5 -16z" />
    <glyph glyph-name="currency" unicode="&#xa4;" horiz-adv-x="427" 
d="M202 -14q-81 0 -121 74.5t-23 200.5h-50l5 20h47q5 41 20 91h-46l6 20h46q39 119 112.5 195t159.5 76q53 0 82.5 -30.5t26.5 -79.5q-3 -41 -20 -62.5t-38 -21.5q-19 0 -31 13t-11 34q3 48 49 56q3 1 8.5 1.5t7 1t4.5 2.5t4 5.5t1 9.5q0 19 -21.5 36.5t-50.5 17.5
q-58 0 -106 -71t-79 -183h153l-5 -20h-153q-13 -48 -20 -91h154l-5 -20h-152q-38 -251 62 -252q81 -1 137 134h16q-58 -157 -169 -157z" />
    <glyph glyph-name="yen" unicode="&#xa5;" horiz-adv-x="474" 
d="M39 0l4 16h29q27 0 42 15.5t23 52.5l43 185h-139l5 20h135l-25 112h-84l5 20h74l-34 149q-7 30 -20 45.5t-41 15.5h-3l5 17h225l-4 -17h-19q-40 0 -41 -30q-1 -12 2 -31l53 -255l132 204q38 58 38 84q1 14 -11 21t-33 7h-11l3 17h160l-5 -17q-33 -5 -52.5 -24.5
t-59.5 -79.5q-5 -8 -8 -12l-62 -93h90l-5 -20h-99l-74 -113h147l-6 -20h-145l-43 -186q-8 -37 0 -52t37 -15h30l-4 -16h-254z" />
    <glyph glyph-name="brokenbar" unicode="&#xa6;" horiz-adv-x="193" 
d="M83 312v372h28v-372h-28zM83 -209v373h28v-373h-28z" />
    <glyph glyph-name="section" unicode="&#xa7;" horiz-adv-x="370" 
d="M116 -14q-50 0 -73 26.5t-23 59.5q0 26 12 43t31 17q16 0 26 -12t9 -30q0 -32 -31 -43l-10.5 -3.5t-5.5 -4t0 -7.5q4 -11 21 -21t42 -10q33 0 54.5 20t24.5 53q2 29 -15.5 52.5t-67.5 53.5q-86 49 -79 131q4 49 33.5 82.5t76.5 44.5q-35 38 -29 100q5 53 42 88t96 35
q50 0 73.5 -26t23.5 -58q0 -27 -12.5 -42.5t-28.5 -15.5q-17 0 -26.5 11.5t-8.5 29.5q0 31 27 43l6 2l4.5 1.5t4 1.5t2.5 2t0.5 3t-0.5 4q-4 11 -21.5 20t-42.5 9q-32 0 -53 -20.5t-24 -54.5q-2 -30 12 -51t52 -43q106 -56 98 -143q-4 -48 -34.5 -81.5t-76.5 -44.5
q37 -40 30 -102q-6 -53 -43.5 -86.5t-95.5 -33.5zM214 220q26 5 44 26t20 50q2 28 -15.5 49.5t-56.5 42.5q-37 22 -54 38q-25 -5 -43 -25t-20 -49q-2 -28 14.5 -50t56.5 -44q34 -20 54 -38z" />
    <glyph glyph-name="dieresis" unicode="&#xa8;" 
d="M321 487q-20 0 -34 14.5t-14 34.5t14 34t34 14t34 -14t14 -34t-14 -34.5t-34 -14.5zM180 487q-20 0 -34 14.5t-14 34.5t14 34t34 14t34 -14t14 -34t-14 -34.5t-34 -14.5z" />
    <glyph glyph-name="copyright" unicode="&#xa9;" horiz-adv-x="664" 
d="M332 -16q-127 0 -213 103.5t-86 254.5t86 254.5t213 103.5t213 -103t86 -255q0 -151 -86 -254.5t-213 -103.5zM332 0q120 0 200 98.5t80 243.5t-80 243.5t-200 98.5t-199.5 -98t-79.5 -244t79.5 -244t199.5 -98zM339 135q-72 0 -119 59.5t-47 149.5q0 91 47.5 150.5
t119.5 59.5q34 0 66 -24q12 -9 23 -9q15 0 22 33h10l5 -171h-13q-15 78 -45 117t-68 39q-75 0 -75 -192q0 -191 84 -191q88 0 112 144h14q-23 -165 -136 -165z" />
    <glyph glyph-name="ordfeminine" unicode="&#xaa;" horiz-adv-x="335" 
d="M28 258l4 18h260l-5 -18h-259zM126 334q-34 0 -54.5 27t-18.5 82q4 86 52 149.5t100 63.5q50 0 56 -77h2q52 67 59 80l15 -1q-11 -33 -59 -225q-8 -40 -9 -47q0 -16 12 -16q19 0 49 65l10 -6q-40 -94 -92 -94q-19 0 -30 11.5t-11 31.5q0 23 6 37h-2q-14 -36 -36 -58.5
t-49 -22.5zM146 357q17 0 36 31t34 73q22 65 25 110q5 70 -29 70q-22 0 -43 -38.5t-34 -93.5q-14 -56 -14 -102q-2 -50 25 -50z" />
    <glyph glyph-name="guillemotleft" unicode="&#xab;" horiz-adv-x="386" 
d="M269 0l-136 222l236 221h13l-153 -225l53 -218h-13zM124 0l-135 222l236 221h13l-153 -225l52 -218h-13z" />
    <glyph glyph-name="logicalnot" unicode="&#xac;" horiz-adv-x="757" 
d="M568 357q-74 0 -125 55.5t-51 136.5q0 60 34 102t81 42q30 0 50.5 -19t20.5 -45q0 -18 -11.5 -32t-29.5 -14q-17 0 -29.5 13t-12.5 30t9 33q13 17 3 21h-4q-23 -2 -40.5 -27t-17.5 -65q0 -63 49.5 -116t107.5 -53q35 0 58 17t25 42q0 7 -2.5 9t-6 -0.5t-7.5 -6.5
q-11 -11 -31 -11q-16 0 -28 14t-12 33t13 31.5t29 12.5q24 0 42 -22.5t18 -55.5q0 -50 -39 -87.5t-93 -37.5zM189 357q-54 0 -93 37.5t-39 87.5q0 33 18 55.5t42 22.5q16 0 28.5 -12.5t12.5 -31.5t-11.5 -33t-26.5 -14q-21 0 -32 11q-4 4 -7.5 6.5t-6 0.5t-2.5 -9
q2 -25 25 -42t58 -17q59 0 108 52.5t49 116.5q0 40 -17.5 65t-40.5 27q-5 0 -7 -1.5t-1 -5t2.5 -7t4.5 -7.5q9 -16 9 -33t-12.5 -30t-30.5 -13q-17 0 -29 14t-12 32q0 26 21 45t51 19q46 0 80.5 -42.5t34.5 -101.5q0 -81 -51 -136.5t-125 -55.5zM507 -9q-47 0 -81 42
t-34 102q0 81 51 136.5t125 55.5q54 0 93 -37.5t39 -87.5q0 -33 -18 -55.5t-42 -22.5q-16 0 -29 12.5t-13 31.5t12 33t28 14q20 0 31 -11q4 -4 7.5 -6.5t6 -0.5t2.5 9q-2 25 -25 42t-58 17q-58 0 -107.5 -53t-49.5 -116q0 -40 17.5 -65t40.5 -27q14 -1 5 16q-2 2 -4 5
q-9 16 -9 33t12.5 30t29.5 13q18 0 29.5 -14t11.5 -32q0 -26 -20.5 -45t-50.5 -19zM250 -9q-30 0 -51 19t-21 45q0 18 12 32t29 14q18 0 30.5 -13t12.5 -30t-9 -33q-13 -17 -3 -21h4q23 2 40.5 27t17.5 65q0 64 -49 116.5t-108 52.5q-35 0 -58 -17t-25 -42q0 -7 2.5 -9
t6 0.5t7.5 6.5q11 11 32 11q15 0 26.5 -14t11.5 -33t-12.5 -31.5t-28.5 -12.5q-24 0 -42 22.5t-18 55.5q0 50 39 87.5t93 37.5q74 0 125 -55.5t51 -136.5q0 -59 -34.5 -101.5t-80.5 -42.5z" />
    <glyph glyph-name="registered" unicode="&#xae;" horiz-adv-x="412" 
d="M246 324q-73 0 -123 53.5t-50 131.5t50 131t123 53q72 0 122.5 -53t50.5 -131t-50.5 -131.5t-122.5 -53.5zM246 339q66 0 110 49t44 121q0 71 -44 119.5t-110 48.5t-110 -48.5t-44 -119.5q0 -72 44 -121t110 -49zM314 403q-18 0 -28.5 12t-15.5 43q-9 49 -30 49h-15v-76
q0 -12 14 -12h9v-11h-90v11h7q16 0 16 12v163q0 13 -16 13h-7v13h85q80 0 80 -55q0 -22 -17 -36t-44 -17q30 -7 44 -47q9 -22 13 -28t10 -6q13 0 13 29h8q1 -25 -9 -41t-27 -16zM225 517h13q39 0 39 47q0 43 -30 43h-8q-14 0 -14 -13v-77z" />
    <glyph glyph-name="macron" unicode="&#xaf;" 
d="M140 493l18 58h189l-17 -58h-190z" />
    <glyph glyph-name="macron" unicode="&#x2c9;" 
d="M140 493l18 58h189l-17 -58h-190z" />
    <glyph glyph-name="degree" unicode="&#xb0;" horiz-adv-x="297" 
d="M195 436q-46 0 -77 32.5t-31 79.5t31.5 79.5t77.5 32.5t76.5 -32t30.5 -79t-31 -80t-77 -33zM197 456q36 0 60 26.5t24 65.5q0 38 -24.5 65t-61.5 27t-60 -25.5t-23 -65.5q0 -39 24 -66t61 -27z" />
    <glyph glyph-name="plusminus" unicode="&#xb1;" horiz-adv-x="647" 
d="M-96 -206q-28 0 -43 16.5t-15 38.5q0 25 12.5 39.5t29.5 14.5q37 0 37 -49q0 -6 -1.5 -13t-3 -11.5t-2.5 -8.5t0.5 -6t5.5 -2q11 0 26.5 39.5t27.5 99.5l93 454h-51l4 17h51l9 41q24 117 79 171t116 54q37 0 59.5 -19.5t23.5 -49.5q59 77 142 77q45 0 68 -28l85 32
l-143 -567q-13 -56 -14 -68q-2 -29 17 -29q29 0 73 93l12 -7q-26 -62 -57 -95.5t-72 -33.5q-57 0 -59 62q0 33 10 72l71 278h-122l-45 -207q-46 -212 -95.5 -295.5t-110.5 -83.5q-28 0 -43.5 17t-15.5 39q0 24 13 38.5t29 14.5q41 0 38 -49q-1 -6 -2.5 -13t-3 -11.5t-2 -8.5
t1 -5.5t5.5 -1.5q11 0 26.5 39t27.5 99l87 428h-122l-49 -225q-32 -149 -67 -237t-68 -119t-73 -31zM165 423h122l9 42q14 64 36 104q-9 -6 -21 -6q-13 0 -22.5 11.5t-8.5 29.5q1 17 10.5 32.5t9.5 19.5q0 16 -20 16q-60 0 -97 -168zM376 423h123l37 144q-28 6 -27 43
q1 16 10 31t9 19q0 17 -24 17q-73 0 -110 -169z" />
    <glyph glyph-name="twosuperior" unicode="&#xb2;" horiz-adv-x="316" 
d="M45 297l3 20q22 44 46 73.5t74 75.5q59 55 64 121q4 59 -37 59q-21 0 -38 -14t-20 -33q-1 -3 0 -5.5t4 -1.5q14 3 23.5 -6t8.5 -25q-1 -17 -11 -26.5t-24 -9.5t-23 11.5t-8 31.5q2 44 33.5 70t68.5 27q44 0 70.5 -21.5t24.5 -63.5q-1 -38 -26 -66t-80 -63
q-34 -22 -47 -31t-31 -26.5t-31 -37.5h107q22 0 35 14t25 50l12 -1l-32 -122h-191z" />
    <glyph glyph-name="threesuperior" unicode="&#xb3;" horiz-adv-x="305" 
d="M130 286q-32 2 -54.5 24.5t-20.5 54.5q3 59 43 59q12 0 20 -9.5t7 -24.5q-1 -18 -14 -27t-31 -4q-5 3 -7 -4q-3 -19 13.5 -34.5t40.5 -15.5q30 0 48.5 26.5t21.5 72.5q5 67 -41 67q-4 0 -10 -1t-9 -1q-11 0 -11 12t16 12q2 0 8 -1.5t10 -1.5q67 0 72 100q3 58 -38 58
q-17 0 -32 -7.5t-21 -19.5q-4 -8 -2 -10q1 -2 8 -2q25 -4 23 -34q0 -16 -9.5 -24.5t-22.5 -8.5q-12 0 -21 10.5t-8 27.5q1 38 30 62t65 25q42 1 68.5 -23t24.5 -65q-2 -39 -36.5 -65.5t-87.5 -31.5v-2q45 -2 68 -26t21 -60q-3 -51 -42 -80.5t-90 -27.5z" />
    <glyph glyph-name="acute" unicode="&#xb4;" 
d="M339 532l-104 -52l-6 8l65 99q28 41 57 39q17 -1 28 -14t9 -28q-2 -29 -49 -52z" />
    <glyph glyph-name="mu" unicode="&#xb5;" horiz-adv-x="757" 
d="M568 357q-74 0 -125 55.5t-51 136.5q0 60 34 102t81 42q30 0 50.5 -19t20.5 -45q0 -18 -11.5 -32t-29.5 -14q-17 0 -29.5 13t-12.5 30t9 33q13 17 3 21h-4q-23 -2 -40.5 -27t-17.5 -65q0 -63 49.5 -116t107.5 -53q35 0 58 17t25 42q0 7 -2.5 9t-6 -0.5t-7.5 -6.5
q-11 -11 -31 -11q-16 0 -28 14t-12 33t13 31.5t29 12.5q24 0 42 -22.5t18 -55.5q0 -50 -39 -87.5t-93 -37.5zM189 357q-54 0 -93 37.5t-39 87.5q0 33 18 55.5t42 22.5q16 0 28.5 -12.5t12.5 -31.5t-11.5 -33t-26.5 -14q-21 0 -32 11q-4 4 -7.5 6.5t-6 0.5t-2.5 -9
q2 -25 25 -42t58 -17q59 0 108 52.5t49 116.5q0 40 -17.5 65t-40.5 27q-5 0 -7 -1.5t-1 -5t2.5 -7t4.5 -7.5q9 -16 9 -33t-12.5 -30t-30.5 -13q-17 0 -29 14t-12 32q0 26 21 45t51 19q46 0 80.5 -42.5t34.5 -101.5q0 -81 -51 -136.5t-125 -55.5zM507 -9q-47 0 -81 42
t-34 102q0 81 51 136.5t125 55.5q54 0 93 -37.5t39 -87.5q0 -33 -18 -55.5t-42 -22.5q-16 0 -29 12.5t-13 31.5t12 33t28 14q20 0 31 -11q4 -4 7.5 -6.5t6 -0.5t2.5 9q-2 25 -25 42t-58 17q-58 0 -107.5 -53t-49.5 -116q0 -40 17.5 -65t40.5 -27q14 -1 5 16q-2 2 -4 5
q-9 16 -9 33t12.5 30t29.5 13q18 0 29.5 -14t11.5 -32q0 -26 -20.5 -45t-50.5 -19zM250 -9q-30 0 -51 19t-21 45q0 18 12 32t29 14q18 0 30.5 -13t12.5 -30t-9 -33q-13 -17 -3 -21h4q23 2 40.5 27t17.5 65q0 64 -49 116.5t-108 52.5q-35 0 -58 -17t-25 -42q0 -7 2.5 -9
t6 0.5t7.5 6.5q11 11 32 11q15 0 26.5 -14t11.5 -33t-12.5 -31.5t-28.5 -12.5q-24 0 -42 22.5t-18 55.5q0 50 39 87.5t93 37.5q74 0 125 -55.5t51 -136.5q0 -59 -34.5 -101.5t-80.5 -42.5z" />
    <glyph glyph-name="mu" unicode="&#x3bc;" horiz-adv-x="757" 
d="M568 357q-74 0 -125 55.5t-51 136.5q0 60 34 102t81 42q30 0 50.5 -19t20.5 -45q0 -18 -11.5 -32t-29.5 -14q-17 0 -29.5 13t-12.5 30t9 33q13 17 3 21h-4q-23 -2 -40.5 -27t-17.5 -65q0 -63 49.5 -116t107.5 -53q35 0 58 17t25 42q0 7 -2.5 9t-6 -0.5t-7.5 -6.5
q-11 -11 -31 -11q-16 0 -28 14t-12 33t13 31.5t29 12.5q24 0 42 -22.5t18 -55.5q0 -50 -39 -87.5t-93 -37.5zM189 357q-54 0 -93 37.5t-39 87.5q0 33 18 55.5t42 22.5q16 0 28.5 -12.5t12.5 -31.5t-11.5 -33t-26.5 -14q-21 0 -32 11q-4 4 -7.5 6.5t-6 0.5t-2.5 -9
q2 -25 25 -42t58 -17q59 0 108 52.5t49 116.5q0 40 -17.5 65t-40.5 27q-5 0 -7 -1.5t-1 -5t2.5 -7t4.5 -7.5q9 -16 9 -33t-12.5 -30t-30.5 -13q-17 0 -29 14t-12 32q0 26 21 45t51 19q46 0 80.5 -42.5t34.5 -101.5q0 -81 -51 -136.5t-125 -55.5zM507 -9q-47 0 -81 42
t-34 102q0 81 51 136.5t125 55.5q54 0 93 -37.5t39 -87.5q0 -33 -18 -55.5t-42 -22.5q-16 0 -29 12.5t-13 31.5t12 33t28 14q20 0 31 -11q4 -4 7.5 -6.5t6 -0.5t2.5 9q-2 25 -25 42t-58 17q-58 0 -107.5 -53t-49.5 -116q0 -40 17.5 -65t40.5 -27q14 -1 5 16q-2 2 -4 5
q-9 16 -9 33t12.5 30t29.5 13q18 0 29.5 -14t11.5 -32q0 -26 -20.5 -45t-50.5 -19zM250 -9q-30 0 -51 19t-21 45q0 18 12 32t29 14q18 0 30.5 -13t12.5 -30t-9 -33q-13 -17 -3 -21h4q23 2 40.5 27t17.5 65q0 64 -49 116.5t-108 52.5q-35 0 -58 -17t-25 -42q0 -7 2.5 -9
t6 0.5t7.5 6.5q11 11 32 11q15 0 26.5 -14t11.5 -33t-12.5 -31.5t-28.5 -12.5q-24 0 -42 22.5t-18 55.5q0 50 39 87.5t93 37.5q74 0 125 -55.5t51 -136.5q0 -59 -34.5 -101.5t-80.5 -42.5z" />
    <glyph glyph-name="paragraph" unicode="&#xb6;" horiz-adv-x="380" 
d="M77 -5l76 314q-48 10 -77 46.5t-29 93.5q0 84 55.5 141t144.5 57h173l-6 -22h-59l-152 -630h-26l152 630h-74l-152 -630h-26z" />
    <glyph glyph-name="periodcentered" unicode="&#xb7;" horiz-adv-x="205" 
d="M33 279q0 24 16 40t39 16t39 -16t16 -40q0 -23 -16 -39t-39 -16t-39 16t-16 39z" />
    <glyph glyph-name="periodcentered" unicode="&#x2219;" horiz-adv-x="205" 
d="M33 279q0 24 16 40t39 16t39 -16t16 -40q0 -23 -16 -39t-39 -16t-39 16t-16 39z" />
    <glyph glyph-name="cedilla" unicode="&#xb8;" 
d="M101 -199q-55 0 -85 40l11 12q25 -24 62 -24q23 0 37 13.5t15 35.5q1 19 -8.5 29t-24.5 10q-12 0 -20 -3l31 84h14l-21 -59q15 3 23 3q31 0 50.5 -16.5t18.5 -44.5q-1 -38 -31 -59t-72 -21z" />
    <glyph glyph-name="onesuperior" unicode="&#xb9;" horiz-adv-x="280" 
d="M47 296l4 15h17q17 0 24.5 6.5t12.5 24.5l54 230q4 18 -0.5 24.5t-20.5 6.5h-19l5 15q82 7 109 45h14l-74 -321q-4 -18 0 -24.5t20 -6.5h16l-4 -15h-158z" />
    <glyph glyph-name="ordmasculine" unicode="&#xba;" horiz-adv-x="306" 
d="M21 258l5 18h236l-4 -18h-237zM151 331q-41 0 -66.5 33t-24.5 90q2 80 50.5 141t105.5 61q40 0 65.5 -33t24.5 -88q-1 -81 -50 -142.5t-105 -61.5zM150 342q35 0 63 86t29 160q1 56 -25 56q-35 0 -64 -89.5t-30 -158.5q0 -54 27 -54z" />
    <glyph glyph-name="guillemotright" unicode="&#xbb;" horiz-adv-x="386" 
d="M-51 0l153 226l-53 217h14l134 -222l-235 -221h-13zM93 0l153 226l-52 217h13l135 -222l-236 -221h-13z" />
    <glyph glyph-name="onequarter" unicode="&#xbc;" horiz-adv-x="580" 
d="M39 296l5 15h16q16 0 24 7t13 24l54 230q4 18 -0.5 24.5t-20.5 6.5h-19l5 15q82 7 109 45h14l-74 -321q-4 -18 0 -24.5t20 -6.5h16l-4 -15h-158zM63 -6l429 659h26l-431 -659h-24zM329 0l4 16h13q16 0 22.5 6t10.5 25l10 44h-123l4 16l214 257h33l-58 -254h40l-4 -19h-40
l-10 -45q-4 -18 -0.5 -24t18.5 -6h11l-4 -16h-141zM291 110h103l37 168z" />
    <glyph glyph-name="onehalf" unicode="&#xbd;" horiz-adv-x="608" 
d="M39 296l5 15h16q16 0 24 7t13 24l54 230q4 18 -0.5 24.5t-20.5 6.5h-19l5 15q82 7 109 45h14l-74 -321q-4 -18 0 -24.5t20 -6.5h16l-4 -15h-158zM60 -6l430 659h26l-432 -659h-24zM289 0l2 20q22 44 46.5 73.5t74.5 75.5q58 54 64 122q4 58 -37 58q-22 0 -39.5 -14
t-19.5 -34q0 -6 6 -5q12 3 22 -6.5t9 -25.5q-1 -17 -11.5 -26.5t-23.5 -9.5q-14 0 -23 11t-8 32q2 44 33.5 70.5t68.5 26.5q44 0 70.5 -21.5t24.5 -62.5q-2 -38 -26.5 -65.5t-79.5 -64.5q-67 -44 -87 -66q-12 -12 -22 -28h107q22 0 34 13.5t25 48.5h12l-32 -122h-190z" />
    <glyph glyph-name="threequarters" unicode="&#xbe;" horiz-adv-x="601" 
d="M130 286q-32 2 -53.5 24.5t-20.5 54.5q3 59 43 59q12 0 19.5 -10t7.5 -24q-1 -18 -14 -27t-31 -4q-7 2 -7 -4q-2 -19 14 -34.5t40 -15.5q30 0 48.5 26.5t21.5 72.5q5 67 -42 67q-4 0 -9.5 -1t-8.5 -1q-12 0 -11 12q0 12 16 12q2 0 8 -1.5t10 -1.5q67 0 72 100
q3 58 -38 58q-17 0 -32.5 -8t-21.5 -19q-3 -8 -2 -10t8 -2q11 -2 18 -11t6 -23q-1 -16 -10 -24.5t-22 -8.5q-12 0 -21 10.5t-8 27.5q1 38 29.5 62t64.5 25q43 1 69.5 -23t23.5 -65q-2 -39 -36 -66t-87 -31v-2q45 -2 68 -26.5t21 -59.5q-4 -52 -43 -81t-90 -27zM98 -6
l430 659h25l-431 -659h-24zM354 0l3 16h14q16 0 22.5 6t10.5 25l9 44h-122l3 16l215 257h33l-59 -254h40l-4 -19h-40l-9 -45q-5 -18 -1 -24t19 -6h10l-3 -16h-141zM316 110h102l37 168z" />
    <glyph glyph-name="questiondown" unicode="&#xbf;" horiz-adv-x="328" 
d="M229 481l-2 -12q-10 -61 -28.5 -102.5t-53.5 -85.5q-59 -75 -66 -173q-6 -100 56 -100q34 0 58.5 20t30.5 44q2 9 0 9h-4q-5 -1 -9 -1q-17 0 -29 14t-12 36q1 23 14 38t33 15q19 0 32 -15.5t13 -43.5q-1 -56 -42 -94.5t-103 -38.5q-68 0 -105.5 33.5t-36.5 96.5
q1 31 10.5 56.5t30.5 48.5t33 33.5t39 31.5q31 24 49.5 41.5t40.5 54t35 83.5l3 11h13zM191 638q0 23 16 39.5t39 16.5t40 -16.5t17 -39.5q0 -24 -16.5 -40t-40.5 -16q-23 0 -39 16t-16 40z" />
    <glyph glyph-name="Agrave" unicode="&#xc0;" horiz-adv-x="534" 
d="M-78 0l4 16q32 4 53.5 26.5t49.5 76.5l309 579h24l42 -611q3 -39 15 -53.5t44 -17.5l-4 -16h-245l4 16h24q50 0 57 45q4 20 2 66l-6 102h-182l-36 -72q-36 -74 -39 -97q-7 -44 36 -44h16l-4 -16h-164zM123 248h171l-16 296zM378 729l-100 55q-39 21 -41 50q-1 16 11 28.5
t29 12.5q29 0 52 -40l55 -99z" />
    <glyph glyph-name="Aacute" unicode="&#xc1;" horiz-adv-x="534" 
d="M-78 0l4 16q32 4 53.5 26.5t49.5 76.5l309 579h24l42 -611q3 -39 15 -53.5t44 -17.5l-4 -16h-245l4 16h24q50 0 57 45q4 20 2 66l-6 102h-182l-36 -72q-36 -74 -39 -97q-7 -44 36 -44h16l-4 -16h-164zM123 248h171l-16 296zM436 786l-104 -52l-6 8l65 99q28 41 57 39
q17 -1 28 -14t9 -28q-2 -29 -49 -52z" />
    <glyph glyph-name="Acircumflex" unicode="&#xc2;" horiz-adv-x="534" 
d="M-78 0l4 16q32 4 53.5 26.5t49.5 76.5l309 579h24l42 -611q3 -39 15 -53.5t44 -17.5l-4 -16h-245l4 16h24q50 0 57 45q4 20 2 66l-6 102h-182l-36 -72q-36 -74 -39 -97q-7 -44 36 -44h16l-4 -16h-164zM123 248h171l-16 296zM258 726l-9 8l106 143h54l34 -144l-11 -7
l-69 78z" />
    <glyph glyph-name="Atilde" unicode="&#xc3;" horiz-adv-x="534" 
d="M-78 0l4 16q32 4 53.5 26.5t49.5 76.5l309 579h24l42 -611q3 -39 15 -53.5t44 -17.5l-4 -16h-245l4 16h24q50 0 57 45q4 20 2 66l-6 102h-182l-36 -72q-36 -74 -39 -97q-7 -44 36 -44h16l-4 -16h-164zM123 248h171l-16 296zM252 730l-10 3q18 50 35.5 71.5t44.5 21.5
q14 0 51.5 -14t47.5 -14q22 0 40 35l9 -3q-18 -51 -36 -73t-44 -21q-15 1 -51.5 14.5t-45.5 13.5q-21 1 -41 -34z" />
    <glyph glyph-name="Adieresis" unicode="&#xc4;" horiz-adv-x="534" 
d="M-78 0l4 16q32 4 53.5 26.5t49.5 76.5l309 579h24l42 -611q3 -39 15 -53.5t44 -17.5l-4 -16h-245l4 16h24q50 0 57 45q4 20 2 66l-6 102h-182l-36 -72q-36 -74 -39 -97q-7 -44 36 -44h16l-4 -16h-164zM123 248h171l-16 296zM425 739q-20 0 -34 14.5t-14 34.5t14 34t34 14
t34 -14t14 -34t-14 -34.5t-34 -14.5zM284 739q-20 0 -34 14.5t-14 34.5t14 34t34 14t34 -14t14 -34t-14 -34.5t-34 -14.5z" />
    <glyph glyph-name="Aring" unicode="&#xc5;" horiz-adv-x="534" 
d="M-78 0l4 16q32 4 52.5 26t50.5 77l299 562q-29 9 -45.5 32t-16.5 53q0 36 26 62t64 26q39 0 64.5 -26t25.5 -62q0 -35 -23 -60t-60 -27l41 -592q2 -39 14 -53.5t45 -17.5l-4 -16h-245l4 16h24q50 0 57 46q4 21 2 65l-6 101h-182l-36 -71q-35 -69 -39 -97q-7 -44 36 -44
h16l-4 -16h-164zM123 248h171l-16 297zM356 700q25 0 41 18.5t16 47.5q0 30 -16 48t-41 18t-41.5 -18t-16.5 -48q0 -29 16.5 -47.5t41.5 -18.5z" />
    <glyph glyph-name="AE" unicode="&#xc6;" horiz-adv-x="769" 
d="M-75 0l4 16q36 5 61 30.5t70 91.5l266 385q68 98 69 121q0 24 -51 24h-18l5 16h459l-48 -252h-17q16 121 -4 178t-97 57h-27q-29 0 -44.5 -13.5t-22.5 -46.5l-53 -243h19q57 0 85 35.5t46 109.5h17l-72 -317h-16q17 73 3 113.5t-67 40.5h-19l-60 -269q-7 -33 2 -46.5
t37 -13.5h35q76 0 126.5 67t90.5 189h18l-68 -273h-427l4 16h17q27 0 42 14.5t22 46.5l33 154h-193l-40 -59q-58 -86 -58 -119q0 -35 40 -37h15l-3 -16h-181zM165 251h186l88 396h-5z" />
    <glyph glyph-name="Ccedilla" unicode="&#xc7;" horiz-adv-x="470" 
d="M175 -15q-75 7 -117 71.5t-42 166.5q0 119 42.5 228.5t116 176.5t157.5 66q55 -1 92 -43q13 -16 23 -16q22 0 43 56h14l-54 -274h-17q10 126 -16 193.5t-82 67.5q-125 0 -195 -332q-21 -101 -21 -189q0 -144 92 -144q60 -1 108.5 59.5t84.5 176.5h20q-40 -132 -93.5 -196
t-128.5 -68h-12l-17 -46q15 3 23 3q31 0 50.5 -16.5t18.5 -44.5q-1 -38 -31 -59t-72 -21q-55 0 -85 40l11 12q25 -24 62 -24q23 0 37 13.5t15 35.5q1 19 -8.5 29t-24.5 10q-13 0 -20 -3z" />
    <glyph glyph-name="Egrave" unicode="&#xc8;" horiz-adv-x="483" 
d="M-61 0l4 16h15q28 0 42.5 14t22.5 47l118 529q8 32 -1 47t-37 15h-16l4 16h410l-48 -252h-17q16 121 -4 178t-97 57h-27q-29 0 -44 -13.5t-22 -46.5l-54 -243h19q57 0 85 35.5t46 109.5h16l-71 -317h-16q17 73 3 113.5t-67 40.5h-19l-60 -269q-7 -33 2 -46.5t37 -13.5h35
q77 0 127 66.5t90 189.5h18l-68 -273h-426zM359 731l-100 55q-39 21 -41 50q-1 16 11 28.5t29 12.5q29 0 52 -40l55 -99z" />
    <glyph glyph-name="Eacute" unicode="&#xc9;" horiz-adv-x="483" 
d="M-61 0l4 16h15q28 0 42.5 14t22.5 47l118 529q8 32 -1 47t-37 15h-16l4 16h410l-48 -252h-17q16 121 -4 178t-97 57h-27q-29 0 -44 -13.5t-22 -46.5l-54 -243h19q57 0 85 35.5t46 109.5h16l-71 -317h-16q17 73 3 113.5t-67 40.5h-19l-60 -269q-7 -33 2 -46.5t37 -13.5h35
q77 0 127 66.5t90 189.5h18l-68 -273h-426zM412 782l-104 -52l-6 8l65 99q28 41 57 39q17 -1 28 -14t9 -28q-2 -29 -49 -52z" />
    <glyph glyph-name="Ecircumflex" unicode="&#xca;" horiz-adv-x="483" 
d="M-61 0l4 16h15q28 0 42.5 14t22.5 47l118 529q8 32 -1 47t-37 15h-16l4 16h410l-48 -252h-17q16 121 -4 178t-97 57h-27q-29 0 -44 -13.5t-22 -46.5l-54 -243h19q57 0 85 35.5t46 109.5h16l-71 -317h-16q17 73 3 113.5t-67 40.5h-19l-60 -269q-7 -33 2 -46.5t37 -13.5h35
q77 0 127 66.5t90 189.5h18l-68 -273h-426zM239 723l-9 8l106 143h54l34 -144l-11 -7l-69 78z" />
    <glyph glyph-name="Edieresis" unicode="&#xcb;" horiz-adv-x="483" 
d="M-61 0l4 16h15q28 0 42.5 14t22.5 47l118 529q8 32 -1 47t-37 15h-16l4 16h410l-48 -252h-17q16 121 -4 178t-97 57h-27q-29 0 -44 -13.5t-22 -46.5l-54 -243h19q57 0 85 35.5t46 109.5h16l-71 -317h-16q17 73 3 113.5t-67 40.5h-19l-60 -269q-7 -33 2 -46.5t37 -13.5h35
q77 0 127 66.5t90 189.5h18l-68 -273h-426zM400 735q-20 0 -34 14.5t-14 34.5t14 34t34 14t34 -14t14 -34t-14 -34.5t-34 -14.5zM259 735q-20 0 -34 14.5t-14 34.5t14 34t34 14t34 -14t14 -34t-14 -34.5t-34 -14.5z" />
    <glyph glyph-name="Igrave" unicode="&#xcc;" horiz-adv-x="273" 
d="M-56 0l4 16h13q29 0 43.5 13.5t21.5 47.5l119 529q7 35 -1.5 48.5t-37.5 13.5h-14l4 16h232l-3 -16h-13q-29 0 -44 -13.5t-22 -48.5l-119 -529q-7 -34 2 -47.5t37 -13.5h14l-4 -16h-232zM270 729l-100 55q-39 21 -41 50q-1 16 11 28.5t29 12.5q29 0 52 -40l55 -99z" />
    <glyph glyph-name="Iacute" unicode="&#xcd;" horiz-adv-x="273" 
d="M-56 0l4 16h13q29 0 43.5 13.5t21.5 47.5l119 529q7 35 -1.5 48.5t-37.5 13.5h-14l4 16h232l-3 -16h-13q-29 0 -44 -13.5t-22 -48.5l-119 -529q-7 -34 2 -47.5t37 -13.5h14l-4 -16h-232zM299 782l-104 -52l-6 8l65 99q28 41 57 39q17 -1 28 -14t9 -28q-2 -29 -49 -52z
" />
    <glyph glyph-name="Icircumflex" unicode="&#xce;" horiz-adv-x="273" 
d="M-56 0l4 16h13q29 0 43.5 13.5t21.5 47.5l119 529q7 35 -1.5 48.5t-37.5 13.5h-14l4 16h232l-3 -16h-13q-29 0 -44 -13.5t-22 -48.5l-119 -529q-7 -34 2 -47.5t37 -13.5h14l-4 -16h-232zM129 725l-9 8l106 143h54l34 -144l-11 -7l-69 78z" />
    <glyph glyph-name="Idieresis" unicode="&#xcf;" horiz-adv-x="273" 
d="M-56 0l4 16h13q29 0 43.5 13.5t21.5 47.5l119 529q7 35 -1.5 48.5t-37.5 13.5h-14l4 16h232l-3 -16h-13q-29 0 -44 -13.5t-22 -48.5l-119 -529q-7 -34 2 -47.5t37 -13.5h14l-4 -16h-232zM296 734q-20 0 -34 14.5t-14 34.5t14 34t34 14t34 -14t14 -34t-14 -34.5t-34 -14.5
zM155 734q-20 0 -34 14.5t-14 34.5t14 34t34 14t34 -14t14 -34t-14 -34.5t-34 -14.5z" />
    <glyph glyph-name="Eth" unicode="&#xd0;" horiz-adv-x="526" 
d="M-61 0l4 16h15q29 0 43.5 14t21.5 48l57 257h-61l5 19h61l56 252q15 62 -39 62h-15l3 16h225q88 0 140.5 -62.5t52.5 -177.5q0 -79 -24 -157t-67 -142.5t-109.5 -104.5t-144.5 -40h-224zM158 17h11q62 0 107.5 59t83.5 173q48 142 48 264q0 74 -24.5 114t-70.5 40h-10
q-26 0 -40 -13t-21 -45l-56 -255h100l-5 -19h-100l-58 -259q-7 -33 1 -46t34 -13z" />
    <glyph glyph-name="Ntilde" unicode="&#xd1;" horiz-adv-x="535" 
d="M349 -11l-189 594l-98 -440q-17 -72 -8 -99.5t54 -27.5h4l-4 -16h-175l4 16h5q41 0 60.5 27t35.5 100l106 475q-11 27 -25.5 37.5t-39.5 12.5l3 16h151l160 -500l80 357q15 79 4.5 102t-51.5 25h-4l4 16h181l-4 -16h-4q-42 0 -64 -28t-38 -99l-123 -552h-25zM265 733
l-10 3q18 50 35.5 71.5t44.5 21.5q14 0 51.5 -14t47.5 -14q22 0 40 35l9 -3q-18 -51 -36 -73t-44 -21q-15 1 -51.5 14.5t-45.5 13.5q-21 1 -41 -34z" />
    <glyph glyph-name="Ograve" unicode="&#xd2;" horiz-adv-x="514" 
d="M186 -15q-77 0 -123.5 65.5t-46.5 175.5q0 117 43 226.5t116 178t154 68.5q76 0 122.5 -65.5t46.5 -173.5q0 -117 -43 -227t-116 -179t-153 -69zM187 1q114 0 185 331q31 145 30 228q-2 123 -74 123q-46 0 -83 -48t-60 -115.5t-44 -166.5q-31 -145 -31 -226
q0 -126 77 -126zM384 727l-100 55q-39 21 -41 50q-1 16 11 28.5t29 12.5q29 0 52 -40l55 -99z" />
    <glyph glyph-name="Oacute" unicode="&#xd3;" horiz-adv-x="514" 
d="M186 -15q-77 0 -123.5 65.5t-46.5 175.5q0 117 43 226.5t116 178t154 68.5q76 0 122.5 -65.5t46.5 -173.5q0 -117 -43 -227t-116 -179t-153 -69zM187 1q114 0 185 331q31 145 30 228q-2 123 -74 123q-46 0 -83 -48t-60 -115.5t-44 -166.5q-31 -145 -31 -226
q0 -126 77 -126zM416 784l-104 -52l-6 8l65 99q28 41 57 39q17 -1 28 -14t9 -28q-2 -29 -49 -52z" />
    <glyph glyph-name="Ocircumflex" unicode="&#xd4;" horiz-adv-x="514" 
d="M186 -15q-77 0 -123.5 65.5t-46.5 175.5q0 117 43 226.5t116 178t154 68.5q76 0 122.5 -65.5t46.5 -173.5q0 -117 -43 -227t-116 -179t-153 -69zM187 1q114 0 185 331q31 145 30 228q-2 123 -74 123q-46 0 -83 -48t-60 -115.5t-44 -166.5q-31 -145 -31 -226
q0 -126 77 -126zM249 723l-9 8l106 143h54l34 -144l-11 -7l-69 78z" />
    <glyph glyph-name="Otilde" unicode="&#xd5;" horiz-adv-x="514" 
d="M186 -15q-77 0 -123.5 65.5t-46.5 175.5q0 117 43 226.5t116 178t154 68.5q76 0 122.5 -65.5t46.5 -173.5q0 -117 -43 -227t-116 -179t-153 -69zM187 1q114 0 185 331q31 145 30 228q-2 123 -74 123q-46 0 -83 -48t-60 -115.5t-44 -166.5q-31 -145 -31 -226
q0 -126 77 -126zM242 733l-10 3q18 50 35.5 71.5t44.5 21.5q14 0 51.5 -14t47.5 -14q22 0 40 35l9 -3q-18 -51 -36 -73t-44 -21q-15 1 -51.5 14.5t-45.5 13.5q-21 1 -41 -34z" />
    <glyph glyph-name="Odieresis" unicode="&#xd6;" horiz-adv-x="514" 
d="M186 -15q-77 0 -123.5 65.5t-46.5 175.5q0 117 43 226.5t116 178t154 68.5q76 0 122.5 -65.5t46.5 -173.5q0 -117 -43 -227t-116 -179t-153 -69zM187 1q114 0 185 331q31 145 30 228q-2 123 -74 123q-46 0 -83 -48t-60 -115.5t-44 -166.5q-31 -145 -31 -226
q0 -126 77 -126zM414 738q-20 0 -34 14.5t-14 34.5t14 34t34 14t34 -14t14 -34t-14 -34.5t-34 -14.5zM273 738q-20 0 -34 14.5t-14 34.5t14 34t34 14t34 -14t14 -34t-14 -34.5t-34 -14.5z" />
    <glyph glyph-name="multiply" unicode="&#xd7;" horiz-adv-x="415" 
d="M73 127l-25 25l136 170l-137 170l28 26l133 -167l133 167l25 -25l-136 -170l34 -43l68 -84l35 -43l-26 -25l-134 166z" />
    <glyph glyph-name="Oslash" unicode="&#xd8;" horiz-adv-x="515" 
d="M-31 -56l83 123q-36 63 -36 159q0 117 43 226.5t116.5 178t154.5 68.5q68 0 110 -50l62 91h20q-71 -104 -71 -105q48 -63 48 -175q0 -119 -43 -229t-116 -178t-153 -68t-125 65l-72 -106h-21zM187 1q117 0 186 331q24 109 27 188q1 24 0 43l-285 -437q2 -24 5 -42
t10.5 -39t21.5 -32.5t35 -11.5zM116 159l283 434q-9 90 -70 90q-35 0 -64.5 -25.5t-52 -74t-39.5 -103t-33 -127.5q-18 -82 -23 -155q-2 -27 -1 -39z" />
    <glyph glyph-name="Ugrave" unicode="&#xd9;" horiz-adv-x="540" 
d="M208 -11q-85 0 -128 40.5t-43 114.5q0 39 10 82l84 381q7 33 -2 47t-38 14h-14l5 16h239l-4 -16h-19q-28 0 -43.5 -14t-22.5 -47l-86 -391q-10 -47 -10 -79q-2 -110 103 -110q64 0 103.5 48.5t61.5 148.5l71 318q16 68 5.5 97t-54.5 29h-4l4 16h183l-3 -16h-6
q-41 0 -63.5 -28t-37.5 -97l-72 -321q-26 -115 -77.5 -174t-141.5 -59zM412 732l-100 55q-39 21 -41 50q-1 16 11 28.5t29 12.5q29 0 52 -40l55 -99z" />
    <glyph glyph-name="Uacute" unicode="&#xda;" horiz-adv-x="540" 
d="M208 -11q-85 0 -128 40.5t-43 114.5q0 39 10 82l84 381q7 33 -2 47t-38 14h-14l5 16h239l-4 -16h-19q-28 0 -43.5 -14t-22.5 -47l-86 -391q-10 -47 -10 -79q-2 -110 103 -110q64 0 103.5 48.5t61.5 148.5l71 318q16 68 5.5 97t-54.5 29h-4l4 16h183l-3 -16h-6
q-41 0 -63.5 -28t-37.5 -97l-72 -321q-26 -115 -77.5 -174t-141.5 -59zM448 782l-104 -52l-6 8l65 99q28 41 57 39q17 -1 28 -14t9 -28q-2 -29 -49 -52z" />
    <glyph glyph-name="Ucircumflex" unicode="&#xdb;" horiz-adv-x="540" 
d="M208 -11q-85 0 -128 40.5t-43 114.5q0 39 10 82l84 381q7 33 -2 47t-38 14h-14l5 16h239l-4 -16h-19q-28 0 -43.5 -14t-22.5 -47l-86 -391q-10 -47 -10 -79q-2 -110 103 -110q64 0 103.5 48.5t61.5 148.5l71 318q16 68 5.5 97t-54.5 29h-4l4 16h183l-3 -16h-6
q-41 0 -63.5 -28t-37.5 -97l-72 -321q-26 -115 -77.5 -174t-141.5 -59zM285 725l-9 8l106 143h54l34 -144l-11 -7l-69 78z" />
    <glyph glyph-name="Udieresis" unicode="&#xdc;" horiz-adv-x="540" 
d="M208 -11q-85 0 -128 40.5t-43 114.5q0 39 10 82l84 381q7 33 -2 47t-38 14h-14l5 16h239l-4 -16h-19q-28 0 -43.5 -14t-22.5 -47l-86 -391q-10 -47 -10 -79q-2 -110 103 -110q64 0 103.5 48.5t61.5 148.5l71 318q16 68 5.5 97t-54.5 29h-4l4 16h183l-3 -16h-6
q-41 0 -63.5 -28t-37.5 -97l-72 -321q-26 -115 -77.5 -174t-141.5 -59zM452 742q-20 0 -34 14.5t-14 34.5t14 34t34 14t34 -14t14 -34t-14 -34.5t-34 -14.5zM311 742q-20 0 -34 14.5t-14 34.5t14 34t34 14t34 -14t14 -34t-14 -34.5t-34 -14.5z" />
    <glyph glyph-name="Yacute" unicode="&#xdd;" horiz-adv-x="524" 
d="M66 0l5 16h26q29 0 44.5 16.5t23.5 53.5l47 210l-76 310q-7 31 -20 46.5t-39 15.5h-4l4 16h231l-4 -16h-20q-34 0 -40 -25q-4 -18 1 -36l63 -276l139 218q38 58 41 83q2 17 -8.5 26.5t-32.5 9.5h-12l4 16h162l-5 -16q-36 -6 -58 -29t-69 -95l-155 -237l-49 -221
q-8 -36 0.5 -53t36.5 -17h28l-4 -16h-260zM463 785l-104 -52l-6 8l65 99q28 41 57 39q17 -1 28 -14t9 -28q-2 -29 -49 -52z" />
    <glyph glyph-name="Thorn" unicode="&#xde;" horiz-adv-x="474" 
d="M-61 0l4 16h15q28 0 43 13.5t22 47.5l118 530q7 33 -2 47t-37 14h-14l4 16h236l-4 -16h-17q-28 0 -42.5 -14t-22.5 -47l-12 -52h55q85 0 132.5 -41t46.5 -114q-1 -101 -78 -165t-194 -64h-47l-21 -94q-8 -33 1 -47t38 -14h23l-3 -16h-244zM148 188h45q58 0 97.5 41.5
t54 95t14.5 112.5q0 102 -78 102h-8q-25 0 -39 -13t-21 -47z" />
    <glyph glyph-name="germandbls" unicode="&#xdf;" horiz-adv-x="421" 
d="M-96 -206q-28 0 -43 16.5t-15 38.5q0 25 12.5 39.5t29.5 14.5q37 0 37 -50q0 -6 -1.5 -13t-3 -11.5t-2.5 -8t0.5 -5.5t5.5 -2q24 0 54 139l94 454h-51l4 17h51l12 52q25 110 75 166.5t108 56.5q52 0 83.5 -29t29.5 -77q-1 -40 -20 -70t-54 -64q-10 -10 -39 -33t-41.5 -39
t-12.5 -35q0 -12 9 -24.5t19 -21t29 -22.5t26 -20q34 -28 53 -57.5t18 -71.5q-1 -68 -47 -106.5t-104 -38.5q-48 0 -72 26.5t-22 63.5q1 26 15 42.5t32 16.5q15 0 25.5 -11t9.5 -29q0 -31 -26 -43q-4 -2 -12 -4t-10.5 -4.5t-2.5 -8.5q1 -13 18.5 -23.5t42.5 -10.5
q40 0 64.5 25.5t24.5 64.5q0 28 -17.5 50.5t-51.5 48.5q-66 53 -61 117q2 26 16.5 50.5t40.5 57.5t41 58q27 48 30 126q4 82 -36 82q-29 0 -47.5 -43.5t-37.5 -129.5l-72 -330q-32 -149 -67.5 -237t-68 -119t-72.5 -31z" />
    <glyph glyph-name="agrave" unicode="&#xe0;" horiz-adv-x="412" 
d="M84 -6q-43 0 -71 38t-26 113q3 115 67 202t137 87q66 0 78 -102h3q45 50 74 106l21 -1q-3 -8 -40 -147.5t-41 -156.5q-12 -46 -12 -66q0 -26 16 -26q30 0 71 92l13 -8q-54 -129 -124 -129q-52 0 -54 60q0 26 5 48h-2q-46 -110 -115 -110zM109 26q29 0 58 46.5t50 116.5
q22 69 25 133q2 44 -9 67.5t-33 23.5q-36 0 -64 -59.5t-46 -143.5q-14 -65 -16 -114q-2 -70 35 -70zM252 480l-100 55q-39 21 -41 50q-1 16 11 28.5t29 12.5q29 0 52 -40l55 -99z" />
    <glyph glyph-name="aacute" unicode="&#xe1;" horiz-adv-x="412" 
d="M84 -6q-43 0 -71 38t-26 113q3 115 67 202t137 87q66 0 78 -102h3q45 50 74 106l21 -1q-3 -8 -40 -147.5t-41 -156.5q-12 -46 -12 -66q0 -26 16 -26q30 0 71 92l13 -8q-54 -129 -124 -129q-52 0 -54 60q0 26 5 48h-2q-46 -110 -115 -110zM109 26q29 0 58 46.5t50 116.5
q22 69 25 133q2 44 -9 67.5t-33 23.5q-36 0 -64 -59.5t-46 -143.5q-14 -65 -16 -114q-2 -70 35 -70zM309 532l-104 -52l-6 8l65 99q28 41 57 39q17 -1 28 -14t9 -28q-2 -29 -49 -52z" />
    <glyph glyph-name="acircumflex" unicode="&#xe2;" horiz-adv-x="412" 
d="M84 -6q-43 0 -71 38t-26 113q3 115 67 202t137 87q66 0 78 -102h3q45 50 74 106l21 -1q-3 -8 -40 -147.5t-41 -156.5q-12 -46 -12 -66q0 -26 16 -26q30 0 71 92l13 -8q-54 -129 -124 -129q-52 0 -54 60q0 26 5 48h-2q-46 -110 -115 -110zM109 26q29 0 58 46.5t50 116.5
q22 69 25 133q2 44 -9 67.5t-33 23.5q-36 0 -64 -59.5t-46 -143.5q-14 -65 -16 -114q-2 -70 35 -70zM126 469l-9 8l106 143h54l34 -144l-11 -7l-69 78z" />
    <glyph glyph-name="atilde" unicode="&#xe3;" horiz-adv-x="412" 
d="M84 -6q-43 0 -71 38t-26 113q3 115 67 202t137 87q66 0 78 -102h3q45 50 74 106l21 -1q-3 -8 -40 -147.5t-41 -156.5q-12 -46 -12 -66q0 -26 16 -26q30 0 71 92l13 -8q-54 -129 -124 -129q-52 0 -54 60q0 26 5 48h-2q-46 -110 -115 -110zM109 26q29 0 58 46.5t50 116.5
q22 69 25 133q2 44 -9 67.5t-33 23.5q-36 0 -64 -59.5t-46 -143.5q-14 -65 -16 -114q-2 -70 35 -70zM118 479l-10 3q18 50 35.5 71.5t44.5 21.5q14 0 51.5 -14t47.5 -14q22 0 40 35l9 -3q-18 -51 -36 -73t-44 -21q-15 1 -51.5 14.5t-45.5 13.5q-21 1 -41 -34z" />
    <glyph glyph-name="adieresis" unicode="&#xe4;" horiz-adv-x="412" 
d="M84 -6q-43 0 -71 38t-26 113q3 115 67 202t137 87q66 0 78 -102h3q45 50 74 106l21 -1q-3 -8 -40 -147.5t-41 -156.5q-12 -46 -12 -66q0 -26 16 -26q30 0 71 92l13 -8q-54 -129 -124 -129q-52 0 -54 60q0 26 5 48h-2q-46 -110 -115 -110zM109 26q29 0 58 46.5t50 116.5
q22 69 25 133q2 44 -9 67.5t-33 23.5q-36 0 -64 -59.5t-46 -143.5q-14 -65 -16 -114q-2 -70 35 -70zM291 487q-20 0 -34 14.5t-14 34.5t14 34t34 14t34 -14t14 -34t-14 -34.5t-34 -14.5zM150 487q-20 0 -34 14.5t-14 34.5t14 34t34 14t34 -14t14 -34t-14 -34.5t-34 -14.5z
" />
    <glyph glyph-name="aring" unicode="&#xe5;" horiz-adv-x="412" 
d="M84 -6q-43 0 -71 38t-26 113q3 115 67 202t137 87q66 0 78 -102h3q45 50 74 106l21 -1q-3 -8 -40 -147.5t-41 -156.5q-12 -46 -12 -66q0 -26 16 -26q30 0 71 92l13 -8q-54 -129 -124 -129q-52 0 -54 60q0 26 5 48h-2q-46 -110 -115 -110zM109 26q29 0 58 46.5t50 116.5
q22 69 25 133q2 44 -9 67.5t-33 23.5q-36 0 -64 -59.5t-46 -143.5q-14 -65 -16 -114q-2 -70 35 -70zM224 464q-38 0 -60.5 24.5t-22.5 58.5t24 59.5t59 25.5q36 0 59 -25t23 -60q0 -34 -23 -58.5t-59 -24.5zM224 485q24 0 38 17.5t14 44.5q0 29 -14.5 46.5t-37.5 17.5
t-37.5 -17.5t-14.5 -46.5q0 -27 14 -44.5t38 -17.5z" />
    <glyph glyph-name="ae" unicode="&#xe6;" horiz-adv-x="530" 
d="M56 -6q-35 0 -57 22.5t-21 63.5q2 71 58 110.5t181 70.5l5 20q34 141 -51 141q-28 0 -48.5 -11t-22.5 -23q-1 -8 10 -19q19 -16 19 -42q-1 -25 -14 -36.5t-29 -11.5q-17 0 -29 14t-11 38q2 45 37.5 75.5t91.5 30.5q44 0 73 -19.5t36 -55.5q61 76 143 76q38 0 62 -24.5
t22 -64.5q-5 -122 -223 -172q-4 -34 -4 -37q-6 -113 57 -113q61 0 120 96l13 -10q-73 -119 -164 -119q-50 0 -79.5 36.5t-30.5 96.5h-1q-50 -133 -143 -133zM95 32q30 0 60 39.5t47 115.5l13 58q-82 -18 -116 -55.5t-38 -92.5q-5 -65 34 -65zM291 194q145 38 150 166
q1 62 -31 62t-67.5 -67.5t-51.5 -160.5z" />
    <glyph glyph-name="ccedilla" unicode="&#xe7;" horiz-adv-x="317" 
d="M77 -199q-55 0 -85 40l11 12q25 -24 62 -24q23 0 37 13.5t15 35.5q1 19 -8.5 29t-24.5 10q-12 0 -20 -3l29 79q-48 5 -77 41.5t-29 98.5q0 120 69 212.5t156 92.5q48 0 68.5 -29.5t18.5 -75.5q-1 -29 -16 -45.5t-32 -16.5q-18 0 -30 13t-11 35t14 36t31 14q15 0 16 1
q2 2 2 7q0 17 -13 29t-35 12q-42 0 -77.5 -47t-53.5 -110.5t-18 -123.5q0 -109 63 -109q56 0 109 92l12 -9q-33 -62 -69 -90.5t-84 -28.5l-19 -53q15 3 23 3q31 0 50.5 -16.5t18.5 -44.5q-1 -38 -31 -59t-72 -21z" />
    <glyph glyph-name="egrave" unicode="&#xe8;" horiz-adv-x="323" 
d="M101 -8q-54 0 -86 44t-28 119q6 115 75 199t156 84q40 0 63 -24.5t21 -64.5q-5 -115 -222 -166q-3 -12 -5 -45q-5 -113 57 -113q63 0 121 96l12 -10q-72 -119 -164 -119zM82 200q76 20 111.5 58.5t38.5 101.5q3 62 -31 62q-32 0 -67.5 -65t-51.5 -157zM242 480l-100 55
q-39 21 -41 50q-1 16 11 28.5t29 12.5q29 0 52 -40l55 -99z" />
    <glyph glyph-name="eacute" unicode="&#xe9;" horiz-adv-x="323" 
d="M101 -8q-54 0 -86 44t-28 119q6 115 75 199t156 84q40 0 63 -24.5t21 -64.5q-5 -115 -222 -166q-3 -12 -5 -45q-5 -113 57 -113q63 0 121 96l12 -10q-72 -119 -164 -119zM82 200q76 20 111.5 58.5t38.5 101.5q3 62 -31 62q-32 0 -67.5 -65t-51.5 -157zM289 532l-104 -52
l-6 8l65 99q28 41 57 39q17 -1 28 -14t9 -28q-2 -29 -49 -52z" />
    <glyph glyph-name="ecircumflex" unicode="&#xea;" horiz-adv-x="323" 
d="M101 -8q-54 0 -86 44t-28 119q6 115 75 199t156 84q40 0 63 -24.5t21 -64.5q-5 -115 -222 -166q-3 -12 -5 -45q-5 -113 57 -113q63 0 121 96l12 -10q-72 -119 -164 -119zM82 200q76 20 111.5 58.5t38.5 101.5q3 62 -31 62q-32 0 -67.5 -65t-51.5 -157zM122 469l-9 8
l106 143h54l34 -144l-11 -7l-69 78z" />
    <glyph glyph-name="edieresis" unicode="&#xeb;" horiz-adv-x="323" 
d="M101 -8q-54 0 -86 44t-28 119q6 115 75 199t156 84q40 0 63 -24.5t21 -64.5q-5 -115 -222 -166q-3 -12 -5 -45q-5 -113 57 -113q63 0 121 96l12 -10q-72 -119 -164 -119zM82 200q76 20 111.5 58.5t38.5 101.5q3 62 -31 62q-32 0 -67.5 -65t-51.5 -157zM286 487
q-20 0 -34 14.5t-14 34.5t14 34t34 14t34 -14t14 -34t-14 -34.5t-34 -14.5zM145 487q-20 0 -34 14.5t-14 34.5t14 34t34 14t34 -14t14 -34t-14 -34.5t-34 -14.5z" />
    <glyph glyph-name="igrave" unicode="&#xec;" horiz-adv-x="232" 
d="M59 -6q-30 0 -45 19t-15 46q0 31 11 70l59 221q6 21 6 34q1 13 -7.5 18.5t-27.5 5.5h-28l4 14l153 10q0 -46 -23 -128l-47 -173q-13 -49 -13 -65q0 -27 18 -27q31 0 72 93l13 -8q-53 -130 -130 -130zM156 480l-100 55q-39 21 -41 50q-1 16 11 28.5t29 12.5q29 0 52 -40
l55 -99z" />
    <glyph glyph-name="iacute" unicode="&#xed;" horiz-adv-x="232" 
d="M59 -6q-30 0 -45 19t-15 46q0 31 11 70l59 221q6 21 6 34q1 13 -7.5 18.5t-27.5 5.5h-28l4 14l153 10q0 -46 -23 -128l-47 -173q-13 -49 -13 -65q0 -27 18 -27q31 0 72 93l13 -8q-53 -130 -130 -130zM187 532l-104 -52l-6 8l65 99q28 41 57 39q17 -1 28 -14t9 -28
q-2 -29 -49 -52z" />
    <glyph glyph-name="icircumflex" unicode="&#xee;" horiz-adv-x="232" 
d="M59 -6q-30 0 -45 19t-15 46q0 31 11 70l59 221q6 21 6 34q1 13 -7.5 18.5t-27.5 5.5h-28l4 14l153 10q0 -46 -23 -128l-47 -173q-13 -49 -13 -65q0 -27 18 -27q31 0 72 93l13 -8q-53 -130 -130 -130zM32 469l-9 8l106 143h54l34 -144l-11 -7l-69 78z" />
    <glyph glyph-name="idieresis" unicode="&#xef;" horiz-adv-x="232" 
d="M59 -6q-30 0 -45 19t-15 46q0 31 11 70l59 221q6 21 6 34q1 13 -7.5 18.5t-27.5 5.5h-28l4 14l153 10q0 -46 -23 -128l-47 -173q-13 -49 -13 -65q0 -27 18 -27q31 0 72 93l13 -8q-53 -130 -130 -130zM198 487q-20 0 -34 14.5t-14 34.5t14 34t34 14t34 -14t14 -34
t-14 -34.5t-34 -14.5zM57 487q-20 0 -34 14.5t-14 34.5t14 34t34 14t34 -14t14 -34t-14 -34.5t-34 -14.5z" />
    <glyph glyph-name="eth" unicode="&#xf0;" horiz-adv-x="372" 
d="M113 -8q-57 0 -92 46.5t-34 126.5q2 112 68.5 192.5t146.5 80.5q36 0 55 -21q5 85 -13 154l-77 -52l-10 18l82 54q-19 58 -46 94l12 14q48 -42 73 -82l81 54l10 -18l-81 -52q54 -97 53 -229q-2 -172 -73 -276t-155 -104zM111 8q49 0 88.5 117.5t42.5 218.5q1 79 -37 79
q-34 0 -66.5 -64t-50 -142.5t-18.5 -133.5q-2 -75 41 -75z" />
    <glyph glyph-name="ntilde" unicode="&#xf1;" horiz-adv-x="410" 
d="M247 -6q-63 0 -63 69q0 28 13 71l40 123q25 72 26 104q0 28 -21 28q-32 0 -78 -80.5t-65 -157.5l-38 -151h-89l93 348q5 22 5 34q0 26 -37 26h-25l4 14l147 9q0 -48 -24 -128l-11 -36l3 -1q73 166 154 166q32 0 49.5 -21.5t17.5 -58.5q0 -30 -22 -96l-41 -123
q-16 -51 -16 -71q0 -25 17 -25q32 0 73 93l12 -8q-53 -128 -124 -128zM142 479l-10 3q18 50 35.5 71.5t44.5 21.5q14 0 51.5 -14t47.5 -14q22 0 40 35l9 -3q-18 -51 -36 -73t-44 -21q-15 1 -51.5 14.5t-45.5 13.5q-21 1 -41 -34z" />
    <glyph glyph-name="ograve" unicode="&#xf2;" horiz-adv-x="372" 
d="M113 -8q-57 0 -92 46.5t-34 126.5q2 112 68.5 192.5t146.5 80.5q55 0 90.5 -46t34.5 -124q-1 -112 -68 -194t-146 -82zM111 8q49 0 88.5 117.5t42.5 218.5q1 79 -37 79q-34 0 -66.5 -64t-50 -142.5t-18.5 -133.5q-2 -75 41 -75zM252 480l-100 55q-39 21 -41 50
q-1 16 11 28.5t29 12.5q29 0 52 -40l55 -99z" />
    <glyph glyph-name="oacute" unicode="&#xf3;" horiz-adv-x="372" 
d="M113 -8q-57 0 -92 46.5t-34 126.5q2 112 68.5 192.5t146.5 80.5q55 0 90.5 -46t34.5 -124q-1 -112 -68 -194t-146 -82zM111 8q49 0 88.5 117.5t42.5 218.5q1 79 -37 79q-34 0 -66.5 -64t-50 -142.5t-18.5 -133.5q-2 -75 41 -75zM294 532l-104 -52l-6 8l65 99q28 41 57 39
q17 -1 28 -14t9 -28q-2 -29 -49 -52z" />
    <glyph glyph-name="ocircumflex" unicode="&#xf4;" horiz-adv-x="372" 
d="M113 -8q-57 0 -92 46.5t-34 126.5q2 112 68.5 192.5t146.5 80.5q55 0 90.5 -46t34.5 -124q-1 -112 -68 -194t-146 -82zM111 8q49 0 88.5 117.5t42.5 218.5q1 79 -37 79q-34 0 -66.5 -64t-50 -142.5t-18.5 -133.5q-2 -75 41 -75zM126 469l-9 8l106 143h54l34 -144l-11 -7
l-69 78z" />
    <glyph glyph-name="otilde" unicode="&#xf5;" horiz-adv-x="372" 
d="M113 -8q-57 0 -92 46.5t-34 126.5q2 112 68.5 192.5t146.5 80.5q55 0 90.5 -46t34.5 -124q-1 -112 -68 -194t-146 -82zM111 8q49 0 88.5 117.5t42.5 218.5q1 79 -37 79q-34 0 -66.5 -64t-50 -142.5t-18.5 -133.5q-2 -75 41 -75zM118 479l-10 3q18 50 35.5 71.5t44.5 21.5
q14 0 51.5 -14t47.5 -14q22 0 40 35l9 -3q-18 -51 -36 -73t-44 -21q-15 1 -51.5 14.5t-45.5 13.5q-21 1 -41 -34z" />
    <glyph glyph-name="odieresis" unicode="&#xf6;" horiz-adv-x="372" 
d="M113 -8q-57 0 -92 46.5t-34 126.5q2 112 68.5 192.5t146.5 80.5q55 0 90.5 -46t34.5 -124q-1 -112 -68 -194t-146 -82zM111 8q49 0 88.5 117.5t42.5 218.5q1 79 -37 79q-34 0 -66.5 -64t-50 -142.5t-18.5 -133.5q-2 -75 41 -75zM291 487q-20 0 -34 14.5t-14 34.5t14 34
t34 14t34 -14t14 -34t-14 -34.5t-34 -14.5zM150 487q-20 0 -34 14.5t-14 34.5t14 34t34 14t34 -14t14 -34t-14 -34.5t-34 -14.5z" />
    <glyph glyph-name="divide" unicode="&#xf7;" horiz-adv-x="415" 
d="M163 194q0 19 13.5 33t31.5 14q19 0 32.5 -14t13.5 -33q0 -20 -13.5 -34t-32.5 -14q-18 0 -31.5 14.5t-13.5 33.5zM44 313v34h326v-34h-326zM163 466q0 20 13.5 34t32.5 14q18 0 31.5 -14.5t13.5 -33.5t-13.5 -33t-31.5 -14q-19 0 -32.5 14t-13.5 33z" />
    <glyph glyph-name="oslash" unicode="&#xf8;" horiz-adv-x="372" 
d="M-44 -53l65 93q-34 47 -34 125q0 112 67.5 192.5t147.5 80.5q48 0 79 -33l55 78h18q-57 -84 -63 -90q37 -47 36 -125q-1 -112 -68 -194t-146 -82q-48 0 -82 36l-56 -81h-19zM111 8q44 0 81.5 95t47.5 199q2 16 2 23l-172 -246q4 -71 41 -71zM72 108l170 244q-4 71 -37 71
q-44 0 -81 -90t-49 -192z" />
    <glyph glyph-name="ugrave" unicode="&#xf9;" horiz-adv-x="417" 
d="M59 -6q-32 0 -48.5 21t-16.5 58q0 29 20 97l53 174q7 22 7 38q1 13 -8 19.5t-28 6.5h-29l5 14l154 9q1 -46 -23 -126l-44 -136q-24 -86 -24 -103q0 -28 20 -28q32 0 77.5 74.5t67.5 161.5l36 147h89l-76 -282q-14 -51 -14 -71q0 -27 17 -27q29 0 71 90l13 -7
q-55 -128 -126 -128q-28 0 -42 18.5t-14 46.5q0 25 10 60l10 35l-3 1q-73 -163 -154 -163zM256 480l-100 55q-39 21 -41 50q-1 16 11 28.5t29 12.5q29 0 52 -40l55 -99z" />
    <glyph glyph-name="uacute" unicode="&#xfa;" horiz-adv-x="417" 
d="M59 -6q-32 0 -48.5 21t-16.5 58q0 29 20 97l53 174q7 22 7 38q1 13 -8 19.5t-28 6.5h-29l5 14l154 9q1 -46 -23 -126l-44 -136q-24 -86 -24 -103q0 -28 20 -28q32 0 77.5 74.5t67.5 161.5l36 147h89l-76 -282q-14 -51 -14 -71q0 -27 17 -27q29 0 71 90l13 -7
q-55 -128 -126 -128q-28 0 -42 18.5t-14 46.5q0 25 10 60l10 35l-3 1q-73 -163 -154 -163zM318 532l-104 -52l-6 8l65 99q28 41 57 39q17 -1 28 -14t9 -28q-2 -29 -49 -52z" />
    <glyph glyph-name="ucircumflex" unicode="&#xfb;" horiz-adv-x="417" 
d="M59 -6q-32 0 -48.5 21t-16.5 58q0 29 20 97l53 174q7 22 7 38q1 13 -8 19.5t-28 6.5h-29l5 14l154 9q1 -46 -23 -126l-44 -136q-24 -86 -24 -103q0 -28 20 -28q32 0 77.5 74.5t67.5 161.5l36 147h89l-76 -282q-14 -51 -14 -71q0 -27 17 -27q29 0 71 90l13 -7
q-55 -128 -126 -128q-28 0 -42 18.5t-14 46.5q0 25 10 60l10 35l-3 1q-73 -163 -154 -163zM146 469l-9 8l106 143h54l34 -144l-11 -7l-69 78z" />
    <glyph glyph-name="udieresis" unicode="&#xfc;" horiz-adv-x="417" 
d="M59 -6q-32 0 -48.5 21t-16.5 58q0 29 20 97l53 174q7 22 7 38q1 13 -8 19.5t-28 6.5h-29l5 14l154 9q1 -46 -23 -126l-44 -136q-24 -86 -24 -103q0 -28 20 -28q32 0 77.5 74.5t67.5 161.5l36 147h89l-76 -282q-14 -51 -14 -71q0 -27 17 -27q29 0 71 90l13 -7
q-55 -128 -126 -128q-28 0 -42 18.5t-14 46.5q0 25 10 60l10 35l-3 1q-73 -163 -154 -163zM311 487q-20 0 -34 14.5t-14 34.5t14 34t34 14t34 -14t14 -34t-14 -34.5t-34 -14.5zM170 487q-20 0 -34 14.5t-14 34.5t14 34t34 14t34 -14t14 -34t-14 -34.5t-34 -14.5z" />
    <glyph glyph-name="yacute" unicode="&#xfd;" horiz-adv-x="350" 
d="M-12 -206q-26 0 -43 18t-17 44q-1 25 12 41.5t30 16.5q16 0 26.5 -12t9.5 -32q-1 -12 -7.5 -25t-6.5 -16q0 -12 11 -12q26 0 61.5 46.5t64.5 104.5q-8 104 -40 293q-12 69 -19.5 93t-18.5 24q-21 0 -62 -81l-12 8q28 64 55 94.5t65 30.5q32 0 50.5 -37.5t34.5 -148.5
q11 -74 15 -147q79 153 80 212q0 15 -13 40.5t-14 43.5q-1 19 8.5 31t26.5 12q35 0 35 -58q-1 -39 -36.5 -130.5t-95.5 -205.5q-75 -144 -116 -196t-84 -52zM292 532l-104 -52l-6 8l65 99q28 41 57 39q17 -1 28 -14t9 -28q-2 -29 -49 -52z" />
    <glyph glyph-name="thorn" unicode="&#xfe;" horiz-adv-x="396" 
d="M146 20q27 0 54.5 49t44.5 121.5t18 142.5q1 67 -30 67q-34 0 -72.5 -67.5t-52.5 -152.5q-13 -66 -3.5 -113t41.5 -47zM-126 -204l3 16h10q26 0 38.5 16t22.5 57l177 725q5 18 5 36q0 24 -35 24h-24l4 14l157 17q-91 -366 -94 -377l2 -1q51 110 121 110q36 0 63 -35.5
t26 -103.5q-2 -125 -62 -212.5t-128 -87.5q-72 0 -75 99h-2q-19 -89 -22 -102l-25 -108q-10 -39 -5 -55t32 -16h22l-4 -16h-207z" />
    <glyph glyph-name="ydieresis" unicode="&#xff;" horiz-adv-x="350" 
d="M-12 -206q-26 0 -43 18t-17 44q-1 25 12 41.5t30 16.5q16 0 26.5 -12t9.5 -32q-1 -12 -7.5 -25t-6.5 -16q0 -12 11 -12q26 0 61.5 46.5t64.5 104.5q-8 104 -40 293q-12 69 -19.5 93t-18.5 24q-21 0 -62 -81l-12 8q28 64 55 94.5t65 30.5q32 0 50.5 -37.5t34.5 -148.5
q11 -74 15 -147q79 153 80 212q0 15 -13 40.5t-14 43.5q-1 19 8.5 31t26.5 12q35 0 35 -58q-1 -39 -36.5 -130.5t-95.5 -205.5q-75 -144 -116 -196t-84 -52zM273 487q-20 0 -34 14.5t-14 34.5t14 34t34 14t34 -14t14 -34t-14 -34.5t-34 -14.5zM132 487q-20 0 -34 14.5
t-14 34.5t14 34t34 14t34 -14t14 -34t-14 -34.5t-34 -14.5z" />
    <glyph glyph-name="dotlessi" unicode="&#x131;" horiz-adv-x="232" 
d="M59 -6q-30 0 -45 19t-15 46q0 31 11 70l59 221q6 21 6 34q1 13 -7.5 18.5t-27.5 5.5h-28l4 14l153 10q0 -46 -23 -128l-47 -173q-13 -49 -13 -65q0 -27 18 -27q31 0 72 93l13 -8q-53 -130 -130 -130z" />
    <glyph glyph-name="Lslash" unicode="&#x141;" horiz-adv-x="450" 
d="M-61 0l4 16h15q28 0 42.5 14t22.5 47l43 195l-59 -31l5 26l61 32l68 308q7 32 -1.5 46.5t-37.5 14.5h-15l3 16h247l-4 -16h-23q-30 0 -45 -14t-23 -47l-59 -264l124 66l-4 -26l-126 -67l-53 -239q-13 -60 36 -60h24q79 0 126.5 63.5t91.5 198.5h17l-76 -279h-404z" />
    <glyph glyph-name="lslash" unicode="&#x142;" horiz-adv-x="228" 
d="M53 -6q-57 0 -59 62q0 30 11 72l38 149l-52 -30l5 24l53 30l79 310q6 30 6 36q0 14 -7.5 18.5t-26.5 4.5h-25l4 15l159 16l-91 -356l62 34l-5 -23l-63 -35l-47 -187q-13 -54 -13 -68q-2 -29 17 -29q28 0 72 93l12 -7q-27 -62 -57 -95.5t-72 -33.5z" />
    <glyph glyph-name="OE" unicode="&#x152;" horiz-adv-x="748" 
d="M633 0h-419q-87 0 -142.5 65t-53.5 187q3 192 107.5 312t236.5 120h406l-48 -252h-17q16 121 -3.5 178t-97.5 57h-27q-28 0 -43.5 -13.5t-22.5 -46.5l-54 -243h19q57 0 85 35t46 110h17l-72 -317h-16q17 73 3 113.5t-66 40.5h-20l-60 -269q-7 -33 2 -46.5t37 -13.5h36
q76 0 126 66.5t91 189.5h17zM215 17h10q28 0 43.5 14.5t22.5 46.5l117 527q8 34 0 48t-34 14h-15q-89 0 -162 -138t-78 -338q-2 -83 25.5 -128.5t70.5 -45.5z" />
    <glyph glyph-name="oe" unicode="&#x153;" horiz-adv-x="554" 
d="M113 -8q-57 0 -92 46.5t-34 125.5q2 114 68.5 194t146.5 80q71 0 105 -74q66 74 143 74q39 0 62 -24.5t22 -64.5q-5 -116 -223 -166q0 -3 -1.5 -12t-2.5 -17.5t-1 -14.5q-6 -114 58 -114q62 0 121 96l12 -10q-73 -119 -164 -119q-67 0 -96 62q-60 -62 -124 -62zM111 8
q49 0 88.5 117.5t42.5 218.5q1 79 -37 79q-34 0 -66.5 -64t-50 -142.5t-18.5 -133.5q-2 -75 41 -75zM314 194q145 38 150 165q3 63 -32 63q-32 0 -67 -68t-51 -160z" />
    <glyph glyph-name="Scaron" unicode="&#x160;" horiz-adv-x="429" 
d="M-35 -10l52 267h15q-8 -125 31.5 -188t110.5 -63q59 0 95 40t36 101q0 81 -107 145q-64 38 -96.5 84.5t-31.5 109.5q1 87 51 147.5t138 60.5q60 0 104 -42q17 -17 29 -17q21 0 46 58h13l-53 -265h-15q6 128 -27 188.5t-97 60.5q-56 0 -86.5 -39t-31.5 -95q0 -41 23.5 -74
t77.5 -65q132 -79 132 -193q0 -92 -54.5 -157t-147.5 -65q-58 0 -117 45q-21 16 -31 16q-22 0 -46 -60h-13zM256 729l-34 145l11 7l69 -79l106 78l8 -8l-105 -143h-55z" />
    <glyph glyph-name="scaron" unicode="&#x161;" horiz-adv-x="307" 
d="M90 -8q-54 0 -87.5 31.5t-32.5 72.5q1 26 14.5 40.5t28.5 14.5t26.5 -11.5t10.5 -32.5q-1 -22 -17.5 -36t-16.5 -20q-2 -16 20 -30t56 -14q35 0 58.5 19.5t27.5 52.5t-13.5 56t-58.5 49q-42 28 -61 54t-16 70q3 57 43.5 93.5t97.5 36.5q50 -1 81 -27.5t30 -59.5
q-2 -23 -13.5 -37.5t-28.5 -14.5q-16 0 -26.5 11t-9.5 30q1 17 12.5 32.5t11.5 20.5q0 12 -17 20t-42 8q-31 1 -53 -17.5t-25 -49.5q-2 -28 13 -47.5t54 -44.5q48 -30 67.5 -60.5t15.5 -78.5q-6 -62 -49.5 -96.5t-100.5 -34.5zM149 473l-34 145l11 7l69 -79l106 78l8 -8
l-105 -143h-55z" />
    <glyph glyph-name="Ydieresis" unicode="&#x178;" horiz-adv-x="524" 
d="M66 0l5 16h26q29 0 44.5 16.5t23.5 53.5l47 210l-76 310q-7 31 -20 46.5t-39 15.5h-4l4 16h231l-4 -16h-20q-34 0 -40 -25q-4 -18 1 -36l63 -276l139 218q38 58 41 83q2 17 -8.5 26.5t-32.5 9.5h-12l4 16h162l-5 -16q-36 -6 -58 -29t-69 -95l-155 -237l-49 -221
q-8 -36 0.5 -53t36.5 -17h28l-4 -16h-260zM441 738q-20 0 -34 14.5t-14 34.5t14 34t34 14t34 -14t14 -34t-14 -34.5t-34 -14.5zM300 738q-20 0 -34 14.5t-14 34.5t14 34t34 14t34 -14t14 -34t-14 -34.5t-34 -14.5z" />
    <glyph glyph-name="Zcaron" unicode="&#x17d;" horiz-adv-x="471" 
d="M-54 0l4 21l450 647h-115q-83 0 -125.5 -54t-81.5 -184h-17l61 254h389l-4 -21l-452 -647h141q82 0 125 60.5t87 199.5h17l-70 -276h-409zM283 730l-34 145l11 7l69 -79l106 78l8 -8l-105 -143h-55z" />
    <glyph glyph-name="zcaron" unicode="&#x17e;" horiz-adv-x="347" 
d="M-14 -6q-24 0 -21 33q4 56 126 164q33 29 78.5 63.5t68 56t37.5 51.5l-3 2q-35 -46 -81 -46q-20 0 -48.5 14t-47.5 14q-23 0 -43.5 -21t-33.5 -62h-11q13 68 42.5 118.5t77.5 50.5q31 0 65 -28.5t60 -28.5q23 0 32 32q7 24 23 24q19 0 17 -28q-3 -32 -45 -79t-105 -95
q-7 -5 -25.5 -19.5t-26.5 -21l-24 -19.5t-24.5 -21.5t-19.5 -20t-18.5 -22t-12.5 -20.5l2 -1q29 29 65 29q22 0 53.5 -15.5t52.5 -15.5q66 0 86 94h11q-9 -75 -42.5 -128.5t-85.5 -53.5q-27 0 -52 17t-44.5 34t-33.5 17q-10 0 -16 -10t-6 -23q-1 -14 -8.5 -24.5t-18.5 -10.5
zM168 473l-34 145l11 7l69 -79l106 78l8 -8l-105 -143h-55z" />
    <glyph glyph-name="florin" unicode="&#x192;" horiz-adv-x="340" 
d="M-87 -205q-28 0 -45 16t-17 42t15 42.5t37 16.5q37 0 37 -41q0 -16 -12.5 -30t-12.5 -18q0 -12 12 -12q25 0 42 41t45 151q22 87 66 272q3 10 8.5 32.5t10 41t8.5 31.5h-67l4 20h68q81 260 212 260q39 0 57.5 -23.5t16.5 -56.5q-1 -25 -15.5 -42.5t-34.5 -17.5
q-18 0 -29.5 11.5t-11.5 31.5q0 18 9.5 31.5t24.5 18.5q3 1 6.5 2t5.5 1t4 1t3 2.5t1 3.5q0 9 -8.5 15.5t-22.5 6.5q-35 0 -62 -53t-63 -192h98l-5 -20h-97l-30 -120q-43 -178 -90 -285t-86 -143.5t-82 -36.5z" />
    <glyph glyph-name="circumflex" unicode="&#x2c6;" 
d="M146 469l-9 8l106 143h54l34 -144l-11 -7l-69 78z" />
    <glyph glyph-name="caron" unicode="&#x2c7;" 
d="M211 473l-34 145l11 7l69 -79l106 78l8 -8l-105 -143h-55z" />
    <glyph glyph-name="breve" unicode="&#x2d8;" 
d="M244 480q-42 0 -60 38.5t-9 98.5l13 3q5 -70 67 -70q59 0 94 70l12 -3q-33 -137 -117 -137z" />
    <glyph glyph-name="dotaccent" unicode="&#x2d9;" 
d="M205 533q0 22 15 37.5t36 15.5q20 0 35 -15.5t15 -37.5q0 -21 -15 -36.5t-35 -15.5q-21 0 -36 15.5t-15 36.5z" />
    <glyph glyph-name="ring" unicode="&#x2da;" 
d="M250 477q-38 0 -60.5 24.5t-22.5 58.5t24 59.5t59 25.5q36 0 59 -25t23 -60q0 -34 -23 -58.5t-59 -24.5zM250 498q24 0 38 17.5t14 44.5q0 29 -14.5 46.5t-37.5 17.5t-37.5 -17.5t-14.5 -46.5q0 -27 14 -44.5t38 -17.5z" />
    <glyph glyph-name="ogonek" unicode="&#x2db;" 
d="M90 -207q-29 0 -48.5 17t-18.5 45q1 83 148 145h12q-86 -55 -86 -128q0 -41 36 -41q24 0 49 18l6 -11q-48 -45 -98 -45z" />
    <glyph glyph-name="tilde" unicode="&#x2dc;" 
d="M142 479l-10 3q18 50 35.5 71.5t44.5 21.5q14 0 51.5 -14t47.5 -14q22 0 40 35l9 -3q-18 -51 -36 -73t-44 -21q-15 1 -51.5 14.5t-45.5 13.5q-21 1 -41 -34z" />
    <glyph glyph-name="hungarumlaut" unicode="&#x2dd;" 
d="M284 531l-105 -58l-6 7l66 101q25 37 49 37q14 -1 23.5 -10.5t10.5 -23.5q0 -31 -38 -53zM408 531l-107 -58l-5 7l67 102q24 36 49 35q15 -1 24.5 -11t10.5 -24q0 -30 -39 -51z" />
    <glyph glyph-name="Delta" unicode="&#x394;" horiz-adv-x="411" 
d="M191 -16l80 364q6 28 6 34q1 13 -7.5 18.5t-27.5 5.5h-81l-49 -225q-32 -149 -67 -237t-68 -119t-73 -31q-27 0 -42 16.5t-15 38.5q0 24 12.5 38.5t28.5 14.5q37 0 37 -49q0 -6 -1.5 -13t-2.5 -11.5t-2 -8.5t0 -5.5t5 -1.5q11 0 26.5 39.5t27.5 99.5l93 454h-51l5 17h50
l8 38q26 117 84.5 176.5t124.5 59.5q39 0 62.5 -21t23.5 -52q0 -24 -12.5 -41.5t-32.5 -17.5q-15 0 -26 11t-11 32q0 17 10 33t10 19q0 17 -23 17q-74 0 -110 -169l-18 -85h63l143 9q0 -45 -22 -128l-24 -91q-32 -149 -67 -237t-68 -119t-73 -31q-27 0 -42 16.5t-15 38.5
q0 24 12.5 38.5t28.5 14.5q37 0 37 -49q0 -6 -1.5 -13t-2.5 -11.5t-2 -8.5t0 -5.5t5 -1.5q11 0 26.5 39.5t27.5 99.5z" />
    <glyph glyph-name="Delta" unicode="&#x2206;" horiz-adv-x="411" 
d="M191 -16l80 364q6 28 6 34q1 13 -7.5 18.5t-27.5 5.5h-81l-49 -225q-32 -149 -67 -237t-68 -119t-73 -31q-27 0 -42 16.5t-15 38.5q0 24 12.5 38.5t28.5 14.5q37 0 37 -49q0 -6 -1.5 -13t-2.5 -11.5t-2 -8.5t0 -5.5t5 -1.5q11 0 26.5 39.5t27.5 99.5l93 454h-51l5 17h50
l8 38q26 117 84.5 176.5t124.5 59.5q39 0 62.5 -21t23.5 -52q0 -24 -12.5 -41.5t-32.5 -17.5q-15 0 -26 11t-11 32q0 17 10 33t10 19q0 17 -23 17q-74 0 -110 -169l-18 -85h63l143 9q0 -45 -22 -128l-24 -91q-32 -149 -67 -237t-68 -119t-73 -31q-27 0 -42 16.5t-15 38.5
q0 24 12.5 38.5t28.5 14.5q37 0 37 -49q0 -6 -1.5 -13t-2.5 -11.5t-2 -8.5t0 -5.5t5 -1.5q11 0 26.5 39.5t27.5 99.5z" />
    <glyph glyph-name="Omega" unicode="&#x3a9;" horiz-adv-x="404" 
d="M25 308l6 32h336l-6 -32h-336z" />
    <glyph glyph-name="Omega" unicode="&#x2126;" horiz-adv-x="404" 
d="M25 308l6 32h336l-6 -32h-336z" />
    <glyph glyph-name="pi" unicode="&#x3c0;" horiz-adv-x="732" 
d="M365 -16q-135 0 -227 103.5t-92 254.5t92 254.5t227 103.5q136 0 228.5 -103t92.5 -255q0 -151 -92.5 -254.5t-228.5 -103.5zM365 0q130 0 216 98.5t86 243.5t-86 243.5t-216 98.5q-129 0 -214.5 -98.5t-85.5 -243.5t85.5 -243.5t214.5 -98.5zM218 144v15h13q18 0 26 7
t8 24v311q0 32 -34 32h-15v15h160q75 0 117 -28t42 -82q0 -58 -45 -88.5t-115 -30.5h-32v-129q0 -18 7.5 -24.5t25.5 -6.5h24v-15h-182zM343 334h32q73 0 73 101q0 98 -70 98h-5q-17 0 -23.5 -6t-6.5 -24v-169z" />
    <glyph glyph-name="endash" unicode="&#x2013;" horiz-adv-x="347" 
d="M-13 213l7 34h309l-7 -34h-309z" />
    <glyph glyph-name="emdash" unicode="&#x2014;" horiz-adv-x="694" 
d="M-13 213l7 34h656l-7 -34h-656z" />
    <glyph glyph-name="quoteleft" unicode="&#x2018;" horiz-adv-x="197" 
d="M135 441q-25 0 -41 18.5t-17 50.5q-2 108 141 189l8 -15q-47 -27 -84.5 -67t-37.5 -67q0 -7 3 -8t12 1.5t16 2.5q24 0 38.5 -14.5t14.5 -36.5q0 -24 -14.5 -39t-38.5 -15z" />
    <glyph glyph-name="quoteright" unicode="&#x2019;" horiz-adv-x="197" 
d="M80 437l-9 13q48 26 85.5 66.5t36.5 68.5q0 7 -3 8t-12 -1.5t-16 -2.5q-23 0 -38 14.5t-15 36.5q0 24 15 39t39 15t40 -18.5t17 -50.5q1 -53 -35.5 -101t-104.5 -87z" />
    <glyph glyph-name="quotesinglbase" unicode="&#x201a;" horiz-adv-x="205" 
d="M-51 -156l-9 14q48 26 85 66t36 68q0 7 -2.5 8t-11.5 -1.5t-16 -2.5q-24 0 -39 14.5t-15 36.5q0 24 15 39.5t39 15.5q25 0 41.5 -19t16.5 -51q2 -105 -140 -188z" />
    <glyph glyph-name="quotedblleft" unicode="&#x201c;" horiz-adv-x="342" 
d="M132 441q-25 0 -41 18.5t-17 50.5q-2 107 141 189l8 -15q-47 -27 -84.5 -67t-37.5 -67q0 -7 3 -8t12 1.5t16 2.5q23 0 38 -14.5t15 -36.5q0 -24 -14.5 -39t-38.5 -15zM279 441q-25 0 -41 18.5t-16 50.5q-2 107 140 189l8 -15q-47 -27 -84.5 -67t-36.5 -67q0 -7 3 -8
t11.5 1.5t15.5 2.5q24 0 39 -14.5t15 -36.5q0 -23 -15 -38.5t-39 -15.5z" />
    <glyph glyph-name="quotedblright" unicode="&#x201d;" horiz-adv-x="342" 
d="M80 436l-9 14q47 26 85 66.5t37 67.5q0 7 -3 8t-12 -1.5t-16 -2.5q-23 0 -38 15t-15 36q0 24 15 39.5t39 15.5t40 -18.5t17 -51.5q1 -53 -35.5 -101t-104.5 -87zM228 436l-9 14q47 27 84.5 67t36.5 67q0 7 -2.5 8t-11.5 -1.5t-16 -2.5q-24 0 -39 15t-15 36q0 24 15 39.5
t39 15.5q25 0 41 -18.5t17 -51.5q1 -53 -35.5 -101t-104.5 -87z" />
    <glyph glyph-name="quotedblbase" unicode="&#x201e;" horiz-adv-x="355" 
d="M-52 -156l-9 14q48 27 85.5 66.5t36.5 67.5q0 7 -3 8t-12 -1.5t-16 -2.5q-24 0 -38.5 14.5t-14.5 36.5q0 24 14.5 39.5t38.5 15.5q25 0 41.5 -19t16.5 -51q2 -106 -140 -188zM95 -156l-8 14q47 27 84.5 67t36.5 67q0 7 -2.5 8t-11.5 -1.5t-16 -2.5q-24 0 -39 14.5
t-15 36.5q0 24 15 39.5t39 15.5q25 0 41.5 -19t16.5 -51q1 -52 -36 -100.5t-105 -87.5z" />
    <glyph glyph-name="dagger" unicode="&#x2020;" horiz-adv-x="330" 
d="M70 -11q20 83 29 153t7.5 109t-1.5 81q63 67 84 149q-31 -3 -60 -26q-25 -20 -48 -20q-18 0 -28 14t-8 37q3 25 18 39t35 14q24 0 43 -21q20 -22 52 -24q7 41 -2 83q-8 47 -5 63q9 54 55 54q17 0 30 -12.5t10 -37.5q-1 -7 -3 -13.5t-6 -14t-6.5 -11.5t-9.5 -13.5
t-9 -12.5q-33 -44 -43 -85q32 3 60 24q29 21 47 21q19 0 29.5 -14.5t7.5 -36.5q-3 -25 -18 -39.5t-35 -14.5q-22 0 -43 21q-26 24 -52 26q-17 -80 13 -149q-26 -51 -41.5 -83.5t-41.5 -104.5t-46 -155h-14z" />
    <glyph glyph-name="daggerdbl" unicode="&#x2021;" horiz-adv-x="330" 
d="M82 -10q-18 0 -30.5 12.5t-9.5 37.5q2 20 34 65q34 49 43 86q-27 -2 -58 -25q-28 -21 -48 -21q-19 0 -28.5 14.5t-7.5 37.5q3 24 18 38.5t35 14.5q19 0 42 -21q27 -23 51 -25q10 31 6.5 61t-8 43.5t-14.5 33.5q21 22 32 34.5t27 41t25 62.5q-34 -3 -60 -25
q-26 -20 -49 -20q-18 0 -28.5 13.5t-8.5 37.5q3 25 18.5 39t35.5 14q19 0 42 -21q24 -22 53 -24q7 39 -2 84q-8 46 -5 63q9 53 55 53q18 0 30.5 -12.5t9.5 -37.5q-1 -9 -5 -18t-6.5 -13.5t-11.5 -17.5t-11 -16q-32 -44 -43 -85q31 3 60 24t48 21q18 0 28 -14.5t8 -36.5
q-3 -25 -18 -39.5t-35 -14.5t-43 21q-25 23 -51 25q-10 -32 -7.5 -61.5t7 -43t14.5 -33.5q-21 -22 -31.5 -34.5t-26.5 -41t-25 -62.5q37 3 62 25q26 20 49 20q18 0 28.5 -14t7.5 -37q-3 -25 -18 -39t-36 -14q-19 0 -42 21q-25 23 -54 25q-7 -38 2 -85q8 -43 5 -62
q-5 -28 -20.5 -41t-34.5 -13z" />
    <glyph glyph-name="bullet" unicode="&#x2022;" horiz-adv-x="348" 
d="M171 222q-50 0 -83 33t-33 82t33.5 82t82.5 33t82.5 -33t33.5 -82t-33 -82t-83 -33z" />
    <glyph glyph-name="ellipsis" unicode="&#x2026;" horiz-adv-x="620" 
d="M37 -10q-23 0 -39 16t-16 39t16 39.5t39 16.5t39 -16.5t16 -39.5t-16 -39t-39 -16zM240 -10q-23 0 -39 16t-16 39t16 39.5t39 16.5t39 -16.5t16 -39.5t-16 -39t-39 -16zM444 -10q-23 0 -39 16t-16 39t16 39.5t39 16.5t39 -16.5t16 -39.5t-16.5 -39t-38.5 -16z" />
    <glyph glyph-name="perthousand" unicode="&#x2030;" horiz-adv-x="792" 
d="M135 350q-41 0 -66 33t-25 87q0 23 7 51q16 61 55.5 98.5t85.5 36.5q38 -1 63.5 -33t25.5 -85q0 -21 -5 -43q-14 -65 -54.5 -105t-86.5 -40zM133 363q23 -2 39 31.5t32 101.5q15 68 15 99q0 46 -24 49q-45 5 -74 -129q-15 -67 -15 -105q0 -46 27 -47zM18 -6l454 659h28
l-455 -659h-27zM333 -9q-42 0 -66.5 33t-24.5 87q0 23 7 51q16 61 55.5 98.5t85.5 36.5q38 -1 63 -33.5t25 -85.5q0 -26 -4 -42q-14 -65 -54.5 -105.5t-86.5 -39.5zM330 4q23 -3 39.5 30.5t32.5 101.5q14 64 14 100q0 45 -24 48q-21 2 -39 -29.5t-34 -98.5q-15 -68 -15 -106
q2 -45 26 -46zM598 -9q-41 0 -65.5 33t-24.5 87q0 23 7 51q15 61 54.5 98.5t86.5 36.5q38 -1 63 -33.5t25 -85.5q0 -18 -4 -42q-14 -65 -54.5 -105.5t-87.5 -39.5zM596 4q23 -2 40 31.5t32 100.5q15 68 15 100q-1 45 -25 48q-22 2 -39.5 -29.5t-32.5 -98.5q-16 -72 -16 -106
q1 -43 26 -46z" />
    <glyph glyph-name="guilsinglleft" unicode="&#x2039;" horiz-adv-x="242" 
d="M124 0l-135 222l236 221h13l-153 -225l52 -218h-13z" />
    <glyph glyph-name="guilsinglright" unicode="&#x203a;" horiz-adv-x="242" 
d="M-51 0l153 226l-53 217h14l134 -222l-235 -221h-13z" />
    <glyph glyph-name="fraction" unicode="&#x2044;" horiz-adv-x="240" 
d="M-128 -6l466 659h28l-467 -659h-27z" />
    <glyph glyph-name="fraction" unicode="&#x2215;" horiz-adv-x="240" 
d="M-128 -6l466 659h28l-467 -659h-27z" />
    <glyph glyph-name="Euro" unicode="&#x20ac;" horiz-adv-x="427" 
d="M202 -14q-81 0 -121 74.5t-23 200.5h-50l5 20h47q5 41 20 91h-46l6 20h46q39 119 112.5 195t159.5 76q53 0 82.5 -30.5t26.5 -79.5q-3 -41 -20 -62.5t-38 -21.5q-19 0 -31 13t-11 34q3 48 49 56q3 1 8.5 1.5t7 1t4.5 2.5t4 5.5t1 9.5q0 19 -21.5 36.5t-50.5 17.5
q-58 0 -106 -71t-79 -183h153l-5 -20h-153q-13 -48 -20 -91h154l-5 -20h-152q-38 -251 62 -252q81 -1 137 134h16q-58 -157 -169 -157z" />
    <glyph glyph-name="trademark" unicode="&#x2122;" horiz-adv-x="676" 
d="M139 371v14h16q22 0 22 21v262q-38 -1 -53 -27t-22 -89h-12l6 132h226l4 -132h-11q-6 62 -22 88.5t-54 27.5v-262q0 -21 23 -21h15v-14h-138zM482 367l-80 263v-198q0 -30 6.5 -38.5t27.5 -8.5h5v-14h-91v14h4q19 0 25 8.5t6 38.5v215q0 12 -5 16.5t-16 4.5h-11v16h95
l64 -213l64 213h95v-16h-11q-22 0 -22 -21v-241q0 -21 22 -21h11v-14h-128v14h11q22 0 22 21v223l-80 -262h-14z" />
    <glyph glyph-name="partialdiff" unicode="&#x2202;" horiz-adv-x="497" 
d="M-62 0l5 16h16q28 1 42.5 14.5t21.5 47.5l118 529q7 32 -1.5 46t-37.5 15h-15l3 16h223q82 0 129 -40.5t46 -113.5q-1 -84 -66.5 -137.5t-148.5 -61.5v-2q47 -17 75.5 -57.5t32.5 -136.5q0 -10 1 -29q1 -53 7 -71.5t31 -18.5h10l-4 -16h-146v123q1 120 -14 161t-57 41
h-30l-56 -248q-7 -32 2.5 -46.5t38.5 -14.5h23l-5 -16h-244zM182 342h55q79 0 119 87q31 59 31 135q0 54 -17 78.5t-57 24.5h-8q-28 0 -42.5 -14t-21.5 -46z" />
    <glyph glyph-name="product" unicode="&#x220f;" horiz-adv-x="732" 
d="M365 -16q-135 0 -227 103.5t-92 254.5t92 254.5t227 103.5q137 0 229 -103t92 -255q0 -151 -92.5 -254.5t-228.5 -103.5zM365 0q130 0 216 98.5t86 243.5t-86 243.5t-216 98.5q-129 0 -214.5 -98.5t-85.5 -243.5t85.5 -243.5t214.5 -98.5zM198 150v15h13q35 0 35 33v303
q0 32 -35 32h-11v15h171q139 0 139 -103q0 -41 -33.5 -65.5t-87.5 -29.5v-2q61 -14 88 -86q3 -7 7 -19l6 -18t5.5 -14t6 -12.5t6 -9t7 -6t8.5 -1.5q24 0 25 52h14q1 -44 -17.5 -68t-51.5 -24q-69 0 -83 101q-8 59 -20.5 80t-40.5 21h-27v-146q0 -33 35 -33h17v-15h-176z
M322 357h29q79 0 79 90q0 86 -64 86h-11q-19 0 -26 -6.5t-7 -25.5v-144z" />
    <glyph glyph-name="summation" unicode="&#x2211;" horiz-adv-x="757" 
d="M568 357q-74 0 -125 55.5t-51 136.5q0 60 34 102t81 42q30 0 50.5 -19t20.5 -45q0 -18 -11.5 -32t-29.5 -14q-17 0 -29.5 13t-12.5 30t9 33q13 17 3 21h-4q-23 -2 -40.5 -27t-17.5 -65q0 -63 49.5 -116t107.5 -53q35 0 58 17t25 42q0 7 -2.5 9t-6 -0.5t-7.5 -6.5
q-11 -11 -31 -11q-16 0 -28 14t-12 33t13 31.5t29 12.5q24 0 42 -22.5t18 -55.5q0 -50 -39 -87.5t-93 -37.5zM189 357q-54 0 -93 37.5t-39 87.5q0 33 18 55.5t42 22.5q16 0 28.5 -12.5t12.5 -31.5t-11.5 -33t-26.5 -14q-21 0 -32 11q-4 4 -7.5 6.5t-6 0.5t-2.5 -9
q2 -25 25 -42t58 -17q59 0 108 52.5t49 116.5q0 40 -17.5 65t-40.5 27q-5 0 -7 -1.5t-1 -5t2.5 -7t4.5 -7.5q9 -16 9 -33t-12.5 -30t-30.5 -13q-17 0 -29 14t-12 32q0 26 21 45t51 19q46 0 80.5 -42.5t34.5 -101.5q0 -81 -51 -136.5t-125 -55.5zM507 -9q-47 0 -81 42
t-34 102q0 81 51 136.5t125 55.5q54 0 93 -37.5t39 -87.5q0 -33 -18 -55.5t-42 -22.5q-16 0 -29 12.5t-13 31.5t12 33t28 14q20 0 31 -11q4 -4 7.5 -6.5t6 -0.5t2.5 9q-2 25 -25 42t-58 17q-58 0 -107.5 -53t-49.5 -116q0 -40 17.5 -65t40.5 -27q14 -1 5 16q-2 2 -4 5
q-9 16 -9 33t12.5 30t29.5 13q18 0 29.5 -14t11.5 -32q0 -26 -20.5 -45t-50.5 -19zM250 -9q-30 0 -51 19t-21 45q0 18 12 32t29 14q18 0 30.5 -13t12.5 -30t-9 -33q-13 -17 -3 -21h4q23 2 40.5 27t17.5 65q0 64 -49 116.5t-108 52.5q-35 0 -58 -17t-25 -42q0 -7 2.5 -9
t6 0.5t7.5 6.5q11 11 32 11q15 0 26.5 -14t11.5 -33t-12.5 -31.5t-28.5 -12.5q-24 0 -42 22.5t-18 55.5q0 50 39 87.5t93 37.5q74 0 125 -55.5t51 -136.5q0 -59 -34.5 -101.5t-80.5 -42.5z" />
    <glyph glyph-name="minus" unicode="&#x2212;" horiz-adv-x="415" 
d="M43 311v38h329v-38h-329z" />
    <glyph glyph-name="radical" unicode="&#x221a;" horiz-adv-x="503" 
d="M126 -13l-50 227q-9 42 -22 56t-47 15l4 14h144l35 -196h3q173 531 284 583q20 9 36.5 2t20.5 -24q8 -34 -35 -77q-93 -90 -179.5 -241.5t-148.5 -349.5z" />
    <glyph glyph-name="infinity" unicode="&#x221e;" horiz-adv-x="646" 
d="M-96 -206q-28 0 -43 16.5t-15 38.5q0 25 12.5 39.5t29.5 14.5q37 0 37 -49q0 -6 -1.5 -13t-3 -11.5t-2.5 -8.5t0.5 -6t5.5 -2q11 0 26.5 39.5t27.5 99.5l93 454h-51l4 17h51l9 41q24 117 79 171t116 54q38 0 61 -20t23 -51q59 79 143 79q39 0 61.5 -20.5t22.5 -52.5
q0 -24 -12.5 -41.5t-32.5 -17.5q-16 0 -27.5 11t-10.5 33q1 17 11 33t10 20q0 15 -22 15q-76 0 -112 -169l-18 -85h64l142 9q0 -50 -22 -128l-47 -173q-13 -49 -13 -65q0 -27 19 -27q30 0 71 93l13 -8q-55 -130 -130 -130q-30 0 -45 18t-15 46q0 25 11 71l58 219q6 21 6 34
q1 13 -7.5 18.5t-27.5 5.5h-80l-45 -207q-46 -212 -95.5 -295.5t-110.5 -83.5q-28 0 -43.5 17t-15.5 39q0 24 13 38.5t29 14.5q41 0 38 -49q-1 -6 -2.5 -13t-3 -11.5t-2 -8.5t1 -5.5t5.5 -1.5q11 0 26.5 39t27.5 99l87 428h-122l-49 -225q-32 -149 -67 -237t-68 -119
t-73 -31zM165 423h122l9 42q16 67 37 105q-7 -7 -22 -7q-32 4 -31 41q1 17 10.5 32.5t9.5 19.5q0 16 -20 16q-60 0 -97 -168z" />
    <glyph glyph-name="integral" unicode="&#x222b;" horiz-adv-x="757" 
d="M568 357q-74 0 -125 55.5t-51 136.5q0 60 34 102t81 42q30 0 50.5 -19t20.5 -45q0 -18 -11.5 -32t-29.5 -14q-17 0 -29.5 13t-12.5 30t9 33q13 17 3 21h-4q-23 -2 -40.5 -27t-17.5 -65q0 -63 49.5 -116t107.5 -53q35 0 58 17t25 42q0 7 -2.5 9t-6 -0.5t-7.5 -6.5
q-11 -11 -31 -11q-16 0 -28 14t-12 33t13 31.5t29 12.5q24 0 42 -22.5t18 -55.5q0 -50 -39 -87.5t-93 -37.5zM189 357q-54 0 -93 37.5t-39 87.5q0 33 18 55.5t42 22.5q16 0 28.5 -12.5t12.5 -31.5t-11.5 -33t-26.5 -14q-21 0 -32 11q-4 4 -7.5 6.5t-6 0.5t-2.5 -9
q2 -25 25 -42t58 -17q59 0 108 52.5t49 116.5q0 40 -17.5 65t-40.5 27q-5 0 -7 -1.5t-1 -5t2.5 -7t4.5 -7.5q9 -16 9 -33t-12.5 -30t-30.5 -13q-17 0 -29 14t-12 32q0 26 21 45t51 19q46 0 80.5 -42.5t34.5 -101.5q0 -81 -51 -136.5t-125 -55.5zM507 -9q-47 0 -81 42
t-34 102q0 81 51 136.5t125 55.5q54 0 93 -37.5t39 -87.5q0 -33 -18 -55.5t-42 -22.5q-16 0 -29 12.5t-13 31.5t12 33t28 14q20 0 31 -11q4 -4 7.5 -6.5t6 -0.5t2.5 9q-2 25 -25 42t-58 17q-58 0 -107.5 -53t-49.5 -116q0 -40 17.5 -65t40.5 -27q14 -1 5 16q-2 2 -4 5
q-9 16 -9 33t12.5 30t29.5 13q18 0 29.5 -14t11.5 -32q0 -26 -20.5 -45t-50.5 -19zM250 -9q-30 0 -51 19t-21 45q0 18 12 32t29 14q18 0 30.5 -13t12.5 -30t-9 -33q-13 -17 -3 -21h4q23 2 40.5 27t17.5 65q0 64 -49 116.5t-108 52.5q-35 0 -58 -17t-25 -42q0 -7 2.5 -9
t6 0.5t7.5 6.5q11 11 32 11q15 0 26.5 -14t11.5 -33t-12.5 -31.5t-28.5 -12.5q-24 0 -42 22.5t-18 55.5q0 50 39 87.5t93 37.5q74 0 125 -55.5t51 -136.5q0 -59 -34.5 -101.5t-80.5 -42.5z" />
    <glyph glyph-name="approxequal" unicode="&#x2248;" horiz-adv-x="415" 
d="M69 126l-24 23l140 172l-141 172l26 24l138 -169l137 169l24 -24l-140 -172l35 -43q36 -42 71 -85l35 -43l-25 -24l-138 168z" />
    <glyph glyph-name="notequal" unicode="&#x2260;" horiz-adv-x="449" 
d="M-96 -206q-28 0 -43 16.5t-15 38.5q0 25 12.5 39.5t29.5 14.5q37 0 37 -49q0 -6 -1.5 -13t-3 -11.5t-2.5 -8.5t0.5 -6t5.5 -2q11 0 26.5 39.5t27.5 99.5l93 454h-51l4 17h51l9 41q24 117 78 171t115 54q37 0 59 -19t23 -46q48 73 120 73q34 0 53 -18.5t18 -46.5
q-1 -26 -13.5 -43.5t-32.5 -17.5q-17 0 -27.5 12.5t-9.5 31.5q1 18 10.5 33.5t9.5 19.5q0 12 -12 12q-43 0 -79 -164l-20 -93h75l-4 -17h-74l-45 -207q-46 -212 -95.5 -295.5t-110.5 -83.5q-28 0 -43.5 17t-15.5 39q0 24 13 38.5t29 14.5q41 0 38 -49q-1 -6 -2.5 -13
t-3 -11.5t-2 -8.5t1 -5.5t5.5 -1.5q11 0 26.5 39t27.5 99l87 428h-122l-49 -225q-32 -149 -67 -237t-68 -119t-73 -31zM165 423h122l11 48q13 58 29 94q-8 -5 -19 -3q-13 2 -22 13.5t-8 28.5t11 32.5t10 19.5q1 7 -4 11.5t-16 4.5q-59 0 -96 -168z" />
    <glyph glyph-name="lessequal" unicode="&#x2264;" horiz-adv-x="757" 
d="M568 357q-74 0 -125 55.5t-51 136.5q0 60 34 102t81 42q30 0 50.5 -19t20.5 -45q0 -18 -11.5 -32t-29.5 -14q-17 0 -29.5 13t-12.5 30t9 33q13 17 3 21h-4q-23 -2 -40.5 -27t-17.5 -65q0 -63 49.5 -116t107.5 -53q35 0 58 17t25 42q0 7 -2.5 9t-6 -0.5t-7.5 -6.5
q-11 -11 -31 -11q-16 0 -28 14t-12 33t13 31.5t29 12.5q24 0 42 -22.5t18 -55.5q0 -50 -39 -87.5t-93 -37.5zM189 357q-54 0 -93 37.5t-39 87.5q0 33 18 55.5t42 22.5q16 0 28.5 -12.5t12.5 -31.5t-11.5 -33t-26.5 -14q-21 0 -32 11q-4 4 -7.5 6.5t-6 0.5t-2.5 -9
q2 -25 25 -42t58 -17q59 0 108 52.5t49 116.5q0 40 -17.5 65t-40.5 27q-5 0 -7 -1.5t-1 -5t2.5 -7t4.5 -7.5q9 -16 9 -33t-12.5 -30t-30.5 -13q-17 0 -29 14t-12 32q0 26 21 45t51 19q46 0 80.5 -42.5t34.5 -101.5q0 -81 -51 -136.5t-125 -55.5zM507 -9q-47 0 -81 42
t-34 102q0 81 51 136.5t125 55.5q54 0 93 -37.5t39 -87.5q0 -33 -18 -55.5t-42 -22.5q-16 0 -29 12.5t-13 31.5t12 33t28 14q20 0 31 -11q4 -4 7.5 -6.5t6 -0.5t2.5 9q-2 25 -25 42t-58 17q-58 0 -107.5 -53t-49.5 -116q0 -40 17.5 -65t40.5 -27q14 -1 5 16q-2 2 -4 5
q-9 16 -9 33t12.5 30t29.5 13q18 0 29.5 -14t11.5 -32q0 -26 -20.5 -45t-50.5 -19zM250 -9q-30 0 -51 19t-21 45q0 18 12 32t29 14q18 0 30.5 -13t12.5 -30t-9 -33q-13 -17 -3 -21h4q23 2 40.5 27t17.5 65q0 64 -49 116.5t-108 52.5q-35 0 -58 -17t-25 -42q0 -7 2.5 -9
t6 0.5t7.5 6.5q11 11 32 11q15 0 26.5 -14t11.5 -33t-12.5 -31.5t-28.5 -12.5q-24 0 -42 22.5t-18 55.5q0 50 39 87.5t93 37.5q74 0 125 -55.5t51 -136.5q0 -59 -34.5 -101.5t-80.5 -42.5z" />
    <glyph glyph-name="greaterequal" unicode="&#x2265;" horiz-adv-x="757" 
d="M568 357q-74 0 -125 55.5t-51 136.5q0 60 34 102t81 42q30 0 50.5 -19t20.5 -45q0 -18 -11.5 -32t-29.5 -14q-17 0 -29.5 13t-12.5 30t9 33q13 17 3 21h-4q-23 -2 -40.5 -27t-17.5 -65q0 -63 49.5 -116t107.5 -53q35 0 58 17t25 42q0 7 -2.5 9t-6 -0.5t-7.5 -6.5
q-11 -11 -31 -11q-16 0 -28 14t-12 33t13 31.5t29 12.5q24 0 42 -22.5t18 -55.5q0 -50 -39 -87.5t-93 -37.5zM189 357q-54 0 -93 37.5t-39 87.5q0 33 18 55.5t42 22.5q16 0 28.5 -12.5t12.5 -31.5t-11.5 -33t-26.5 -14q-21 0 -32 11q-4 4 -7.5 6.5t-6 0.5t-2.5 -9
q2 -25 25 -42t58 -17q59 0 108 52.5t49 116.5q0 40 -17.5 65t-40.5 27q-5 0 -7 -1.5t-1 -5t2.5 -7t4.5 -7.5q9 -16 9 -33t-12.5 -30t-30.5 -13q-17 0 -29 14t-12 32q0 26 21 45t51 19q46 0 80.5 -42.5t34.5 -101.5q0 -81 -51 -136.5t-125 -55.5zM507 -9q-47 0 -81 42
t-34 102q0 81 51 136.5t125 55.5q54 0 93 -37.5t39 -87.5q0 -33 -18 -55.5t-42 -22.5q-16 0 -29 12.5t-13 31.5t12 33t28 14q20 0 31 -11q4 -4 7.5 -6.5t6 -0.5t2.5 9q-2 25 -25 42t-58 17q-58 0 -107.5 -53t-49.5 -116q0 -40 17.5 -65t40.5 -27q14 -1 5 16q-2 2 -4 5
q-9 16 -9 33t12.5 30t29.5 13q18 0 29.5 -14t11.5 -32q0 -26 -20.5 -45t-50.5 -19zM250 -9q-30 0 -51 19t-21 45q0 18 12 32t29 14q18 0 30.5 -13t12.5 -30t-9 -33q-13 -17 -3 -21h4q23 2 40.5 27t17.5 65q0 64 -49 116.5t-108 52.5q-35 0 -58 -17t-25 -42q0 -7 2.5 -9
t6 0.5t7.5 6.5q11 11 32 11q15 0 26.5 -14t11.5 -33t-12.5 -31.5t-28.5 -12.5q-24 0 -42 22.5t-18 55.5q0 50 39 87.5t93 37.5q74 0 125 -55.5t51 -136.5q0 -59 -34.5 -101.5t-80.5 -42.5z" />
    <glyph glyph-name="lozenge" unicode="&#x25ca;" horiz-adv-x="757" 
d="M568 357q-74 0 -125 55.5t-51 136.5q0 60 34 102t81 42q30 0 50.5 -19t20.5 -45q0 -18 -11.5 -32t-29.5 -14q-17 0 -29.5 13t-12.5 30t9 33q13 17 3 21h-4q-23 -2 -40.5 -27t-17.5 -65q0 -63 49.5 -116t107.5 -53q35 0 58 17t25 42q0 7 -2.5 9t-6 -0.5t-7.5 -6.5
q-11 -11 -31 -11q-16 0 -28 14t-12 33t13 31.5t29 12.5q24 0 42 -22.5t18 -55.5q0 -50 -39 -87.5t-93 -37.5zM189 357q-54 0 -93 37.5t-39 87.5q0 33 18 55.5t42 22.5q16 0 28.5 -12.5t12.5 -31.5t-11.5 -33t-26.5 -14q-21 0 -32 11q-4 4 -7.5 6.5t-6 0.5t-2.5 -9
q2 -25 25 -42t58 -17q59 0 108 52.5t49 116.5q0 40 -17.5 65t-40.5 27q-5 0 -7 -1.5t-1 -5t2.5 -7t4.5 -7.5q9 -16 9 -33t-12.5 -30t-30.5 -13q-17 0 -29 14t-12 32q0 26 21 45t51 19q46 0 80.5 -42.5t34.5 -101.5q0 -81 -51 -136.5t-125 -55.5zM507 -9q-47 0 -81 42
t-34 102q0 81 51 136.5t125 55.5q54 0 93 -37.5t39 -87.5q0 -33 -18 -55.5t-42 -22.5q-16 0 -29 12.5t-13 31.5t12 33t28 14q20 0 31 -11q4 -4 7.5 -6.5t6 -0.5t2.5 9q-2 25 -25 42t-58 17q-58 0 -107.5 -53t-49.5 -116q0 -40 17.5 -65t40.5 -27q14 -1 5 16q-2 2 -4 5
q-9 16 -9 33t12.5 30t29.5 13q18 0 29.5 -14t11.5 -32q0 -26 -20.5 -45t-50.5 -19zM250 -9q-30 0 -51 19t-21 45q0 18 12 32t29 14q18 0 30.5 -13t12.5 -30t-9 -33q-13 -17 -3 -21h4q23 2 40.5 27t17.5 65q0 64 -49 116.5t-108 52.5q-35 0 -58 -17t-25 -42q0 -7 2.5 -9
t6 0.5t7.5 6.5q11 11 32 11q15 0 26.5 -14t11.5 -33t-12.5 -31.5t-28.5 -12.5q-24 0 -42 22.5t-18 55.5q0 50 39 87.5t93 37.5q74 0 125 -55.5t51 -136.5q0 -59 -34.5 -101.5t-80.5 -42.5z" />
    <glyph glyph-name="apple" unicode="&#xf8ff;" horiz-adv-x="757" 
d="M568 357q-74 0 -125 55.5t-51 136.5q0 60 34 102t81 42q30 0 50.5 -19t20.5 -45q0 -18 -11.5 -32t-29.5 -14q-17 0 -29.5 13t-12.5 30t9 33q13 17 3 21h-4q-23 -2 -40.5 -27t-17.5 -65q0 -63 49.5 -116t107.5 -53q35 0 58 17t25 42q0 7 -2.5 9t-6 -0.5t-7.5 -6.5
q-11 -11 -31 -11q-16 0 -28 14t-12 33t13 31.5t29 12.5q24 0 42 -22.5t18 -55.5q0 -50 -39 -87.5t-93 -37.5zM189 357q-54 0 -93 37.5t-39 87.5q0 33 18 55.5t42 22.5q16 0 28.5 -12.5t12.5 -31.5t-11.5 -33t-26.5 -14q-21 0 -32 11q-4 4 -7.5 6.5t-6 0.5t-2.5 -9
q2 -25 25 -42t58 -17q59 0 108 52.5t49 116.5q0 40 -17.5 65t-40.5 27q-5 0 -7 -1.5t-1 -5t2.5 -7t4.5 -7.5q9 -16 9 -33t-12.5 -30t-30.5 -13q-17 0 -29 14t-12 32q0 26 21 45t51 19q46 0 80.5 -42.5t34.5 -101.5q0 -81 -51 -136.5t-125 -55.5zM507 -9q-47 0 -81 42
t-34 102q0 81 51 136.5t125 55.5q54 0 93 -37.5t39 -87.5q0 -33 -18 -55.5t-42 -22.5q-16 0 -29 12.5t-13 31.5t12 33t28 14q20 0 31 -11q4 -4 7.5 -6.5t6 -0.5t2.5 9q-2 25 -25 42t-58 17q-58 0 -107.5 -53t-49.5 -116q0 -40 17.5 -65t40.5 -27q14 -1 5 16q-2 2 -4 5
q-9 16 -9 33t12.5 30t29.5 13q18 0 29.5 -14t11.5 -32q0 -26 -20.5 -45t-50.5 -19zM250 -9q-30 0 -51 19t-21 45q0 18 12 32t29 14q18 0 30.5 -13t12.5 -30t-9 -33q-13 -17 -3 -21h4q23 2 40.5 27t17.5 65q0 64 -49 116.5t-108 52.5q-35 0 -58 -17t-25 -42q0 -7 2.5 -9
t6 0.5t7.5 6.5q11 11 32 11q15 0 26.5 -14t11.5 -33t-12.5 -31.5t-28.5 -12.5q-24 0 -42 22.5t-18 55.5q0 50 39 87.5t93 37.5q74 0 125 -55.5t51 -136.5q0 -59 -34.5 -101.5t-80.5 -42.5z" />
    <glyph glyph-name="commaaccent" horiz-adv-x="0" 
 />
    <glyph glyph-name="h.sc" horiz-adv-x="0" 
 />
    <glyph glyph-name="R.alt" horiz-adv-x="497" 
d="M-62 0l5 16h16q28 1 42.5 14.5t21.5 47.5l118 529q7 32 -1.5 46t-37.5 15h-15l3 16h223q82 0 129 -40.5t46 -113.5q-1 -84 -66.5 -137.5t-148.5 -61.5v-2q47 -17 75.5 -57.5t32.5 -136.5q0 -10 1 -29q1 -53 7 -71.5t31 -18.5h10l-4 -16h-146v123q1 120 -14 161t-57 41
h-30l-56 -248q-7 -32 2.5 -46.5t38.5 -14.5h23l-5 -16h-244zM182 342h55q79 0 119 87q31 59 31 135q0 54 -17 78.5t-57 24.5h-8q-28 0 -42.5 -14t-21.5 -46z" />
    </font>
</defs>
</svg>
