<?xml version="1.0" standalone="no"?>
<!DOCTYPE svg PUBLIC "-//W3C//DTD SVG 1.1//EN" "http://www.w3.org/Graphics/SVG/1.1/DTD/svg11.dtd" >
<svg>
<metadata>
Created by FontForge 20110222 at Sun Aug 25 13:43:17 2013
 By Orthosie Webhosting
[c] Copyright 2006, The Font Bureau, Inc. All Rights Reserved.
</metadata>
<defs>
<font id="BentonModDispBoldItalic" horiz-adv-x="470" >
  <font-face 
    font-family="BentonModDispBoldItalic"
    font-weight="700"
    font-style="italic"
    font-stretch="normal"
    units-per-em="1000"
    panose-1="2 0 8 3 9 0 0 9 0 4"
    ascent="780"
    descent="-220"
    x-height="436"
    cap-height="684"
    bbox="-215 -209 1002 898"
    underline-thickness="20"
    underline-position="-113"
    slope="-12"
    unicode-range="U+0020-FB02"
  />
<missing-glyph horiz-adv-x="500" 
 />
    <glyph glyph-name="fi" unicode="fi" horiz-adv-x="557" 
d="M-118 -206q-38 0 -61 19t-23 43q0 26 16 43t37 17q54 0 54 -59q0 -7 -1.5 -14.5t-2.5 -11.5t-1.5 -7.5t1.5 -5t7 -1.5q15 0 33.5 39.5t31.5 95.5l107 454h-63l5 20h63l9 37q21 87 66 143t93 76.5t101 20.5q51 0 82.5 -24t31.5 -57q0 -27 -17 -48.5t-44 -21.5
q-21 0 -36 15t-15 35t12.5 38.5t12.5 22.5q0 15 -22 15q-12 0 -26.5 -6.5t-33.5 -22t-37 -50t-30 -83.5l-22 -90h103l164 13q0 -51 -24 -128l-54 -175q-16 -48 -16 -67q0 -26 23 -26q32 0 86 93l15 -11q-66 -131 -165 -131q-42 0 -61 21t-19 52q0 18 13 62l67 220q7 25 7 33
q0 24 -44 24h-99l-56 -225q-29 -117 -60.5 -195.5t-66 -119t-67.5 -56.5t-74 -16z" />
    <glyph glyph-name="fl" unicode="fl" horiz-adv-x="567" 
d="M-118 -206q-38 0 -61 19t-23 43q0 26 16 43t37 17q54 0 54 -59q0 -7 -1.5 -14.5t-2.5 -11.5t-1.5 -7.5t1.5 -5t7 -1.5q15 0 33.5 39.5t31.5 95.5l107 454h-63l5 20h63l9 37q21 87 66 143t93 76.5t101 20.5q72 0 102 -44l114 44l-160 -564q-15 -52 -15 -69q0 -29 21 -29
q32 0 86 91l14 -10q-65 -128 -169 -128q-76 0 -76 63q0 25 12 69l80 280h-157l-56 -225q-29 -117 -60.5 -195.5t-66 -119t-67.5 -56.5t-74 -16zM210 426h159l36 126q-21 1 -35 15.5t-14 34.5t12.5 38.5t12.5 22.5q0 15 -22 15q-12 0 -26.5 -6.5t-33.5 -22t-37 -50t-30 -83.5
z" />
    <glyph glyph-name="f_f_l" unicode="ffl" horiz-adv-x="847" 
d="M488 426h161l36 126q-21 1 -35 15.5t-14 34.5t12.5 38.5t12.5 22.5q0 15 -22 15q-12 0 -26.5 -6.5t-34 -22t-38 -50t-30.5 -83.5zM634 703q72 0 102 -44l114 44l-160 -564q-15 -52 -15 -69q0 -29 21 -29q32 0 86 91l14 -10q-65 -128 -169 -128q-76 0 -76 63q0 25 12 69
l80 280h-159l-48 -195q-29 -116 -63 -195t-72 -119.5t-73.5 -56.5t-77.5 -16q-38 0 -61 19t-23 43q0 26 16 43t37 17q54 0 54 -60q0 -7 -1.5 -14.5t-2.5 -11.5t-1.5 -7t1.5 -4.5t7 -1.5q56 0 87 135l99 424h-158l-56 -225q-29 -117 -60 -195.5t-65 -119t-67 -56.5t-74 -16
q-38 0 -61 19t-23 43q0 26 16 43t37 17q54 0 54 -60q0 -7 -1.5 -14.5t-2.5 -11.5t-1.5 -7t1.5 -4.5t7 -1.5q15 0 34.5 39.5t32.5 95.5l107 454h-65l5 20h64l9 40q15 66 41 112t58 68.5t61.5 31.5t61.5 9q52 0 81 -21t29 -54q0 -12 -3 -22q64 117 210 113zM208 426h158l9 40
q14 58 32 94q-16 -18 -43 -18q-22 0 -36.5 15t-14.5 35t12.5 38.5t12.5 22.5q0 15 -17 15q-54 0 -94 -162z" />
    <glyph glyph-name="f_f_i" unicode="ffi" horiz-adv-x="837" 
d="M634 703q52 -1 83 -24.5t31 -56.5q0 -27 -17 -48.5t-44 -21.5q-21 0 -36 15t-15 35t12.5 38.5t12.5 22.5q0 15 -22 15q-12 0 -26.5 -6.5t-34 -22t-38 -50t-30.5 -83.5l-22 -90h105l164 13q0 -51 -24 -128l-54 -175q-16 -48 -16 -67q0 -26 23 -26q32 0 86 93l15 -11
q-66 -131 -165 -131q-42 0 -61 21t-19 52q0 18 13 62l67 220q7 25 7 33q0 24 -44 24h-101l-48 -195q-29 -116 -63 -195t-72 -119.5t-73.5 -56.5t-77.5 -16q-38 0 -61 19t-23 43q0 26 16 43t37 17q54 0 54 -60q0 -7 -1.5 -14.5t-2.5 -11.5t-1.5 -7t1.5 -4.5t7 -1.5
q56 0 87 135l99 424h-158l-56 -225q-29 -117 -60 -195.5t-65 -119t-67 -56.5t-74 -16q-38 0 -61 19t-23 43q0 26 16 43t37 17q54 0 54 -60q0 -7 -1.5 -14.5t-2.5 -11.5t-1.5 -7t1.5 -4.5t7 -1.5q15 0 34.5 39.5t32.5 95.5l107 454h-65l5 20h64l9 40q15 66 41 112t58 68.5
t61.5 31.5t61.5 9q52 0 81 -21t29 -54q0 -12 -3 -22q64 117 210 113zM208 426h158l9 40q14 58 32 94q-16 -18 -43 -18q-22 0 -36.5 15t-14.5 35t12.5 38.5t12.5 22.5q0 15 -17 15q-54 0 -94 -162z" />
    <glyph glyph-name="f_f" unicode="ff" horiz-adv-x="597" 
d="M-118 -206q-38 0 -61 19t-23 43q0 26 16 43t37 17q54 0 54 -60q0 -7 -1.5 -14.5t-2.5 -11.5t-1.5 -7t1.5 -4.5t7 -1.5q15 0 34.5 39.5t32.5 95.5l107 454h-65l5 20h64l9 40q15 66 41 112t58 68.5t61.5 31.5t61.5 9q52 0 81 -21t29 -54q0 -12 -3 -22q59 107 176 107
q51 0 79.5 -21t28.5 -54q0 -27 -17 -48.5t-44 -21.5q-21 0 -36 15t-15 35t12.5 38.5t12.5 22.5q0 15 -17 15q-54 0 -94 -162l-22 -90h102l-5 -20h-101l-48 -195q-29 -116 -63 -195t-72 -119.5t-73.5 -56.5t-77.5 -16q-38 0 -61 19t-23 43q0 26 16 43t37 17q54 0 54 -60
q0 -7 -1.5 -14.5t-2.5 -11.5t-1.5 -7t1.5 -4.5t7 -1.5q56 0 87 135l99 424h-158l-56 -225q-29 -117 -60 -195.5t-65 -119t-67 -56.5t-74 -16zM208 426h158l9 40q14 58 32 94q-16 -18 -43 -18q-22 0 -36.5 15t-14.5 35t12.5 38.5t12.5 22.5q0 15 -17 15q-54 0 -94 -162z" />
    <glyph glyph-name="f_j" unicode="fj" horiz-adv-x="518" 
d="M246 -19l96 368q7 25 7 33q0 24 -44 24h-99l-56 -225q-93 -387 -268 -387q-38 0 -61 19t-23 43q0 26 16 43t37 17q54 0 54 -59q0 -7 -1.5 -14.5t-2.5 -11.5t-1.5 -7.5t1.5 -5t7 -1.5q15 0 33.5 39.5t31.5 95.5l107 454h-63l5 20h63l9 37q21 87 66 143t93 76.5t101 20.5
q51 0 82.5 -24t31.5 -57q0 -27 -17 -48.5t-44 -21.5q-21 0 -36 15t-15 35t12.5 38.5t12.5 22.5q0 15 -22 15q-12 0 -26.5 -6.5t-33.5 -22t-37 -50t-30 -83.5l-22 -90h103l164 13q0 -47 -24 -128l-30 -101q-56 -187 -120 -287t-146 -100q-36 0 -57.5 18t-21.5 41q0 25 15 41
t35 16q50 0 50 -56q0 -10 -3 -21t-2.5 -14t8.5 -3q14 0 32 39.5t33 96.5z" />
    <glyph glyph-name=".notdef" horiz-adv-x="500" 
 />
    <glyph glyph-name=".null" horiz-adv-x="0" 
 />
    <glyph glyph-name="nonmarkingreturn" horiz-adv-x="333" 
 />
    <glyph glyph-name="space" unicode=" " horiz-adv-x="186" 
 />
    <glyph glyph-name="exclam" unicode="!" horiz-adv-x="240" 
d="M76 212q26 98 28 293q0 61 3 93q5 49 30 72.5t61 23.5q32 0 52 -18.5t20 -48.5q0 -34 -50 -127q-106 -201 -129 -288h-15zM44 -9q-28 0 -48.5 20t-20.5 48t20.5 48.5t48.5 20.5q27 0 47.5 -20.5t20.5 -48.5t-20.5 -48t-47.5 -20z" />
    <glyph glyph-name="quotedbl" unicode="&#x22;" horiz-adv-x="373" 
d="M277 410l-5 179q-1 40 22 67.5t59 27.5q37 0 50 -27t-9 -68l-104 -179h-13zM100 410l-5 179q-1 40 22 67.5t59 27.5q37 0 50 -27t-9 -68l-105 -179h-12z" />
    <glyph glyph-name="numbersign" unicode="#" horiz-adv-x="564" 
d="M68 -7l45 149h-111l36 117h112l37 123h-128l37 117h128l46 153h35l-46 -153h151l46 153h36l-46 -153h107l-37 -117h-107l-37 -123h123l-38 -117h-122l-45 -149h-36l45 149h-151l-45 -149h-35zM185 259h151l37 123h-151z" />
    <glyph glyph-name="dollar" unicode="$" horiz-adv-x="443" 
d="M85 -135l34 135q-62 8 -100 40t-38 78q0 40 21.5 64t52.5 24q24 0 39.5 -15.5t14.5 -38.5q-1 -33 -21.5 -48.5t-52.5 -13.5q-14 1 -15 -8q-2 -20 29.5 -39.5t73.5 -23.5l17 65q17 66 33 132l16 66q-133 78 -133 184q0 85 63 134.5t162 48.5l18 72h30l-18 -74
q119 -17 119 -107q0 -33 -19 -52.5t-45 -19.5q-22 0 -36 15t-13 35q2 51 60 56q9 1 12 3t2 7q-1 15 -27 28.5t-58 16.5l-61 -244q78 -51 104 -79q49 -52 49 -119q0 -92 -72.5 -141t-177.5 -49l-33 -132h-30zM219 402l57 228q-54 0 -90.5 -31t-36.5 -84q0 -63 70 -113z
M153 17q64 0 108.5 32.5t44.5 94.5q0 58 -91 121z" />
    <glyph glyph-name="percent" unicode="%" horiz-adv-x="690" 
d="M171 338q-54 0 -89 40.5t-35 99.5q0 22 6 44q16 64 66 99t110 35q51 0 86 -37.5t36 -93.5q0 -21 -4 -38q-15 -67 -66 -108t-110 -41zM57 -6l527 659h36l-527 -659h-36zM462 -8q-54 0 -89 40.5t-35 99.5q0 22 6 44q16 64 66 99t110 35q50 0 85.5 -38t36.5 -94
q0 -20 -4 -37q-15 -67 -66 -108t-110 -41zM160 353q24 -4 42.5 29.5t38.5 108.5q18 71 20 107q1 38 -21 43q-45 10 -83 -134q-20 -77 -20 -111q0 -39 23 -43zM451 7q24 -4 42.5 29.5t38.5 108.5q20 76 20 111q0 34 -21 39q-45 10 -83 -134q-20 -73 -20 -112q0 -37 23 -42z
" />
    <glyph glyph-name="ampersand" unicode="&#x26;" horiz-adv-x="643" 
d="M170 -10q-186 0 -186 148q0 146 212 248q-1 15 -1 44q0 124 62 194t138 70q50 0 82.5 -29t32.5 -73q0 -49 -46 -89t-146 -84q11 -177 66 -272q92 108 96 196q1 22 -20.5 31.5t-62.5 10.5l5 17h230l-5 -17q-49 -2 -77.5 -20.5t-46.5 -61.5q-41 -97 -105 -176
q31 -44 74 -44q32 0 55 18t35 71h13q-16 -78 -61 -129t-110 -51q-66 0 -105 49q-53 -51 -129 -51zM317 444q87 56 98 156q9 76 -31 76q-31 0 -49.5 -57t-18.5 -137q0 -25 1 -38zM201 32q44 0 85 28q-73 101 -88 299q-88 -69 -88 -202q0 -64 27.5 -94.5t63.5 -30.5z" />
    <glyph glyph-name="quotesingle" unicode="'" horiz-adv-x="188" 
d="M100 410l-5 179q-1 40 22 67.5t59 27.5q37 0 50 -27t-9 -68l-105 -179h-12z" />
    <glyph glyph-name="parenleft" unicode="(" horiz-adv-x="311" 
d="M186 -143q-80 59 -130 142.5t-50 183.5q0 163 106.5 302t273.5 212l-2 -13q-123 -87 -190 -252t-67 -344q0 -147 64 -218z" />
    <glyph glyph-name="parenright" unicode=")" horiz-adv-x="312" 
d="M-104 -133l2 13q164 116 229 381q34 129 26 250.5t-62 182.5l5 13q99 -74 149.5 -183.5t18.5 -241.5q-34 -139 -131 -246.5t-237 -168.5z" />
    <glyph glyph-name="asterisk" unicode="*" horiz-adv-x="406" 
d="M307 318q-22 -10 -38.5 0t-24.5 29t-10 142q-8 -13 -21.5 -35.5t-21 -35.5t-18 -26.5t-18.5 -20.5q-37 -31 -69 5q-15 21 -11.5 38t19.5 31q6 5 16 10.5t25 11.5t27 10t32.5 11t31.5 11q-14 3 -50.5 11.5t-56 14.5t-30.5 13q-41 26 -17 67q24 40 68 14q9 -5 21 -18
t21 -24t26.5 -34t24.5 -33q-1 13 -5 55.5t-3.5 49.5t2.5 37q5 20 20.5 31.5t38.5 5.5q45 -11 34 -61q-2 -10 -10.5 -25t-17 -27.5t-24 -35t-23.5 -34.5q16 6 48.5 20.5t52.5 21.5t33 8q20 2 35 -10t17 -36q2 -23 -12 -36t-35 -15q-8 -1 -19 1t-27 6t-27.5 7.5t-32.5 10.5
t-32 10q11 -13 34.5 -39.5t36 -43t17.5 -29.5q17 -44 -27 -64z" />
    <glyph glyph-name="plus" unicode="+" horiz-adv-x="486" 
d="M221 123v179h-173v44h173v179h43v-179h173v-44h-173v-179h-43z" />
    <glyph glyph-name="comma" unicode="," horiz-adv-x="225" 
d="M-60 -183l-12 18q48 26 92 72.5t44 77.5q0 5 -1 7.5t-4 2t-6.5 -1.5t-10 -2t-12.5 -1q-30 0 -50.5 18.5t-20.5 46.5q0 30 17.5 49t46.5 19q32 0 55 -24t23 -64q0 -121 -161 -218z" />
    <glyph glyph-name="hyphen" unicode="-" horiz-adv-x="277" 
d="M-13 190l19 77h229l-19 -77h-229z" />
    <glyph glyph-name="hyphen" unicode="&#xad;" horiz-adv-x="277" 
d="M-13 190l19 77h229l-19 -77h-229z" />
    <glyph glyph-name="period" unicode="." horiz-adv-x="225" 
d="M38 -10q-28 0 -48.5 20t-20.5 48t20.5 48.5t48.5 20.5q27 0 47.5 -20.5t20.5 -48.5t-20.5 -48t-47.5 -20z" />
    <glyph glyph-name="slash" unicode="/" horiz-adv-x="346" 
d="M-118 -85l498 774h41l-499 -774h-40z" />
    <glyph glyph-name="zero" unicode="0" horiz-adv-x="528" 
d="M190 -16q-84 0 -134 65t-50 172q0 39 9 83q17 89 61 170t111 135t141 54q78 0 131 -60.5t54 -166.5q0 -43 -9 -94q-27 -140 -119 -249t-195 -109zM186 3q51 0 92 74t84 260q22 95 24 198q1 58 -11.5 84t-41.5 26q-51 0 -90.5 -68t-81.5 -239q-35 -146 -35 -224
q-1 -60 14 -85.5t46 -25.5z" />
    <glyph glyph-name="one" unicode="1" horiz-adv-x="326" 
d="M-72 0l5 18h31q35 0 52 13.5t24 42.5l109 437q14 58 -45 58h-34l4 18q164 11 215 80h25l-147 -592q-15 -57 46 -57h29l-4 -18h-310z" />
    <glyph glyph-name="two" unicode="2" horiz-adv-x="448" 
d="M-79 0l10 39q51 82 103.5 142t150.5 128q124 87 129 199q3 63 -16.5 95t-67.5 32q-57 0 -96.5 -28.5t-51.5 -81.5q-1 -7 3 -7q2 0 10 3q17 5 29 5q20 0 36 -16t16 -41q0 -27 -18.5 -44t-46.5 -17q-26 0 -45 22t-18 55q2 61 38.5 103t80.5 57.5t89 15.5q92 0 144.5 -44
t46.5 -118q-7 -80 -62 -135.5t-168 -106.5q-71 -31 -131 -72t-83 -72h228q52 0 83 31t52 96h20l-71 -240h-394z" />
    <glyph glyph-name="three" unicode="3" horiz-adv-x="446" 
d="M128 -14q-86 0 -129 38t-44 96q-1 45 20 70.5t52 25.5q27 0 41 -15.5t14 -40.5q0 -23 -16 -38.5t-42 -15.5q-6 0 -11.5 1t-9.5 2t-7.5 2.5t-6 2t-4.5 0t-3 -2.5t-1 -6q1 -40 34.5 -68t86.5 -28q65 0 105 50t40 139q0 58 -24.5 88.5t-62.5 30.5q-10 0 -23 -3t-24 -3
q-7 0 -15 5t-8 15q0 20 30 20q8 0 20 -3t21 -3q73 0 114.5 46t41.5 126q0 60 -19.5 90.5t-66.5 30.5q-56 0 -96 -27t-42 -54q0 -8 3 -10.5t12.5 -1.5t14.5 0q47 -6 47 -54q0 -25 -16.5 -41.5t-40.5 -16.5q-26 0 -42.5 19.5t-16.5 47.5q0 76 59 118.5t147 42.5
q75 0 130.5 -42.5t55.5 -107.5q0 -78 -61 -125t-156 -53v-2q66 -8 109 -49t43 -99q0 -78 -71 -137.5t-182 -59.5z" />
    <glyph glyph-name="four" unicode="4" horiz-adv-x="480" 
d="M68 0l5 18h32q34 0 47.5 11.5t21.5 44.5l19 79h-225l5 21l427 485h47l-120 -480h88l-6 -26h-89l-19 -79q-8 -32 1 -44t42 -12h23l-5 -18h-294zM11 179h189l76 303z" />
    <glyph glyph-name="five" unicode="5" horiz-adv-x="451" 
d="M127 -13q-75 0 -115 35.5t-40 92.5q0 43 22 68t51 25q23 0 38 -15.5t15 -38.5q0 -26 -18 -43t-44 -17q-5 0 -16.5 2t-16 0.5t-4.5 -9.5q0 -29 30 -53t76 -24q72 0 115 67.5t43 196.5q0 48 -21.5 75.5t-64.5 27.5q-57 0 -85 -28q-6 -24 -17.5 -38.5t-21.5 -14.5
q-13 0 -13 15q0 19 32 47l95 295l10 4q71 -29 167 -31q80 -2 137 26l5 -10q-30 -54 -93 -90.5t-140 -36.5q-62 0 -101 14l-56 -158q47 28 123 28q73 0 127 -46t54 -124q0 -106 -81 -174t-192 -68z" />
    <glyph glyph-name="six" unicode="6" horiz-adv-x="474" 
d="M171 -16q-81 0 -122.5 53t-41.5 130q0 125 51 238.5t141.5 184.5t196.5 71q55 0 84.5 -24.5t26.5 -62.5q-2 -33 -23.5 -53.5t-48.5 -20.5q-23 0 -36.5 15t-12.5 36q1 45 44 58q18 5 18 9q0 9 -12 17t-34 8q-44 0 -83.5 -28t-68.5 -75.5t-50 -99.5t-36 -111q16 31 49 51
t74 20q62 0 103 -39t41 -104q0 -102 -75.5 -187.5t-184.5 -85.5zM179 3q32 -2 57 23.5t40 67.5t23 88t10 92q2 56 -13 79t-36 23q-48 0 -91 -69.5t-46 -196.5q-3 -103 56 -107z" />
    <glyph glyph-name="seven" unicode="7" horiz-adv-x="445" 
d="M137 -14q-32 0 -52 24t-9 64q46 183 351 468h-189q-74 0 -110.5 -31t-72.5 -123h-20l76 259h393l-19 -74q-124 -114 -177 -198.5t-73 -204.5q-5 -29 -7.5 -67.5t-4.5 -50.5q-6 -33 -30 -49.5t-56 -16.5z" />
    <glyph glyph-name="eight" unicode="8" horiz-adv-x="473" 
d="M183 -15q-96 0 -150 45t-52 111q1 65 48 109t126 76q-91 75 -85 161q6 81 70.5 128.5t150.5 47.5q77 0 128.5 -37.5t47.5 -99.5q-5 -88 -156 -159q113 -76 108 -172q-5 -87 -71 -148.5t-165 -61.5zM292 380q33 29 54 73.5t20 86.5q-1 49 -24 77t-59 28q-49 0 -81.5 -32
t-36.5 -79q-7 -74 98 -136q20 -12 29 -18zM192 3q55 0 90.5 36t38.5 89q2 29 -5.5 52t-26 42.5t-36.5 33.5t-49 34q-5 3 -15.5 10l-16.5 11q-37 -35 -61 -83t-25 -100q-1 -53 23.5 -89t82.5 -36z" />
    <glyph glyph-name="nine" unicode="9" horiz-adv-x="478" 
d="M74 -15q-54 0 -82.5 23t-28.5 60q0 33 21.5 55.5t48.5 22.5q23 0 37 -15t14 -36q0 -22 -12.5 -36.5t-32.5 -18.5q-8 -2 -12 -4.5t-4.5 -3.5t-0.5 -4q0 -9 12 -17t34 -8q44 0 83.5 28t68.5 75.5t50 99.5t36 111q-16 -31 -49 -51t-74 -20q-62 0 -103 39t-41 104
q0 102 74 187t182 85q81 0 124.5 -53t43.5 -129q0 -125 -51 -238.5t-141.5 -184.5t-196.5 -71zM210 270q48 0 92.5 72t44.5 194q0 48 -15.5 77.5t-40.5 29.5q-33 0 -58.5 -25.5t-40 -67.5t-22 -86.5t-9.5 -91.5q-2 -56 13 -79t36 -23z" />
    <glyph glyph-name="colon" unicode=":" horiz-adv-x="225" 
d="M111 263q-28 0 -48.5 20t-20.5 48t20.5 48.5t48.5 20.5q27 0 47.5 -20.5t20.5 -48.5t-20.5 -48t-47.5 -20zM38 -10q-28 0 -48.5 20t-20.5 48t20.5 48.5t48.5 20.5q27 0 47.5 -20.5t20.5 -48.5t-20.5 -48t-47.5 -20z" />
    <glyph glyph-name="semicolon" unicode=";" horiz-adv-x="225" 
d="M111 263q-28 0 -48.5 20t-20.5 48t20.5 48.5t48.5 20.5q27 0 47.5 -20.5t20.5 -48.5t-20.5 -48t-47.5 -20zM-51 -183l-12 18q48 26 92 72.5t44 77.5q0 5 -1 7.5t-4 2t-6.5 -1.5t-10 -2t-12.5 -1q-30 0 -50.5 18.5t-20.5 46.5q0 30 17.5 49t46.5 19q32 0 55 -24t23 -64
q0 -121 -161 -218z" />
    <glyph glyph-name="less" unicode="&#x3c;" horiz-adv-x="486" 
d="M433 137l-381 180v26l381 180v-47l-319 -147l319 -144v-48z" />
    <glyph glyph-name="equal" unicode="=" horiz-adv-x="486" 
d="M61 403v44h364v-44h-364zM61 202v44h364v-44h-364z" />
    <glyph glyph-name="greater" unicode="&#x3e;" horiz-adv-x="486" 
d="M52 137v48l319 144l-319 147v47l381 -180v-26z" />
    <glyph glyph-name="question" unicode="?" horiz-adv-x="413" 
d="M128 208l1 7q15 68 35 107.5t62 78.5q77 72 77 176q0 48 -21 72.5t-57 24.5q-39 0 -69.5 -20t-36.5 -40q-2 -6 -2 -8t1 -2t5.5 1t8.5 1q21 0 36.5 -16.5t15.5 -39.5q0 -25 -16.5 -41.5t-41.5 -16.5q-24 0 -40.5 18t-16.5 47q1 60 53 98t134 38q86 0 138 -34.5t52 -97.5
q0 -33 -12 -60.5t-37.5 -50t-42.5 -33.5t-48 -29q-32 -18 -49 -29t-43 -33t-43.5 -50t-27.5 -64l-1 -4h-14zM109 -10q-28 0 -48.5 20t-20.5 48t20.5 48.5t48.5 20.5q27 0 47.5 -20.5t20.5 -48.5t-20.5 -48t-47.5 -20z" />
    <glyph glyph-name="at" unicode="@" horiz-adv-x="844" 
d="M439 -154q-76 0 -145.5 24t-125.5 69.5t-89 120t-33 167.5q0 118 58.5 216.5t153 152.5t200.5 54q144 0 242 -84t98 -229q0 -120 -62.5 -201.5t-145.5 -81.5q-100 0 -107 90h-4q-48 -90 -127 -90q-61 0 -100.5 43t-39.5 114q0 97 62 167.5t144 70.5q87 0 105 -92h5l17 87
h124l-75 -283q-18 -71 32 -71q55 0 104 70.5t49 175.5q0 137 -91.5 216.5t-229.5 79.5q-113 0 -204.5 -60t-139.5 -152t-48 -193q0 -90 31.5 -161t85 -114t120 -65.5t140.5 -22.5q154 0 276 96l11 -15q-136 -99 -291 -99zM384 82q40 0 79 74.5t43 147.5q2 45 -11.5 78.5
t-40.5 33.5q-42 0 -81 -79t-39 -173q0 -82 50 -82z" />
    <glyph glyph-name="A" unicode="A" horiz-adv-x="656" 
d="M-82 0l5 18q43 7 64 24t54 71l357 588h38l63 -613q4 -41 16.5 -54t56.5 -16l-5 -18h-316l5 18h29q49 0 63 22t9 79l-10 108h-206l-44 -77q-40 -69 -40 -97q0 -35 46 -35h19l-5 -18h-199zM157 253h188l-25 277z" />
    <glyph glyph-name="B" unicode="B" horiz-adv-x="613" 
d="M-71 0l5 18h29q35 0 52.5 14.5t25.5 46.5l131 526q15 61 -49 61h-29l5 18h289q109 0 162.5 -42t44.5 -123q-7 -67 -72 -110t-160 -54v-3q81 -2 137.5 -50.5t47.5 -118.5q-11 -87 -92.5 -135t-209.5 -48h-317zM253 363h35q75 0 112 38t51 111q5 28 5 50q0 103 -66 103h-4
q-58 0 -73 -60zM231 19h4q73 0 114.5 47t52.5 123q3 23 3 44q0 108 -116 108h-42l-66 -263q-15 -59 50 -59z" />
    <glyph glyph-name="C" unicode="C" horiz-adv-x="596" 
d="M265 -16q-113 0 -179.5 82.5t-66.5 210.5q0 58 19 121q41 140 143.5 218t215.5 78q44 0 67.5 -9.5t58.5 -36.5q17 -13 33 -13q25 0 52 53h13l-60 -276h-19q24 258 -131 258q-76 0 -138 -91.5t-89 -226.5q-19 -93 -19 -162q0 -81 28 -130.5t90 -49.5q69 0 133 65.5
t101 174.5h24q-91 -266 -276 -266z" />
    <glyph glyph-name="D" unicode="D" horiz-adv-x="680" 
d="M-71 0l5 18h29q35 0 52.5 14t25.5 48l130 524q16 62 -48 62h-29l5 18h314q105 0 175 -71t70 -193q0 -102 -33 -183.5t-89.5 -132t-130.5 -77.5t-158 -27h-318zM233 19h13q72 0 132.5 68t93.5 172t33 214q0 94 -32 143t-75 49h-6q-63 0 -78 -61l-130 -524
q-8 -32 3.5 -46.5t45.5 -14.5z" />
    <glyph glyph-name="E" unicode="E" horiz-adv-x="610" 
d="M-71 0l5 18h29q34 0 52 14.5t26 46.5l131 526q8 31 -3 46t-43 15h-32l5 18h530l-54 -257h-19q16 131 -13.5 184.5t-132.5 53.5h-18q-34 0 -51.5 -14t-25.5 -46l-60 -239h10q59 0 94 17t52.5 45.5t33.5 83.5h18l-80 -322h-18q19 88 -7.5 121t-98.5 33h-10l-66 -265
q-15 -60 49 -60h31q99 0 161 65t115 194h18l-87 -278h-541z" />
    <glyph glyph-name="F" unicode="F" horiz-adv-x="589" 
d="M-71 0l5 18h29q34 0 52 14t26 47l131 526q8 32 -3 46.5t-44 14.5h-31l5 18h538l-56 -262h-19q18 120 -14 181.5t-132 61.5h-23q-34 0 -52 -14t-26 -46l-61 -245h14q87 0 122 33t58 115h19l-81 -327h-19q9 44 10.5 79t-25.5 56.5t-86 21.5h-17l-66 -259q-15 -61 50 -61h45
l-5 -18h-344z" />
    <glyph glyph-name="G" unicode="G" horiz-adv-x="639" 
d="M236 -9q-95 0 -158 77t-60 209q4 171 113 294t256 123q77 0 135 -46q17 -13 35 -13q28 0 54 58h15l-60 -273h-19q-11 251 -153 251q-66 0 -119 -67.5t-80.5 -172t-29.5 -223.5q-2 -93 20.5 -143t82.5 -50q53 0 78.5 34t39.5 93l23 93q9 34 -2 46.5t-46 12.5h-33l5 18h299
l-5 -18h-5q-37 0 -53.5 -12t-25.5 -47l-59 -242h-19q-2 30 -14.5 51.5t-25.5 21.5q-7 0 -15 -4.5t-22 -14.5l-13 -10q-64 -46 -139 -46z" />
    <glyph glyph-name="H" unicode="H" horiz-adv-x="725" 
d="M-71 0l5 18h29q63 0 78 61l130 523q16 64 -48 64h-29l5 18h326l-5 -18h-30q-60 0 -75 -61l-61 -246h229l61 243q16 64 -47 64h-30l5 18h325l-5 -18h-30q-33 0 -50.5 -14t-25.5 -45l-131 -528q-6 -25 5.5 -43t42.5 -18h28l-5 -18h-325l5 18h30q62 0 77 61l63 254h-229
l-64 -254q-15 -57 49 -60l28 -1l-5 -18h-326z" />
    <glyph glyph-name="I" unicode="I" horiz-adv-x="355" 
d="M-65 0l5 18h22q35 0 52 12.5t26 47.5l132 526q9 36 -1.5 49t-45.5 13h-23l5 18h314l-5 -18h-22q-35 0 -52.5 -13t-26.5 -49l-132 -526q-9 -35 2.5 -47.5t45.5 -12.5h22l-5 -18h-313z" />
    <glyph glyph-name="J" unicode="J" horiz-adv-x="529" 
d="M127 -10q-83 0 -120 32.5t-37 81.5q0 47 26.5 82.5t67.5 35.5q28 0 46 -19t18 -46q0 -29 -17.5 -47.5t-44.5 -18.5q-21 0 -38 11t-21 11q-12 0 -12 -19q0 -32 26 -54t72 -22q104 0 144 159l106 428q15 61 -51 61h-35l5 18h337l-5 -18h-29q-65 0 -80 -61l-99 -402
q-53 -213 -259 -213z" />
    <glyph glyph-name="K" unicode="K" horiz-adv-x="712" 
d="M-71 0l5 18h29q63 0 78 61l131 526q8 31 -3.5 46t-47.5 15h-27l5 18h326l-5 -18h-26q-64 0 -79 -61l-76 -300l227 229q8 8 25 25.5t24 24.5t17 18t14 18.5t5 14.5q5 31 -53 31h-11l5 18h224l-5 -18q-65 0 -151 -82l-143 -137l140 -368q23 -61 72 -61h9l-5 -18h-302l5 18
h11q49 0 56 28q3 12 -5 34l-94 255l-74 -67l-47 -189q-15 -61 49 -61h28l-5 -18h-326z" />
    <glyph glyph-name="L" unicode="L" horiz-adv-x="587" 
d="M-71 0l5 18h29q63 0 78 61l131 526q8 31 -3 46t-48 15h-27l5 18h343l-5 -18h-37q-38 0 -57.5 -14.5t-27.5 -46.5l-132 -526q-15 -60 49 -60h30q57 0 99.5 17.5t74 56.5t52.5 83t46 115h18l-90 -291h-533z" />
    <glyph glyph-name="M" unicode="M" horiz-adv-x="829" 
d="M255 -11l-50 626h-4l-117 -473q-18 -68 -3.5 -96t69.5 -28h4l-5 -18h-230l5 18h12q49 0 76.5 28t44.5 96l115 463q15 61 -56 61h-24l5 18h243l36 -500l287 500h242l-5 -18h-28q-65 0 -80 -61l-129 -526q-16 -61 48 -61h29l-5 -18h-326l5 18h39q32 0 45.5 13t22.5 48
l133 536h-4l-360 -626h-35z" />
    <glyph glyph-name="N" unicode="N" horiz-adv-x="670" 
d="M432 -10l-234 593l-109 -442q-18 -67 -4 -95t70 -28h4l-5 -18h-230l5 18h13q49 0 75.5 28t43.5 95l119 475q-32 49 -95 50l5 18h219l191 -488l86 346q8 33 8 56t-3.5 35t-16 19.5t-20 9t-24.5 3.5q-5 1 -8 1h-3l5 18h228l-5 -18h-7q-57 0 -83 -27t-43 -97l-137 -552h-45z
" />
    <glyph glyph-name="O" unicode="O" horiz-adv-x="643" 
d="M258 -16q-105 0 -172 81.5t-67 209.5q0 105 44.5 201t131.5 160t197 64q92 0 161.5 -82t69.5 -206q0 -60 -16 -121t-47.5 -116t-74.5 -97.5t-102 -68t-125 -25.5zM250 3q35 0 64.5 18t50.5 46t39.5 70.5t30.5 82.5t24 92q30 131 30 222q0 147 -97 147q-135 0 -207 -309
q-32 -137 -32 -219q-1 -150 97 -150z" />
    <glyph glyph-name="P" unicode="P" horiz-adv-x="591" 
d="M-72 0l5 18h29q34 0 52 14.5t26 46.5l132 525q8 32 -3.5 47t-47.5 15h-27l5 18h289q110 0 169.5 -51t59.5 -127q0 -104 -94.5 -162.5t-234.5 -58.5h-53l-53 -206q-16 -61 54 -61h40l-5 -18h-343zM240 307h56q81 0 119.5 42.5t53.5 141.5q8 51 8 84q-1 50 -19.5 69.5
t-59.5 19.5h-7q-34 0 -51.5 -14.5t-25.5 -45.5z" />
    <glyph glyph-name="Q" unicode="Q" horiz-adv-x="643" 
d="M385 -198q-40 0 -61 29t-21 80q0 33 11 79q-30 -6 -62 -6q-96 0 -164 84t-69 204q0 22 6 68q21 148 122 254t245 106q96 0 163 -85t68 -209q0 -34 -4 -62q-17 -114 -82.5 -207t-164.5 -131v-17q1 -68 48 -68q25 0 50 20t39 64h19q-11 -45 -21.5 -76t-27 -63t-40.5 -48
t-54 -16zM181 21l2 2q-20 28 -18 70q2 47 32 86.5t84 39.5q41 0 68.5 -29.5t28.5 -95.5v-18q50 86 87 264q25 118 25 193q0 148 -96 148q-70 0 -120.5 -74.5t-94.5 -262.5q-31 -134 -29 -206q1 -81 31 -117zM250 3q41 0 73 19q15 53 15 97q0 37 -16 57t-44 20
q-43 0 -69 -35.5t-26 -86.5q0 -34 17.5 -52.5t49.5 -18.5z" />
    <glyph glyph-name="R" unicode="R" horiz-adv-x="642" 
d="M435 -18q-106 0 -105 140q0 23 3 50q10 90 -8.5 118.5t-70.5 28.5h-10l-61 -241q-7 -30 4.5 -45t48.5 -15h32l-5 -18h-335l5 18h29q63 0 78 60l132 528q15 60 -52 60h-25l5 18h294q94 0 149 -43.5t55 -118.5q0 -80 -74.5 -132.5t-197.5 -62.5v-1q43 -12 73.5 -46.5
t52.5 -105.5q3 -8 9 -30t9.5 -31t10 -22t14.5 -18.5t19 -5.5q34 0 54 73h16q-16 -81 -56.5 -119.5t-92.5 -38.5zM249 341h34q68 0 112 44t58 131q5 29 5 59q0 89 -69 89h-7q-54 0 -68 -59z" />
    <glyph glyph-name="S" unicode="S" horiz-adv-x="509" 
d="M213 -11q-47 0 -76.5 11t-66.5 35q-24 15 -35 15q-30 0 -56 -59h-12l58 262h17q-3 -245 171 -245q58 0 97 34t39 93q0 42 -32.5 78.5t-109.5 78.5q-119 65 -119 184q0 107 62.5 162.5t159.5 55.5q63 0 130 -43q22 -14 33 -14q24 0 51 57h15l-56 -262h-18
q3 120 -39.5 181.5t-114.5 61.5q-62 0 -89.5 -32.5t-26.5 -80.5q1 -46 26 -77t81 -64q81 -49 114 -93t33 -107q0 -103 -65.5 -167.5t-170.5 -64.5z" />
    <glyph glyph-name="T" unicode="T" horiz-adv-x="607" 
d="M39 0l5 18h40q38 0 56.5 14t26.5 47l147 587h-14q-51 0 -88 -16t-66 -54t-49 -78.5t-48 -112.5h-20l80 279h559l-58 -279h-20q10 86 10 144t-30.5 87.5t-101.5 29.5h-12l-147 -587q-15 -61 49 -61h45l-5 -18h-359z" />
    <glyph glyph-name="U" unicode="U" horiz-adv-x="668" 
d="M276 -10q-114 0 -167.5 50t-53.5 133q0 32 9 65l91 368q14 60 -53 60h-20l5 18h322l-5 -18h-28q-65 0 -79 -60l-92 -379q-7 -28 -7 -65q0 -122 120 -122q77 0 121.5 48.5t68.5 147.5l76 305q17 65 2.5 95t-69.5 30h-2l5 18h224l-5 -18h-4q-52 0 -79 -28.5t-44 -96.5
l-78 -312q-14 -56 -31 -95t-45.5 -74t-74 -52.5t-107.5 -17.5z" />
    <glyph glyph-name="V" unicode="V" horiz-adv-x="665" 
d="M221 -18l-62 607q-5 44 -17.5 59.5t-52.5 17.5l5 18h313l-5 -18h-25q-47 0 -64 -26.5t-12 -85.5l37 -408l218 370q50 82 50 115q0 18 -11 26.5t-40 8.5h-13l5 18h196l-5 -18q-41 -6 -62.5 -24.5t-56.5 -75.5l-355 -584h-43z" />
    <glyph glyph-name="W" unicode="W" horiz-adv-x="924" 
d="M196 -18l-31 594q-3 55 -16 71.5t-60 18.5l5 18h291l-5 -18h-6q-48 0 -59.5 -18t-9.5 -78l15 -383l161 286l-6 111q-3 49 -17 64.5t-55 17.5l5 18h307l-5 -18h-26q-47 0 -59.5 -19t-10.5 -75l17 -393l182 328q51 90 51 125t-50 35h-15l5 17h198l-5 -17q-47 -6 -69.5 -27
t-55.5 -79l-326 -579h-39l-23 450l-254 -450h-34z" />
    <glyph glyph-name="X" unicode="X" horiz-adv-x="683" 
d="M-74 0l5 18q49 4 76 23t79 78l188 214l-108 271q-8 20 -13 30t-19.5 21t-34.5 11h-5l5 18h291l-5 -18h-25q-23 0 -38.5 -8t-15.5 -22q0 -17 5 -30l79 -204l127 151q53 63 53 86q0 27 -50 27h-16l5 18h213l-5 -18q-47 -4 -75.5 -22.5t-79.5 -77.5l-163 -187l119 -299
q7 -19 12.5 -30t20 -21.5t34.5 -10.5h6l-5 -18h-295l5 18h29q55 0 55 28q0 14 -7 32l-90 232l-154 -179q-50 -58 -50 -84q0 -29 52 -29h18l-5 -18h-218z" />
    <glyph glyph-name="Y" unicode="Y" horiz-adv-x="653" 
d="M92 0l5 18h38q33 0 51 17t27 54l50 202l-101 313q-6 19 -12 30.5t-22 21.5t-40 10h-4l5 18h307l-5 -18h-25q-65 0 -48 -61l80 -276l169 225q45 60 45 84q0 28 -56 28h-15l5 18h190l-5 -18q-35 -5 -56 -24t-66 -77q-8 -11 -13 -17l-191 -245l-54 -214q-10 -39 -0.5 -55
t45.5 -16h41l-5 -18h-340z" />
    <glyph glyph-name="Z" unicode="Z" horiz-adv-x="594" 
d="M-53 0l7 28l521 638h-139q-100 0 -150.5 -49t-96.5 -183h-20l71 250h493l-5 -28l-522 -638h155q96 0 146 56t101 197h22l-83 -271h-500z" />
    <glyph glyph-name="bracketleft" unicode="[" horiz-adv-x="308" 
d="M-52 -130l203 814h233l-5 -16h-111l-193 -782h113l-5 -16h-235z" />
    <glyph glyph-name="backslash" unicode="\" horiz-adv-x="366" 
d="M223 -85l-113 774h40l112 -774h-39z" />
    <glyph glyph-name="bracketright" unicode="]" horiz-adv-x="307" 
d="M-108 -130l5 16h111l193 782h-113l5 16h235l-203 -814h-233z" />
    <glyph glyph-name="asciicircum" unicode="^" horiz-adv-x="459" 
d="M88 407l-11 6l141 274h59l141 -274l-11 -6l-160 189z" />
    <glyph glyph-name="underscore" unicode="_" horiz-adv-x="425" 
d="M-113 -106l9 32h427l-9 -32h-427z" />
    <glyph glyph-name="grave" unicode="`" 
d="M352 483l-137 60q-42 19 -42 52q0 15 14 30.5t34 15.5q33 0 57 -34l81 -117z" />
    <glyph glyph-name="a" unicode="a" horiz-adv-x="519" 
d="M111 -6q-55 0 -91 38.5t-36 116.5q0 117 75.5 203.5t173.5 86.5q87 0 107 -101h5q45 43 84 106h33l-88 -304q-15 -51 -15 -64q0 -27 21 -27q34 0 84 83l14 -10q-65 -128 -155 -128q-74 0 -74 65q0 21 5 41h-1q-49 -106 -142 -106zM150 32q37 0 74 54.5t58 132.5
q15 57 15 117q0 36 -14.5 57.5t-35.5 21.5q-82 0 -127 -202q-13 -59 -13 -105q0 -76 43 -76z" />
    <glyph glyph-name="b" unicode="b" horiz-adv-x="479" 
d="M169 -8q-76 0 -118 41.5t-42 109.5q0 41 14 91l108 378q7 26 7 33q-1 14 -10.5 18.5t-32.5 4.5h-20l5 17l200 19l-70 -244q-24 -78 -41 -124h4q59 102 139 102q51 0 84 -38t33 -112q0 -119 -72.5 -207.5t-187.5 -88.5zM169 16q39 0 75 55.5t55 141.5q13 61 13 103
q0 82 -41 82q-34 0 -78 -62t-62 -143q-12 -53 -12 -90q0 -40 13 -63.5t37 -23.5z" />
    <glyph glyph-name="c" unicode="c" horiz-adv-x="425" 
d="M143 -8q-66 0 -108.5 46t-42.5 117q0 109 84.5 198.5t190.5 89.5q69 0 100.5 -32t31.5 -83q0 -30 -17.5 -48.5t-40.5 -18.5t-38.5 16t-15.5 38q0 24 17 39.5t37 15.5q4 0 8.5 -0.5t6.5 -1t4 0t2.5 2t0.5 5.5q0 17 -19.5 30t-46.5 13q-79 0 -128.5 -85.5t-49.5 -183.5
q0 -113 78 -113q73 0 145 97l15 -13q-93 -129 -214 -129z" />
    <glyph glyph-name="d" unicode="d" horiz-adv-x="523" 
d="M112 -6q-54 0 -91 39t-37 107q0 129 75.5 214t160.5 85q91 0 99 -117h3q3 21 8.5 50t9.5 48l5 18l50 174q7 24 7 33q-1 14 -10.5 18.5t-33.5 4.5h-28l5 17l205 18l-164 -569q-15 -55 -15 -62q0 -26 21 -26q34 0 86 86l14 -10q-29 -58 -71.5 -93t-87.5 -35q-70 0 -74 65
q-1 22 5 41h-1q-22 -49 -59 -77.5t-82 -28.5zM151 32q47 0 96.5 92.5t51.5 182.5q1 51 -15 75.5t-41 24.5q-32 0 -66.5 -50t-55.5 -139q-14 -58 -14 -104q-1 -82 44 -82z" />
    <glyph glyph-name="e" unicode="e" horiz-adv-x="424" 
d="M144 -8q-67 0 -110 45t-42 119q2 111 88 199t196 88q52 0 82.5 -26t30.5 -66q0 -25 -10.5 -46.5t-33 -37.5t-45 -28t-58 -22t-59 -16t-61.5 -14q-3 -24 -3 -34q0 -121 68 -121q35 0 75.5 24t75.5 74l15 -12q-88 -126 -209 -126zM124 207q82 19 121 55t41 96q3 64 -38 64
q-38 0 -75 -62.5t-49 -152.5z" />
    <glyph glyph-name="f" unicode="f" horiz-adv-x="316" 
d="M-118 -206q-38 0 -61 19t-23 45t17 42t38 16q52 0 52 -60q0 -7 -1.5 -14.5t-2.5 -11.5t-1.5 -7t1.5 -4.5t7 -1.5q15 0 33.5 39.5t31.5 95.5l107 454h-63l5 20h63l11 50q15 66 41 112t59 68.5t62.5 31.5t61.5 9q51 0 79.5 -21t28.5 -54q0 -27 -17 -48.5t-44 -21.5
q-22 0 -36.5 14.5t-14.5 35.5t12.5 39t12.5 22q0 15 -17 15q-52 0 -92 -162l-22 -90h100l-5 -20h-99l-56 -225q-29 -117 -60.5 -195.5t-65.5 -119t-67.5 -56.5t-74.5 -16z" />
    <glyph glyph-name="g" unicode="g" horiz-adv-x="471" 
d="M125 -206q-101 0 -165 27.5t-64 76.5q0 73 148 82v2q-35 9 -54 30.5t-19 46.5q0 57 97 97q-48 41 -48 112t56.5 123t135.5 52t125 -48q14 24 36 40.5t46 16.5t39 -14t15 -41q0 -20 -12.5 -32.5t-29.5 -12.5q-18 0 -29.5 12.5t-8.5 35.5q2 9 -3 9q-16 0 -37 -31
q30 -41 30 -80q0 -76 -58.5 -127t-136.5 -51q-59 0 -99 21q-34 -13 -34 -35q0 -19 108 -37q98 -16 141 -46t43 -82q0 -72 -64.5 -109.5t-157.5 -37.5zM184 138q40 0 62 62.5t22 134.5q0 90 -45 90q-35 0 -61 -55.5t-26 -130.5q0 -101 48 -101zM129 -188q30 0 61 7.5t57 27
t26 46.5q0 36 -43.5 55t-122.5 19q-55 0 -86.5 -19.5t-31.5 -55.5q0 -38 39 -59t101 -21z" />
    <glyph glyph-name="h" unicode="h" horiz-adv-x="523" 
d="M320 -6q-42 0 -63 21.5t-21 58.5q0 31 13 65l43 115q2 5 8.5 22t10.5 28.5t8 27.5t4 27q0 27 -19 27q-37 0 -93.5 -81t-77.5 -154l-44 -151h-122l174 604q6 20 6 37q0 14 -9.5 20t-36.5 6h-30l5 17l216 20l-70 -243l-58 -183l3 -1q48 79 93 119.5t95 40.5q41 0 62.5 -23
t21.5 -63q0 -35 -25 -98l-41 -106q-21 -54 -21 -75q0 -29 21 -29q32 0 85 89l14 -10q-65 -128 -152 -128z" />
    <glyph glyph-name="i" unicode="i" horiz-adv-x="294" 
d="M179 498q-30 0 -51.5 21.5t-21.5 51.5t21.5 51.5t51.5 21.5t51.5 -21.5t21.5 -51.5t-21.5 -51.5t-51.5 -21.5zM79 -6q-41 0 -60.5 19.5t-19.5 43.5q0 28 13 72l68 224q7 25 7 33q0 24 -44 24h-34l5 17l200 12q0 -51 -24 -128l-54 -175q-15 -45 -15 -64q0 -29 22 -29
q32 0 86 93l15 -11q-66 -131 -165 -131z" />
    <glyph glyph-name="j" unicode="j" horiz-adv-x="253" 
d="M164 498q-30 0 -51.5 21.5t-21.5 51.5t21.5 51.5t51.5 21.5t51.5 -21.5t21.5 -51.5t-21.5 -51.5t-51.5 -21.5zM-122 -206q-45 0 -69 20.5t-24 52.5q0 28 17 47.5t42 19.5q19 0 32 -13.5t13 -31.5t-11 -31t-23 -18q-2 -1 -5 -2t-4.5 -2t-3.5 -2t-2.5 -3t-0.5 -5
q0 -14 25 -14q58 0 87 104l126 437q7 25 7 33q0 24 -44 24h-34l5 17l198 12q0 -52 -22 -128l-89 -308q-28 -94 -86.5 -151.5t-133.5 -57.5z" />
    <glyph glyph-name="k" unicode="k" horiz-adv-x="506" 
d="M312 -6q-45 0 -65.5 20t-19.5 59q1 20 6.5 55.5t5.5 51.5q0 48 -60 48q-3 0 -11 -0.5t-14 -0.5l-28 -103l-36 -124h-121l172 600q6 20 6 41q0 14 -9.5 20t-36.5 6h-30l5 17l216 20l-77 -268l-53 -180q88 3 125 83q27 57 51.5 81t62.5 24q27 0 42 -15t15 -42
q0 -25 -14.5 -40.5t-37.5 -15.5q-21 0 -35.5 13.5t-14.5 37.5q0 7 6 23q-14 -5 -24 -21t-22.5 -42.5t-24.5 -42.5q-29 -40 -84 -53v-2q61 3 100.5 -25t39.5 -77q0 -8 -0.5 -17.5t-1.5 -21.5t-1 -19q-1 -22 4.5 -30.5t20.5 -8.5q34 0 85 88l14 -10q-32 -61 -67 -95t-89 -34z
" />
    <glyph glyph-name="l" unicode="l" horiz-adv-x="288" 
d="M68 -6q-76 0 -76 63q0 25 12 69l138 483q7 25 7 35q0 14 -9.5 19t-33.5 5h-29l5 17l209 18l-160 -564q-15 -52 -15 -67q0 -29 21 -29q33 0 86 89l14 -10q-65 -128 -169 -128z" />
    <glyph glyph-name="m" unicode="m" horiz-adv-x="778" 
d="M575 -6q-42 0 -63 21.5t-21 58.5q0 30 13 65l43 115q1 3 11.5 29t15.5 45t5 34q0 24 -20 24q-37 0 -94.5 -84t-80.5 -159l-43 -143h-119l79 254q28 87 28 108q0 24 -18 24q-38 0 -94.5 -81.5t-78.5 -156.5l-43 -148h-122l108 352q6 20 6 33q0 14 -9.5 20t-36.5 6h-32
l5 17l194 8q0 -49 -27 -128l-11 -30l3 -1q95 160 185 160q36 0 56 -23t20 -62q0 -25 -20 -82l3 -1q50 82 95.5 125t97.5 43q41 0 62.5 -23t21.5 -63q0 -35 -25 -98l-41 -106q-21 -54 -21 -75q0 -29 21 -29q32 0 85 89l14 -10q-65 -128 -152 -128z" />
    <glyph glyph-name="n" unicode="n" horiz-adv-x="529" 
d="M326 -6q-42 0 -63 21.5t-21 58.5q0 31 13 65l43 115q2 5 8.5 22t10.5 28.5t8 27.5t4 27q0 27 -19 27q-37 0 -93.5 -81t-77.5 -154l-44 -151h-122l108 352q6 20 6 33q0 26 -46 26h-32l5 17l194 8q0 -49 -27 -128l-11 -30l3 -1q48 79 93 119.5t95 40.5q41 0 62.5 -23
t21.5 -63q0 -35 -25 -98l-41 -106q-21 -54 -21 -75q0 -29 21 -29q32 0 85 89l14 -10q-65 -128 -152 -128z" />
    <glyph glyph-name="o" unicode="o" horiz-adv-x="472" 
d="M154 -8q-72 0 -120.5 52t-48.5 134q0 79 41 141t101.5 93t126.5 31q72 0 121 -52t49 -133q0 -114 -83.5 -190t-186.5 -76zM151 10q42 0 79 64t55 141.5t18 134.5q0 75 -46 75q-42 0 -79.5 -66.5t-56 -143t-18.5 -126.5q0 -79 48 -79z" />
    <glyph glyph-name="p" unicode="p" horiz-adv-x="501" 
d="M-142 -204l5 18h12q32 0 47 17t27 56l134 465q4 15 4 30q0 30 -47 30h-28l5 17l193 8q1 -23 -23 -107h3q25 48 62 78t80 30q44 0 80.5 -37.5t36.5 -110.5q0 -128 -74 -212t-158 -84q-48 0 -68 24.5t-24 72.5h-2l-24 -100l-28 -106q-11 -36 -4 -53.5t38 -17.5h27l-5 -18
h-269zM195 26q52 0 94 90.5t42 205.5q0 76 -41 76q-33 0 -72.5 -57t-60.5 -133q-20 -67 -11 -124.5t49 -57.5z" />
    <glyph glyph-name="q" unicode="q" horiz-adv-x="498" 
d="M105 -204l4 18h12q34 0 47.5 11.5t23.5 47.5l33 118q18 67 31 97h-4q-52 -94 -134 -94q-69 0 -101.5 43.5t-32.5 112.5q0 115 77.5 202t168.5 87q31 0 53 -9.5t34.5 -29t18 -34t10.5 -38.5h4q74 95 84 113h32l-152 -570q-9 -34 -2 -45.5t40 -11.5h18l-5 -18h-260zM150 28
q33 0 67 46.5t56 111.5t26 124q3 47 -12 76t-42 29q-38 0 -71 -52t-54 -150q-13 -59 -13 -104q-2 -81 43 -81z" />
    <glyph glyph-name="r" unicode="r" horiz-adv-x="419" 
d="M-27 0l109 354q4 16 4 27q0 29 -45 29h-32l5 17l194 10q0 -49 -28 -130l-12 -34l3 -1q47 89 84 129t86 40q33 0 54 -21.5t21 -53.5q0 -35 -19 -56t-46 -21q-25 0 -41 16t-16 41q0 14 4.5 24t9.5 17q3 3 3.5 4.5t-1 2.5t-7.5 1q-35 0 -87.5 -83t-80.5 -176l-41 -136h-121z
" />
    <glyph glyph-name="s" unicode="s" horiz-adv-x="419" 
d="M142 -8q-72 0 -120 35t-48 80q0 27 17.5 45t40.5 18q20 0 36.5 -13.5t16.5 -37.5q0 -18 -10.5 -29t-21 -18t-10.5 -15q0 -17 30 -32t72 -15q46 0 75 19.5t31 49.5q3 32 -19.5 51t-76.5 43q-63 28 -89.5 55.5t-23.5 78.5q4 62 55.5 100t125.5 38q68 0 110.5 -29.5
t42.5 -67.5q0 -25 -14.5 -42t-38.5 -17q-20 0 -35 12.5t-15 33.5q0 19 13 36t13 23q0 15 -23.5 24t-54.5 9q-36 0 -63 -16.5t-29 -45.5t17 -48t77 -44q67 -28 94.5 -62t20.5 -86q-9 -65 -65 -99t-131 -34z" />
    <glyph glyph-name="t" unicode="t" horiz-adv-x="343" 
d="M102 -6q-105 0 -105 83q0 29 10 66l75 263h-70l4 15q77 6 129 40.5t96 134.5h22l-52 -170h123l-5 -20h-125l-78 -268q-8 -27 -8 -54q0 -17 9.5 -28.5t26.5 -11.5q34 0 60 21.5t57 77.5l14 -8q-61 -141 -183 -141z" />
    <glyph glyph-name="u" unicode="u" horiz-adv-x="536" 
d="M81 -6q-41 0 -62.5 23t-21.5 63q0 29 25 99l58 164q8 21 8 43q0 24 -44 24h-34l5 17l201 9q2 -51 -25 -126l-49 -133q-29 -84 -29 -105q0 -27 19 -27q37 0 93.5 78.5t77.5 151.5l44 151h122l-87 -279q-18 -59 -18 -78q0 -26 21 -26q32 0 85 89l14 -10q-65 -128 -155 -128
q-41 0 -59.5 21t-18.5 52q0 22 11 53l10 28l-3 1q-47 -78 -92 -116.5t-96 -38.5z" />
    <glyph glyph-name="v" unicode="v" horiz-adv-x="444" 
d="M131 -8q-58 0 -89 31t-31 84q0 50 25 133l35 112q6 21 6 34q0 24 -44 24h-32l5 17l199 7q0 -42 -26 -126l-20 -62q-29 -103 -29 -135q0 -78 51 -78q39 0 82 45.5t70 106t27 105.5q0 18 -6 28.5t-21.5 21.5t-17.5 13q-25 23 -25 49q0 15 12.5 27.5t29.5 12.5q29 0 45 -26
t16 -69q0 -81 -34.5 -163t-96.5 -137t-131 -55z" />
    <glyph glyph-name="w" unicode="w" horiz-adv-x="691" 
d="M122 -6q-114 0 -114 111q0 39 28 134l35 114q7 25 7 33q0 24 -44 24h-33l5 17l201 7q0 -37 -28 -127l-20 -63q-29 -93 -29 -141q0 -65 48 -65q28 0 55.5 38.5t42.5 91.5l73 260h121l-47 -183q-27 -104 -27 -132q0 -75 57 -75q54 0 104 89t50 163q0 18 -6 28.5t-21.5 21.5
t-17.5 13q-25 23 -25 49q0 15 12.5 27.5t29.5 12.5q29 0 45 -26t16 -69q0 -82 -29 -162.5t-85 -135.5t-125 -55q-60 0 -92 30.5t-32 88.5h-2q-29 -63 -64 -91t-89 -28z" />
    <glyph glyph-name="x" unicode="x" horiz-adv-x="486" 
d="M273 -6q-48 0 -73 34.5t-37 128.5q-38 -87 -71 -125t-76 -38q-24 0 -41.5 16t-17.5 41q0 26 15 41.5t37 15.5q21 0 32 -12.5t11 -31.5q0 -3 -0.5 -8t-0.5 -7t0.5 -5t2.5 -4t5 -1q29 0 100 153q-13 107 -25 145t-30 38q-35 0 -86 -79l-13 12q22 37 33 52.5t30 37t40 29.5
t48 8q42 0 66.5 -31.5t39.5 -126.5q42 89 73.5 124t75.5 35q26 0 43 -17.5t17 -42.5q0 -24 -15 -40.5t-35 -16.5t-33 13t-13 39v6.5v6t-0.5 4t-3 3t-5.5 0.5q-15 0 -42.5 -42.5t-55.5 -109.5q14 -108 24.5 -147.5t32.5 -39.5q27 0 81 81l11 -10q-40 -67 -70.5 -98t-73.5 -31
z" />
    <glyph glyph-name="y" unicode="y" horiz-adv-x="430" 
d="M8 -205q-35 0 -58 20.5t-24 49.5q-1 28 15.5 46t40.5 18q22 0 36 -13t14 -36q0 -12 -8.5 -27t-8.5 -18q0 -13 12 -13q55 0 138 133q-11 129 -52 308q-14 62 -24.5 85.5t-23.5 23.5q-28 0 -77 -76l-13 12q26 46 42 68t44.5 40t66.5 18q44 0 68 -39.5t46 -150.5
q15 -83 21 -130q84 146 84 195q0 13 -16.5 40t-16.5 47q0 17 11.5 31t32.5 14q43 0 43 -62q0 -38 -42 -130.5t-113 -206.5q-94 -152 -137 -199.5t-101 -47.5z" />
    <glyph glyph-name="z" unicode="z" horiz-adv-x="443" 
d="M-13 -6q-28 0 -25 33q6 60 157 163q44 30 97 60.5t78.5 49.5t44.5 46l-3 3q-43 -46 -104 -46q-26 0 -62.5 14.5t-59.5 14.5q-28 0 -53.5 -22t-42.5 -62h-11q8 33 19.5 62t29.5 60t45.5 49t60.5 18q40 0 87 -28.5t85 -28.5q29 0 42 32q11 24 28 24q22 0 19 -28
q-4 -37 -59.5 -86.5t-138.5 -97.5q-111 -65 -144 -93q-13 -11 -23 -23l4 -2q38 25 78 25q27 0 64.5 -15t63.5 -15q83 0 108 90h11q-12 -79 -53 -138t-108 -59q-37 0 -71 17t-60 34t-44 17q-11 0 -18.5 -10.5t-8.5 -22.5q-1 -14 -10.5 -24.5t-22.5 -10.5z" />
    <glyph glyph-name="braceleft" unicode="{" horiz-adv-x="403" 
d="M289 -128h-68q-170 0 -167 105q1 36 29.5 108t31.5 104q4 43 -18 62.5t-78 19.5l4 14q69 -2 104.5 26t49.5 97q5 24 8 77.5t6 68.5q12 74 71.5 102t160.5 28h58l-3 -14q-70 -1 -105.5 -25.5t-48.5 -82.5q-4 -19 -8.5 -75t-10.5 -82q-8 -30 -28 -53t-42.5 -35.5t-56 -21.5
t-54 -11.5t-51.5 -5.5v-2q48 -6 79 -14t56.5 -28.5t26.5 -51.5q2 -40 -26 -110.5t-28 -94.5q-2 -91 111 -91z" />
    <glyph glyph-name="bar" unicode="|" horiz-adv-x="220" 
d="M92 -204v893h36v-893h-36z" />
    <glyph glyph-name="braceright" unicode="}" horiz-adv-x="402" 
d="M93 686h58q170 0 167 -105q-1 -35 -30.5 -106t-30.5 -106q-2 -44 19.5 -63t76.5 -19l-4 -14q-68 1 -105 -28.5t-49 -94.5q-5 -27 -8 -79t-6 -67q-12 -74 -71.5 -102t-160.5 -28h-58l3 14q70 1 105.5 25.5t48.5 82.5q4 19 8.5 75t10.5 82q8 30 28 53t42.5 35.5t56 21.5
t54 11.5t51.5 5.5v2q-48 6 -79 14t-56 28t-27 52q-2 40 26 110.5t28 94.5q1 43 -21 67t-80 24z" />
    <glyph glyph-name="asciitilde" unicode="~" horiz-adv-x="307" 
d="M-2 163l-9 3q25 127 92 127q21 0 64 -10t57 -10q22 0 34 8t22 34l9 -3q-23 -128 -92 -128q-21 0 -64 10.5t-57 10.5q-22 0 -34 -8t-22 -34z" />
    <glyph glyph-name="nbspace" unicode="&#xa0;" horiz-adv-x="115" 
 />
    <glyph glyph-name="exclamdown" unicode="&#xa1;" horiz-adv-x="240" 
d="M169 473q-26 -98 -28 -293q0 -62 -3 -93q-5 -49 -30 -72.5t-61 -23.5q-32 0 -52 18.5t-20 48.5q0 34 50 127q106 201 129 288h15zM201 694q28 0 48.5 -20t20.5 -48t-20.5 -48.5t-48.5 -20.5q-27 0 -47.5 20.5t-20.5 48.5t20.5 48t47.5 20z" />
    <glyph glyph-name="cent" unicode="&#xa2;" horiz-adv-x="429" 
d="M-26 -135l86 145q-81 53 -62 179q16 106 99 179.5t181 73.5q24 0 36 -4l60 101h21l-63 -106q69 -25 69 -105q0 -30 -17.5 -48.5t-40.5 -18.5t-38.5 16t-15.5 38q0 25 17 40t39 15q4 0 9 -1t6.5 -1t3 1.5t1.5 6.5q0 14 -12.5 24.5t-31.5 14.5l-193 -332q18 -53 71 -53
q73 0 145 97l15 -13q-91 -129 -216 -129q-36 0 -68 16l-81 -136h-20zM123 110l179 308h-3q-62 0 -104.5 -52.5t-61.5 -133.5q-17 -70 -10 -122z" />
    <glyph glyph-name="sterling" unicode="&#xa3;" horiz-adv-x="481" 
d="M28 -9q-38 0 -60.5 20t-22.5 55q0 42 26 65t70 23q30 0 105 -27q15 42 15 90q0 46 -18 100v0v0h-1v0h-1h-1h-1h-1h-1h-1h-1h-1h-1h-1h-1h-1h-1h-1h-1h-1h-1h-1h-1h-1h-1h-2h-1h-1h-1h-1h-2h-1h-1h-1h-2h-1h-1h-2h-1h-2h-1h-1h-2h-1h-2h-1h-2h-1h-2h-1h-2h-1h-2h-2h-1h-2
h-1h-2h-2h-1h-2h-2h-1h-2h-2h-2h-1h-2h-2h-2h-1h-10l6 24h87q-21 65 -21 105q0 101 67 158t177 57q64 0 103.5 -34t36.5 -83q-3 -45 -25.5 -65t-49.5 -20q-24 0 -38.5 16t-14.5 38q0 25 16.5 41.5t39.5 16.5q9 0 18.5 -4.5t12.5 -3.5t3 12q0 25 -24.5 46.5t-64.5 21.5
q-62 0 -87.5 -42t-27.5 -132q0 -16 1 -35.5t3.5 -46.5t3.5 -46h129l-6 -24h-122q1 -10 1 -30q0 -88 -67 -179q35 -11 69 -11q121 0 146 109h13q-10 -104 -58 -158.5t-113 -54.5q-58 0 -109 57q-66 -59 -119 -59zM25 10q57 0 98 68q-16 18 -26.5 28t-28 18.5t-36.5 8.5
q-30 0 -47.5 -18t-17.5 -44q0 -27 16 -44t42 -17z" />
    <glyph glyph-name="currency" unicode="&#xa4;" horiz-adv-x="479" 
d="M228 -15q-101 0 -149.5 73t-32.5 200h-58l6 23h56q7 49 20 87h-54l7 24h55q43 122 126 196.5t192 74.5q65 0 102.5 -30t35.5 -83q-2 -44 -23 -67.5t-48 -23.5q-26 0 -40.5 14t-13.5 38q1 26 19 41.5t40 19.5q3 0 7.5 1t6.5 1t5.5 1t5 2.5t3 3.5t2 5.5t0.5 7.5
q0 19 -25 34t-56 15q-69 0 -122.5 -70t-86.5 -181h178l-7 -24h-178q-11 -39 -19 -87h178l-6 -23h-176q-10 -73 -11 -127.5t20.5 -86.5t67.5 -32t87.5 35t68.5 96h20q-31 -78 -84 -118t-119 -40z" />
    <glyph glyph-name="yen" unicode="&#xa5;" horiz-adv-x="643" 
d="M87 0l5 18h38q33 0 51 17t27 54l43 177h-147l7 25h144l-31 105h-87l7 25h72l-47 147q-9 30 -24.5 46t-49.5 16h-4l5 18h306l-5 -18h-25q-48 0 -51 -33q-2 -12 3 -28l69 -240l142 189q45 60 45 84q0 28 -56 28h-15l5 18h190l-5 -18q-9 -1 -16.5 -3t-15 -6t-13 -6.5
t-13 -10l-12 -12t-14 -15.5t-14.5 -17.5t-17.5 -22.5t-19.5 -25l-71 -90h105l-7 -25h-118l-73 -94l-4 -12h169l-7 -25h-168l-44 -177q-10 -39 -0.5 -55t45.5 -16h41l-5 -18h-340z" />
    <glyph glyph-name="brokenbar" unicode="&#xa6;" horiz-adv-x="200" 
d="M82 316v373h36v-373h-36zM82 -204v374h36v-374h-36z" />
    <glyph glyph-name="section" unicode="&#xa7;" horiz-adv-x="474" 
d="M162 -14q-63 0 -94 27t-31 61q0 28 16 47.5t41 19.5q19 0 31.5 -13.5t12.5 -32.5q0 -38 -39 -48q-22 -5 -16 -16q6 -10 26 -18.5t46 -8.5q81 0 88 58q4 33 -14 55.5t-90 56.5q-51 24 -77 56.5t-26 61.5t9 56q29 70 130 86q-57 58 -28 140q32 87 167 87q63 0 96 -26
t33 -61q0 -29 -14.5 -45t-36.5 -16t-35.5 13t-13.5 32q0 35 35 47q18 6 18 10q0 2 -1 4q-5 9 -27 16.5t-52 7.5q-67 0 -82 -55q-18 -68 73 -101q48 -18 79 -42t42.5 -49.5t12 -49t-9.5 -47.5q-14 -35 -50 -57.5t-81 -28.5q55 -59 29 -140q-13 -38 -53.5 -62.5t-113.5 -24.5z
M285 227q52 10 63 47q10 32 -11 55.5t-83 51.5q-39 18 -63 39q-52 -10 -63 -47q-10 -32 11 -55.5t83 -51.5q36 -16 63 -39z" />
    <glyph glyph-name="dieresis" unicode="&#xa8;" 
d="M387 484q-24 0 -42 18t-18 42t18 41.5t42 17.5q25 0 42 -17.5t17 -41.5t-17.5 -42t-41.5 -18zM221 484q-24 0 -42 18t-18 42t18 41.5t42 17.5t41.5 -17.5t17.5 -41.5t-17.5 -42t-41.5 -18z" />
    <glyph glyph-name="copyright" unicode="&#xa9;" horiz-adv-x="734" 
d="M367 -16q-140 0 -235.5 103t-95.5 255q0 151 96 254.5t235 103.5t235 -103.5t96 -254.5t-96 -254.5t-235 -103.5zM367 2q133 0 221.5 97t88.5 243t-88.5 243t-221.5 97t-221.5 -97t-88.5 -243t88.5 -243t221.5 -97zM374 134q-86 0 -139.5 60.5t-53.5 149.5q0 92 56 151.5
t144 59.5q33 0 69 -21q15 -10 23 -10q22 0 29 31h11l5 -175h-15q-19 78 -51.5 117.5t-73.5 39.5q-40 0 -60.5 -54.5t-20.5 -135.5t22 -133.5t71 -52.5t78.5 32.5t42.5 107.5h16q-23 -167 -153 -167z" />
    <glyph glyph-name="ordfeminine" unicode="&#xaa;" horiz-adv-x="383" 
d="M135 332q-42 0 -68 27.5t-25 81.5q2 87 60.5 150.5t127.5 63.5q65 0 70 -80h2q41 46 62 83h25l-65 -228q-5 -17 -5 -34t12 -17q22 0 56 55l9 -6q-21 -43 -51 -68t-62 -25q-46 0 -46 45q0 20 7 37h-1q-41 -85 -108 -85zM11 240l5 20h346l-5 -20h-346zM168 362q24 0 47 33
t37 83q11 41 14 89q3 72 -30 72q-34 0 -64.5 -66t-33.5 -151q-1 -28 7.5 -44t22.5 -16z" />
    <glyph glyph-name="guillemotleft" unicode="&#xab;" horiz-adv-x="448" 
d="M328 0l-196 225l309 224h13l-188 -230l75 -219h-13zM164 0l-196 225l309 224h13l-188 -230l75 -219h-13z" />
    <glyph glyph-name="logicalnot" unicode="&#xac;" horiz-adv-x="758" 
d="M570 356q-75 0 -126.5 55.5t-51.5 136.5q0 60 34.5 102.5t81.5 42.5q31 0 53 -20t22 -47q0 -18 -12.5 -32.5t-30.5 -14.5t-31.5 13.5t-13.5 30.5q0 15 9 35q9 18 5 19q-2 1 -5 0q-18 -4 -31 -25t-13 -52q0 -63 47.5 -114t105.5 -51q29 0 49.5 11t22.5 31q1 8 -1 9
q-2 0 -12 -9q-13 -11 -33 -11q-16 0 -28.5 14.5t-12.5 34.5t13.5 33.5t30.5 13.5q25 0 43.5 -24t18.5 -57q0 -51 -39.5 -88t-94.5 -37zM188 356q-55 0 -94.5 37t-39.5 88q0 33 18.5 57t43.5 24q17 0 30.5 -13.5t13.5 -33.5t-12.5 -34.5t-28.5 -14.5q-20 0 -33 11l-3 3
q-10 11 -10 1v-4q2 -20 22.5 -31t49.5 -11q58 0 105.5 51t47.5 114q0 31 -13 52t-31 25q-4 1 -6 0t-1.5 -3.5t1.5 -5t3.5 -6t2.5 -4.5q9 -20 9 -35q0 -17 -13.5 -30.5t-31.5 -13.5t-30.5 14.5t-12.5 32.5q0 27 22 47t53 20q47 0 81.5 -42.5t34.5 -102.5q0 -81 -51.5 -136.5
t-126.5 -55.5zM508 -9q-47 0 -81.5 42.5t-34.5 102.5q0 81 51.5 136.5t126.5 55.5q55 0 94.5 -37t39.5 -88q0 -33 -18.5 -57t-43.5 -24q-17 0 -30.5 13.5t-13.5 33.5t12.5 34.5t28.5 14.5q20 0 33 -11l3 -3q10 -11 10 -1v4q-2 20 -22.5 31t-49.5 11q-58 0 -105.5 -51
t-47.5 -114q0 -31 13 -52t31 -25q11 -3 3 14q-1 1 -2 2.5t-1 2.5q-9 20 -9 35q0 17 13.5 30.5t31.5 13.5t30.5 -14.5t12.5 -32.5q0 -27 -22 -47t-53 -20zM250 -9q-31 0 -53 20t-22 47q0 18 12.5 32.5t30.5 14.5t31.5 -13.5t13.5 -30.5q0 -15 -9 -35q-9 -18 -5 -19q2 -1 5 0
q18 4 31 25t13 52q0 63 -47.5 114t-105.5 51q-29 0 -49.5 -11t-22.5 -31q-1 -8 1 -9q2 0 12 9q13 11 33 11q16 0 28.5 -14.5t12.5 -34.5t-13.5 -33.5t-30.5 -13.5q-25 0 -43.5 24t-18.5 57q0 51 39.5 88t94.5 37q75 0 126.5 -55.5t51.5 -136.5q0 -60 -34.5 -102.5
t-81.5 -42.5z" />
    <glyph glyph-name="registered" unicode="&#xae;" horiz-adv-x="413" 
d="M255 320q-74 0 -124.5 54t-50.5 133t50.5 133t124.5 54q73 0 123.5 -54t50.5 -133t-50.5 -133t-123.5 -54zM255 336q65 0 109 50t44 121t-44 120t-109 49q-66 0 -110 -49t-44 -120t44 -121t110 -50zM321 399q-19 0 -29.5 11t-16.5 42q-3 17 -4.5 22.5t-4.5 15t-7 12.5
t-11 3h-12v-76q0 -11 13 -11h9v-13h-95v13h8q14 0 14 11v163q0 13 -14 13h-8v14h91q78 0 78 -56q0 -43 -60 -52q33 -7 47 -45q12 -33 22 -33t10 22h9q1 -22 -9.5 -39t-29.5 -17zM236 517h8q37 0 37 45q0 20 -8 31t-19 11h-5q-13 0 -13 -12v-75z" />
    <glyph glyph-name="macron" unicode="&#xaf;" 
d="M171 499l21 75h224l-21 -75h-224z" />
    <glyph glyph-name="macron" unicode="&#x2c9;" 
d="M171 499l21 75h224l-21 -75h-224z" />
    <glyph glyph-name="degree" unicode="&#xb0;" horiz-adv-x="286" 
d="M169 433q-48 0 -80 32.5t-32 80.5t33 81t81 33t80 -32t32 -80t-33 -81.5t-81 -33.5zM172 457q37 0 59.5 25t22.5 64t-23.5 64.5t-60.5 25.5t-59.5 -25t-22.5 -63q0 -39 23.5 -65t60.5 -26z" />
    <glyph glyph-name="plusminus" unicode="&#xb1;" horiz-adv-x="847" 
d="M488 426h161l36 126q-21 1 -35 15.5t-14 34.5t12.5 38.5t12.5 22.5q0 15 -22 15q-12 0 -26.5 -6.5t-34 -22t-38 -50t-30.5 -83.5zM634 703q72 0 102 -44l114 44l-160 -564q-15 -52 -15 -69q0 -29 21 -29q32 0 86 91l14 -10q-65 -128 -169 -128q-76 0 -76 63q0 25 12 69
l80 280h-159l-48 -195q-29 -116 -63 -195t-72 -119.5t-73.5 -56.5t-77.5 -16q-38 0 -61 19t-23 43q0 26 16 43t37 17q54 0 54 -60q0 -7 -1.5 -14.5t-2.5 -11.5t-1.5 -7t1.5 -4.5t7 -1.5q56 0 87 135l99 424h-158l-56 -225q-29 -117 -60 -195.5t-65 -119t-67 -56.5t-74 -16
q-38 0 -61 19t-23 43q0 26 16 43t37 17q54 0 54 -60q0 -7 -1.5 -14.5t-2.5 -11.5t-1.5 -7t1.5 -4.5t7 -1.5q15 0 34.5 39.5t32.5 95.5l107 454h-65l5 20h64l9 40q15 66 41 112t58 68.5t61.5 31.5t61.5 9q52 0 81 -21t29 -54q0 -12 -3 -22q64 117 210 113zM208 426h158l9 40
q14 58 32 94q-16 -18 -43 -18q-22 0 -36.5 15t-14.5 35t12.5 38.5t12.5 22.5q0 15 -17 15q-54 0 -94 -162z" />
    <glyph glyph-name="twosuperior" unicode="&#xb2;" horiz-adv-x="363" 
d="M50 296l3 26q25 43 50 68.5t86 73.5q45 36 63 63.5t19 60.5q1 25 -11 40.5t-35 15.5q-28 0 -49.5 -13t-21.5 -33q0 -6 7 -5q13 3 25 -6.5t12 -26.5q0 -18 -12.5 -28.5t-28.5 -10.5q-17 0 -29 12t-12 33q0 44 38 71.5t78 27.5q126 0 126 -84q0 -39 -27 -67t-94 -65
q-15 -8 -40 -20.5t-37.5 -19.5t-28 -18.5t-26.5 -25.5h135q26 0 40 14t28 49h13l-37 -132h-234z" />
    <glyph glyph-name="threesuperior" unicode="&#xb3;" horiz-adv-x="353" 
d="M148 285q-39 0 -69 23t-30 54q0 34 15 50.5t38 16.5q16 0 26 -11t10 -27q0 -20 -17.5 -31t-37.5 -2q-7 5 -7 -3q-1 -20 18 -34t48 -14q36 0 57 27.5t22 73.5q1 28 -12.5 44.5t-38.5 16.5q-6 0 -12.5 -1t-10.5 -1q-14 0 -14 13q0 14 21 14q2 0 9 -1t13 -1q79 0 81 94
q1 28 -11 44t-36 16t-42 -9.5t-18 -20.5q0 -4 7 -5q28 -3 28 -34q0 -19 -12 -28.5t-27 -9.5t-26.5 11t-11.5 29q0 40 36.5 64.5t79.5 24.5q56 0 88.5 -26t31.5 -65q-1 -41 -43.5 -67.5t-113.5 -28.5v-2q61 -2 92 -25.5t30 -58.5q-1 -49 -46.5 -79.5t-114.5 -30.5z" />
    <glyph glyph-name="acute" unicode="&#xb4;" 
d="M261 486l-8 11l92 98q41 44 76 44q19 0 31.5 -12.5t12.5 -30.5q0 -44 -61 -63z" />
    <glyph glyph-name="mu" unicode="&#xb5;" horiz-adv-x="758" 
d="M570 356q-75 0 -126.5 55.5t-51.5 136.5q0 60 34.5 102.5t81.5 42.5q31 0 53 -20t22 -47q0 -18 -12.5 -32.5t-30.5 -14.5t-31.5 13.5t-13.5 30.5q0 15 9 35q9 18 5 19q-2 1 -5 0q-18 -4 -31 -25t-13 -52q0 -63 47.5 -114t105.5 -51q29 0 49.5 11t22.5 31q1 8 -1 9
q-2 0 -12 -9q-13 -11 -33 -11q-16 0 -28.5 14.5t-12.5 34.5t13.5 33.5t30.5 13.5q25 0 43.5 -24t18.5 -57q0 -51 -39.5 -88t-94.5 -37zM188 356q-55 0 -94.5 37t-39.5 88q0 33 18.5 57t43.5 24q17 0 30.5 -13.5t13.5 -33.5t-12.5 -34.5t-28.5 -14.5q-20 0 -33 11l-3 3
q-10 11 -10 1v-4q2 -20 22.5 -31t49.5 -11q58 0 105.5 51t47.5 114q0 31 -13 52t-31 25q-4 1 -6 0t-1.5 -3.5t1.5 -5t3.5 -6t2.5 -4.5q9 -20 9 -35q0 -17 -13.5 -30.5t-31.5 -13.5t-30.5 14.5t-12.5 32.5q0 27 22 47t53 20q47 0 81.5 -42.5t34.5 -102.5q0 -81 -51.5 -136.5
t-126.5 -55.5zM508 -9q-47 0 -81.5 42.5t-34.5 102.5q0 81 51.5 136.5t126.5 55.5q55 0 94.5 -37t39.5 -88q0 -33 -18.5 -57t-43.5 -24q-17 0 -30.5 13.5t-13.5 33.5t12.5 34.5t28.5 14.5q20 0 33 -11l3 -3q10 -11 10 -1v4q-2 20 -22.5 31t-49.5 11q-58 0 -105.5 -51
t-47.5 -114q0 -31 13 -52t31 -25q11 -3 3 14q-1 1 -2 2.5t-1 2.5q-9 20 -9 35q0 17 13.5 30.5t31.5 13.5t30.5 -14.5t12.5 -32.5q0 -27 -22 -47t-53 -20zM250 -9q-31 0 -53 20t-22 47q0 18 12.5 32.5t30.5 14.5t31.5 -13.5t13.5 -30.5q0 -15 -9 -35q-9 -18 -5 -19q2 -1 5 0
q18 4 31 25t13 52q0 63 -47.5 114t-105.5 51q-29 0 -49.5 -11t-22.5 -31q-1 -8 1 -9q2 0 12 9q13 11 33 11q16 0 28.5 -14.5t12.5 -34.5t-13.5 -33.5t-30.5 -13.5q-25 0 -43.5 24t-18.5 57q0 51 39.5 88t94.5 37q75 0 126.5 -55.5t51.5 -136.5q0 -60 -34.5 -102.5
t-81.5 -42.5z" />
    <glyph glyph-name="mu" unicode="&#x3bc;" horiz-adv-x="758" 
d="M570 356q-75 0 -126.5 55.5t-51.5 136.5q0 60 34.5 102.5t81.5 42.5q31 0 53 -20t22 -47q0 -18 -12.5 -32.5t-30.5 -14.5t-31.5 13.5t-13.5 30.5q0 15 9 35q9 18 5 19q-2 1 -5 0q-18 -4 -31 -25t-13 -52q0 -63 47.5 -114t105.5 -51q29 0 49.5 11t22.5 31q1 8 -1 9
q-2 0 -12 -9q-13 -11 -33 -11q-16 0 -28.5 14.5t-12.5 34.5t13.5 33.5t30.5 13.5q25 0 43.5 -24t18.5 -57q0 -51 -39.5 -88t-94.5 -37zM188 356q-55 0 -94.5 37t-39.5 88q0 33 18.5 57t43.5 24q17 0 30.5 -13.5t13.5 -33.5t-12.5 -34.5t-28.5 -14.5q-20 0 -33 11l-3 3
q-10 11 -10 1v-4q2 -20 22.5 -31t49.5 -11q58 0 105.5 51t47.5 114q0 31 -13 52t-31 25q-4 1 -6 0t-1.5 -3.5t1.5 -5t3.5 -6t2.5 -4.5q9 -20 9 -35q0 -17 -13.5 -30.5t-31.5 -13.5t-30.5 14.5t-12.5 32.5q0 27 22 47t53 20q47 0 81.5 -42.5t34.5 -102.5q0 -81 -51.5 -136.5
t-126.5 -55.5zM508 -9q-47 0 -81.5 42.5t-34.5 102.5q0 81 51.5 136.5t126.5 55.5q55 0 94.5 -37t39.5 -88q0 -33 -18.5 -57t-43.5 -24q-17 0 -30.5 13.5t-13.5 33.5t12.5 34.5t28.5 14.5q20 0 33 -11l3 -3q10 -11 10 -1v4q-2 20 -22.5 31t-49.5 11q-58 0 -105.5 -51
t-47.5 -114q0 -31 13 -52t31 -25q11 -3 3 14q-1 1 -2 2.5t-1 2.5q-9 20 -9 35q0 17 13.5 30.5t31.5 13.5t30.5 -14.5t12.5 -32.5q0 -27 -22 -47t-53 -20zM250 -9q-31 0 -53 20t-22 47q0 18 12.5 32.5t30.5 14.5t31.5 -13.5t13.5 -30.5q0 -15 -9 -35q-9 -18 -5 -19q2 -1 5 0
q18 4 31 25t13 52q0 63 -47.5 114t-105.5 51q-29 0 -49.5 -11t-22.5 -31q-1 -8 1 -9q2 0 12 9q13 11 33 11q16 0 28.5 -14.5t12.5 -34.5t-13.5 -33.5t-30.5 -13.5q-25 0 -43.5 24t-18.5 57q0 51 39.5 88t94.5 37q75 0 126.5 -55.5t51.5 -136.5q0 -60 -34.5 -102.5
t-81.5 -42.5z" />
    <glyph glyph-name="paragraph" unicode="&#xb6;" horiz-adv-x="435" 
d="M86 -5l82 322q-127 25 -126 144q1 84 64.5 135t163.5 51h208l-8 -30h-64l-159 -622h-35l159 622h-89l-161 -622h-35z" />
    <glyph glyph-name="periodcentered" unicode="&#xb7;" horiz-adv-x="225" 
d="M103 230q-28 0 -48.5 20t-20.5 48t20.5 48.5t48.5 20.5q27 0 47.5 -20.5t20.5 -48.5t-20.5 -48t-47.5 -20z" />
    <glyph glyph-name="periodcentered" unicode="&#x2219;" horiz-adv-x="225" 
d="M103 230q-28 0 -48.5 20t-20.5 48t20.5 48.5t48.5 20.5q27 0 47.5 -20.5t20.5 -48.5t-20.5 -48t-47.5 -20z" />
    <glyph glyph-name="cedilla" unicode="&#xb8;" 
d="M149 -207q-64 0 -100 42l13 15q29 -25 68 -25q24 0 38.5 12.5t14.5 31.5q0 37 -34 37q-13 0 -21 -2l41 96h16l-27 -66q10 3 28 3q36 0 57 -17.5t21 -46.5q0 -37 -33 -58.5t-82 -21.5z" />
    <glyph glyph-name="onesuperior" unicode="&#xb9;" horiz-adv-x="333" 
d="M49 295l5 18h22q20 0 28.5 6.5t13.5 23.5l58 225q4 17 -1 23.5t-24 6.5h-26l6 19q101 7 131 46h20l-79 -320q-5 -17 0 -23.5t23 -6.5h21l-4 -18h-194z" />
    <glyph glyph-name="ordmasculine" unicode="&#xba;" horiz-adv-x="313" 
d="M155 333q-54 0 -83 34t-28 89q2 77 56.5 138t125.5 61q54 0 83 -34.5t28 -89.5q-2 -77 -56.5 -137.5t-125.5 -60.5zM2 241l5 20h276l-4 -20h-277zM155 347q41 0 70 82.5t29 158.5q0 53 -29 53q-37 0 -66.5 -85t-29.5 -156q-1 -53 26 -53z" />
    <glyph glyph-name="guillemotright" unicode="&#xbb;" horiz-adv-x="448" 
d="M89 0l188 230l-75 219h13l196 -225l-309 -224h-13zM-76 0l188 230l-75 219h13l196 -225l-309 -224h-13z" />
    <glyph glyph-name="onequarter" unicode="&#xbc;" horiz-adv-x="697" 
d="M76 -6l499 659h32l-501 -659h-30zM392 0l4 18h18q19 0 25.5 5.5t11.5 25.5l10 42h-147l3 18l241 254h49l-62 -251h47l-4 -21h-48l-10 -43q-5 -18 -0.5 -24t22.5 -6h13l-3 -18h-170zM342 112h124l44 175zM39 295l5 18h22q20 0 28.5 6.5t13.5 23.5l58 225q4 17 -1 23.5
t-24 6.5h-26l6 19q101 7 131 46h20l-79 -320q-5 -17 0 -23.5t23 -6.5h21l-4 -18h-194z" />
    <glyph glyph-name="onehalf" unicode="&#xbd;" horiz-adv-x="737" 
d="M39 295l5 18h22q20 0 28.5 6.5t13.5 23.5l58 225q4 17 -1 23.5t-24 6.5h-26l6 19q101 7 131 46h20l-79 -320q-5 -17 0 -23.5t23 -6.5h21l-4 -18h-194zM76 -6l499 659h32l-501 -659h-30zM355 0l3 26q25 43 50 68.5t86 73.5q45 36 63 63.5t19 60.5q1 25 -11 40.5t-35 15.5
q-28 0 -49.5 -13t-21.5 -33q0 -6 7 -5q13 3 25 -6.5t12 -26.5q0 -18 -12.5 -28.5t-28.5 -10.5q-17 0 -29 12t-12 33q0 44 38 71.5t78 27.5q126 0 126 -84q0 -39 -27 -67t-94 -65q-15 -8 -40 -20.5t-37.5 -19.5t-28 -18.5t-26.5 -25.5h135q26 0 40 14t28 49h13l-37 -132h-234
z" />
    <glyph glyph-name="threequarters" unicode="&#xbe;" horiz-adv-x="691" 
d="M148 285q-39 0 -69 23t-30 54q0 34 15 50.5t38 16.5q16 0 26 -11t10 -27q0 -20 -17.5 -31t-37.5 -2q-7 5 -7 -3q-1 -20 18 -34t48 -14q36 0 57 27.5t22 73.5q1 28 -12.5 44.5t-38.5 16.5q-6 0 -12.5 -1t-10.5 -1q-14 0 -14 13q0 14 21 14q2 0 9 -1t13 -1q79 0 81 94
q1 28 -11 44t-36 16t-42 -9.5t-18 -20.5q0 -4 7 -5q28 -3 28 -34q0 -19 -12 -28.5t-27 -9.5t-26.5 11t-11.5 29q0 40 36.5 64.5t79.5 24.5q56 0 88.5 -26t31.5 -65q-1 -41 -43.5 -67.5t-113.5 -28.5v-2q61 -2 92 -25.5t30 -58.5q-1 -49 -46.5 -79.5t-114.5 -30.5zM108 -6
l499 659h32l-501 -659h-30zM404 0l4 18h18q19 0 25.5 5.5t11.5 25.5l10 42h-147l3 18l241 254h49l-62 -251h47l-4 -21h-48l-10 -43q-5 -18 -0.5 -24t22.5 -6h13l-3 -18h-170zM354 112h124l44 175z" />
    <glyph glyph-name="questiondown" unicode="&#xbf;" horiz-adv-x="413" 
d="M280 475l-1 -7q-9 -65 -31 -105t-66 -81q-77 -72 -77 -176q0 -48 21 -72.5t57 -24.5q39 0 69.5 20t36.5 40q2 6 2 8t-1 2t-5.5 -1t-8.5 -1q-21 0 -36.5 16.5t-15.5 39.5q0 25 16.5 41.5t41.5 16.5q24 0 40.5 -18t16.5 -47q-1 -60 -53 -98t-134 -38q-86 0 -138 34.5
t-52 97.5q0 33 12 60.5t37.5 50t42.5 33.5t48 29q36 21 50 30t42.5 32t45 50.5t25.5 63.5l1 4h14zM299 693q28 0 48.5 -20t20.5 -48t-20.5 -48.5t-48.5 -20.5q-27 0 -47.5 20.5t-20.5 48.5t20.5 48t47.5 20z" />
    <glyph glyph-name="Agrave" unicode="&#xc0;" horiz-adv-x="656" 
d="M-82 0l5 18q43 7 64 24t54 71l357 588h38l63 -613q4 -41 16.5 -54t56.5 -16l-5 -18h-316l5 18h29q49 0 63 22t9 79l-10 108h-206l-44 -77q-40 -69 -40 -97q0 -35 46 -35h19l-5 -18h-199zM157 253h188l-25 277zM465 735l-137 60q-42 19 -42 52q0 15 14 30.5t34 15.5
q33 0 57 -34l81 -117z" />
    <glyph glyph-name="Aacute" unicode="&#xc1;" horiz-adv-x="656" 
d="M-82 0l5 18q43 7 64 24t54 71l357 588h38l63 -613q4 -41 16.5 -54t56.5 -16l-5 -18h-316l5 18h29q49 0 63 22t9 79l-10 108h-206l-44 -77q-40 -69 -40 -97q0 -35 46 -35h19l-5 -18h-199zM157 253h188l-25 277zM376 739l-8 11l92 98q41 44 76 44q19 0 31.5 -12.5
t12.5 -30.5q0 -44 -61 -63z" />
    <glyph glyph-name="Acircumflex" unicode="&#xc2;" horiz-adv-x="656" 
d="M-82 0l5 18q43 7 64 24t54 71l357 588h38l63 -613q4 -41 16.5 -54t56.5 -16l-5 -18h-316l5 18h29q49 0 63 22t9 79l-10 108h-206l-44 -77q-40 -69 -40 -97q0 -35 46 -35h19l-5 -18h-199zM157 253h188l-25 277zM299 740l-13 11l119 138h80l46 -142l-16 -9l-92 69z" />
    <glyph glyph-name="Atilde" unicode="&#xc3;" horiz-adv-x="656" 
d="M-82 0l5 18q43 7 64 24t54 71l357 588h38l63 -613q4 -41 16.5 -54t56.5 -16l-5 -18h-316l5 18h29q49 0 63 22t9 79l-10 108h-206l-44 -77q-40 -69 -40 -97q0 -35 46 -35h19l-5 -18h-199zM157 253h188l-25 277zM294 743l-13 3q26 60 47.5 88.5t50.5 28.5q16 0 71.5 -14
t66.5 -14q24 0 43 32l12 -2q-25 -59 -47 -88t-51 -29q-17 0 -71 13.5t-65 13.5q-25 0 -44 -32z" />
    <glyph glyph-name="Adieresis" unicode="&#xc4;" horiz-adv-x="656" 
d="M-82 0l5 18q43 7 64 24t54 71l357 588h38l63 -613q4 -41 16.5 -54t56.5 -16l-5 -18h-316l5 18h29q49 0 63 22t9 79l-10 108h-206l-44 -77q-40 -69 -40 -97q0 -35 46 -35h19l-5 -18h-199zM157 253h188l-25 277zM508 738q-24 0 -42 18t-18 42t18 41.5t42 17.5
q25 0 42 -17.5t17 -41.5t-17.5 -42t-41.5 -18zM342 738q-24 0 -42 18t-18 42t18 41.5t42 17.5t41.5 -17.5t17.5 -41.5t-17.5 -42t-41.5 -18z" />
    <glyph glyph-name="Aring" unicode="&#xc5;" horiz-adv-x="656" 
d="M-82 0l5 18q43 7 64 24t54 71l347 572q-28 9 -44 32.5t-16 52.5q0 36 27 63t67 27q42 0 68 -27t26 -63q0 -33 -21 -58.5t-57 -30.5l61 -593q4 -41 16.5 -54t56.5 -16l-5 -18h-316l5 18h29q49 0 63 22t9 79l-10 108h-206l-44 -77q-41 -73 -40 -99q0 -33 46 -33h19l-5 -18
h-199zM422 705q23 0 39 18.5t16 46.5q0 29 -16.5 47t-38.5 18q-21 0 -38 -18t-17 -47q0 -28 16.5 -46.5t38.5 -18.5zM157 253h188l-25 277z" />
    <glyph glyph-name="AE" unicode="&#xc6;" horiz-adv-x="971" 
d="M-68 0l4 18q16 1 28.5 4t26 11.5t20.5 12.5t21 19.5t18 19.5t22.5 27t22.5 28l316 383q79 94 79 120q0 23 -60 23h-25l5 18h580l-54 -257h-19q16 131 -13.5 184.5t-132.5 53.5h-18q-66 0 -80 -60l-58 -241h10q59 0 94.5 17.5t53 46.5t33.5 84h18l-80 -322h-18
q19 88 -7.5 122t-97.5 34h-10l-67 -267q-15 -60 49 -60h31q99 0 161 65t115 194h18l-87 -278h-541l4 18h29q34 0 52 14.5t26 46.5l35 145h-236l-42 -51q-42 -51 -54.5 -73.5t-12.5 -43.5q0 -17 13.5 -27t34.5 -11h19l-5 -18h-221zM221 250h222l97 391h-6z" />
    <glyph glyph-name="Ccedilla" unicode="&#xc7;" horiz-adv-x="596" 
d="M240 -207q-64 0 -100 42l13 15q29 -25 68 -25q24 0 38.5 12.5t14.5 31.5q0 37 -34 37q-13 0 -21 -2l34 80q-108 5 -171 87t-63 206q0 58 19 121q41 140 143.5 218t215.5 78q44 0 67.5 -9.5t58.5 -36.5q17 -13 33 -13q25 0 52 53h13l-60 -276h-19q24 258 -131 258
q-76 0 -138 -91.5t-89 -226.5q-19 -93 -19 -162q0 -81 28 -130.5t90 -49.5q69 0 133 65.5t101 174.5h24q-43 -125 -108.5 -194.5t-163.5 -71.5l-20 -50q10 3 28 3q36 0 57 -17.5t21 -46.5q0 -37 -33 -58.5t-82 -21.5z" />
    <glyph glyph-name="Egrave" unicode="&#xc8;" horiz-adv-x="610" 
d="M-71 0l5 18h29q34 0 52 14.5t26 46.5l131 526q8 31 -3 46t-43 15h-32l5 18h530l-54 -257h-19q16 131 -13.5 184.5t-132.5 53.5h-18q-34 0 -51.5 -14t-25.5 -46l-60 -239h10q59 0 94 17t52.5 45.5t33.5 83.5h18l-80 -322h-18q19 88 -7.5 121t-98.5 33h-10l-66 -265
q-15 -60 49 -60h31q99 0 161 65t115 194h18l-87 -278h-541zM462 735l-137 60q-42 19 -42 52q0 15 14 30.5t34 15.5q33 0 57 -34l81 -117z" />
    <glyph glyph-name="Eacute" unicode="&#xc9;" horiz-adv-x="610" 
d="M-71 0l5 18h29q34 0 52 14.5t26 46.5l131 526q8 31 -3 46t-43 15h-32l5 18h530l-54 -257h-19q16 131 -13.5 184.5t-132.5 53.5h-18q-34 0 -51.5 -14t-25.5 -46l-60 -239h10q59 0 94 17t52.5 45.5t33.5 83.5h18l-80 -322h-18q19 88 -7.5 121t-98.5 33h-10l-66 -265
q-15 -60 49 -60h31q99 0 161 65t115 194h18l-87 -278h-541zM357 739l-8 11l92 98q41 44 76 44q19 0 31.5 -12.5t12.5 -30.5q0 -44 -61 -63z" />
    <glyph glyph-name="Ecircumflex" unicode="&#xca;" horiz-adv-x="610" 
d="M-71 0l5 18h29q34 0 52 14.5t26 46.5l131 526q8 31 -3 46t-43 15h-32l5 18h530l-54 -257h-19q16 131 -13.5 184.5t-132.5 53.5h-18q-34 0 -51.5 -14t-25.5 -46l-60 -239h10q59 0 94 17t52.5 45.5t33.5 83.5h18l-80 -322h-18q19 88 -7.5 121t-98.5 33h-10l-66 -265
q-15 -60 49 -60h31q99 0 161 65t115 194h18l-87 -278h-541zM292 740l-13 11l119 138h80l46 -142l-16 -9l-92 69z" />
    <glyph glyph-name="Edieresis" unicode="&#xcb;" horiz-adv-x="610" 
d="M-71 0l5 18h29q34 0 52 14.5t26 46.5l131 526q8 31 -3 46t-43 15h-32l5 18h530l-54 -257h-19q16 131 -13.5 184.5t-132.5 53.5h-18q-34 0 -51.5 -14t-25.5 -46l-60 -239h10q59 0 94 17t52.5 45.5t33.5 83.5h18l-80 -322h-18q19 88 -7.5 121t-98.5 33h-10l-66 -265
q-15 -60 49 -60h31q99 0 161 65t115 194h18l-87 -278h-541zM489 736q-24 0 -42 18t-18 42t18 41.5t42 17.5q25 0 42 -17.5t17 -41.5t-17.5 -42t-41.5 -18zM323 736q-24 0 -42 18t-18 42t18 41.5t42 17.5t41.5 -17.5t17.5 -41.5t-17.5 -42t-41.5 -18z" />
    <glyph glyph-name="Igrave" unicode="&#xcc;" horiz-adv-x="355" 
d="M-65 0l5 18h22q35 0 52 12.5t26 47.5l132 526q9 36 -1.5 49t-45.5 13h-23l5 18h314l-5 -18h-22q-35 0 -52.5 -13t-26.5 -49l-132 -526q-9 -35 2.5 -47.5t45.5 -12.5h22l-5 -18h-313zM348 737l-137 60q-42 19 -42 52q0 15 14 30.5t34 15.5q33 0 57 -34l81 -117z" />
    <glyph glyph-name="Iacute" unicode="&#xcd;" horiz-adv-x="355" 
d="M-65 0l5 18h22q35 0 52 12.5t26 47.5l132 526q9 36 -1.5 49t-45.5 13h-23l5 18h314l-5 -18h-22q-35 0 -52.5 -13t-26.5 -49l-132 -526q-9 -35 2.5 -47.5t45.5 -12.5h22l-5 -18h-313zM225 738l-8 11l92 98q41 44 76 44q19 0 31.5 -12.5t12.5 -30.5q0 -44 -61 -63z" />
    <glyph glyph-name="Icircumflex" unicode="&#xce;" horiz-adv-x="355" 
d="M-65 0l5 18h22q35 0 52 12.5t26 47.5l132 526q9 36 -1.5 49t-45.5 13h-23l5 18h314l-5 -18h-22q-35 0 -52.5 -13t-26.5 -49l-132 -526q-9 -35 2.5 -47.5t45.5 -12.5h22l-5 -18h-313zM163 742l-13 11l119 138h80l46 -142l-16 -9l-92 69z" />
    <glyph glyph-name="Idieresis" unicode="&#xcf;" horiz-adv-x="355" 
d="M-65 0l5 18h22q35 0 52 12.5t26 47.5l132 526q9 36 -1.5 49t-45.5 13h-23l5 18h314l-5 -18h-22q-35 0 -52.5 -13t-26.5 -49l-132 -526q-9 -35 2.5 -47.5t45.5 -12.5h22l-5 -18h-313zM353 738q-24 0 -42 18t-18 42t18 41.5t42 17.5q25 0 42 -17.5t17 -41.5t-17.5 -42
t-41.5 -18zM187 738q-24 0 -42 18t-18 42t18 41.5t42 17.5t41.5 -17.5t17.5 -41.5t-17.5 -42t-41.5 -18z" />
    <glyph glyph-name="Eth" unicode="&#xd0;" horiz-adv-x="680" 
d="M-71 0l5 18h29q35 0 52.5 14t25.5 48l63 254h-80l6 23h80l61 247q16 62 -48 62h-29l5 18h314q106 0 176 -71t69 -193q-1 -102 -33.5 -183t-89 -132.5t-130 -78t-158.5 -26.5h-318zM233 19h13q72 0 132.5 68t93.5 172t33 214q0 94 -32 143t-75 49h-6q-63 0 -78 -61
l-61 -247h77l-6 -23h-77l-63 -254q-8 -32 3.5 -46.5t45.5 -14.5z" />
    <glyph glyph-name="Ntilde" unicode="&#xd1;" horiz-adv-x="670" 
d="M432 -10l-234 593l-109 -442q-18 -67 -4 -95t70 -28h4l-5 -18h-230l5 18h13q49 0 75.5 28t43.5 95l119 475q-32 49 -95 50l5 18h219l191 -488l86 346q8 33 8 56t-3.5 35t-16 19.5t-20 9t-24.5 3.5q-5 1 -8 1h-3l5 18h228l-5 -18h-7q-57 0 -83 -27t-43 -97l-137 -552h-45z
M330 743l-13 3q26 60 47.5 88.5t50.5 28.5q16 0 71.5 -14t66.5 -14q24 0 43 32l12 -2q-25 -59 -47 -88t-51 -29q-17 0 -71 13.5t-65 13.5q-25 0 -44 -32z" />
    <glyph glyph-name="Ograve" unicode="&#xd2;" horiz-adv-x="643" 
d="M258 -16q-105 0 -172 81.5t-67 209.5q0 105 44.5 201t131.5 160t197 64q92 0 161.5 -82t69.5 -206q0 -60 -16 -121t-47.5 -116t-74.5 -97.5t-102 -68t-125 -25.5zM250 3q35 0 64.5 18t50.5 46t39.5 70.5t30.5 82.5t24 92q30 131 30 222q0 147 -97 147q-135 0 -207 -309
q-32 -137 -32 -219q-1 -150 97 -150zM463 740l-137 60q-42 19 -42 52q0 15 14 30.5t34 15.5q33 0 57 -34l81 -117z" />
    <glyph glyph-name="Oacute" unicode="&#xd3;" horiz-adv-x="643" 
d="M258 -16q-105 0 -172 81.5t-67 209.5q0 105 44.5 201t131.5 160t197 64q92 0 161.5 -82t69.5 -206q0 -60 -16 -121t-47.5 -116t-74.5 -97.5t-102 -68t-125 -25.5zM250 3q35 0 64.5 18t50.5 46t39.5 70.5t30.5 82.5t24 92q30 131 30 222q0 147 -97 147q-135 0 -207 -309
q-32 -137 -32 -219q-1 -150 97 -150zM374 741l-8 11l92 98q41 44 76 44q19 0 31.5 -12.5t12.5 -30.5q0 -44 -61 -63z" />
    <glyph glyph-name="Ocircumflex" unicode="&#xd4;" horiz-adv-x="643" 
d="M258 -16q-105 0 -172 81.5t-67 209.5q0 105 44.5 201t131.5 160t197 64q92 0 161.5 -82t69.5 -206q0 -60 -16 -121t-47.5 -116t-74.5 -97.5t-102 -68t-125 -25.5zM250 3q35 0 64.5 18t50.5 46t39.5 70.5t30.5 82.5t24 92q30 131 30 222q0 147 -97 147q-135 0 -207 -309
q-32 -137 -32 -219q-1 -150 97 -150zM294 741l-13 11l119 138h80l46 -142l-16 -9l-92 69z" />
    <glyph glyph-name="Otilde" unicode="&#xd5;" horiz-adv-x="643" 
d="M258 -16q-105 0 -172 81.5t-67 209.5q0 105 44.5 201t131.5 160t197 64q92 0 161.5 -82t69.5 -206q0 -60 -16 -121t-47.5 -116t-74.5 -97.5t-102 -68t-125 -25.5zM250 3q35 0 64.5 18t50.5 46t39.5 70.5t30.5 82.5t24 92q30 131 30 222q0 147 -97 147q-135 0 -207 -309
q-32 -137 -32 -219q-1 -150 97 -150zM286 743l-13 3q26 60 47.5 88.5t50.5 28.5q16 0 71.5 -14t66.5 -14q24 0 43 32l12 -2q-25 -59 -47 -88t-51 -29q-17 0 -71 13.5t-65 13.5q-25 0 -44 -32z" />
    <glyph glyph-name="Odieresis" unicode="&#xd6;" horiz-adv-x="643" 
d="M258 -16q-105 0 -172 81.5t-67 209.5q0 105 44.5 201t131.5 160t197 64q92 0 161.5 -82t69.5 -206q0 -60 -16 -121t-47.5 -116t-74.5 -97.5t-102 -68t-125 -25.5zM250 3q35 0 64.5 18t50.5 46t39.5 70.5t30.5 82.5t24 92q30 131 30 222q0 147 -97 147q-135 0 -207 -309
q-32 -137 -32 -219q-1 -150 97 -150zM492 738q-24 0 -42 18t-18 42t18 41.5t42 17.5q25 0 42 -17.5t17 -41.5t-17.5 -42t-41.5 -18zM326 738q-24 0 -42 18t-18 42t18 41.5t42 17.5t41.5 -17.5t17.5 -41.5t-17.5 -42t-41.5 -18z" />
    <glyph glyph-name="multiply" unicode="&#xd7;" horiz-adv-x="486" 
d="M92 120l-38 41l150 162l-151 164l40 42l150 -163l151 162l37 -40l-150 -163l37 -41q38 -40 76 -81l38 -41l-39 -43l-151 163z" />
    <glyph glyph-name="Oslash" unicode="&#xd8;" horiz-adv-x="653" 
d="M-44 -59l119 142q-56 80 -56 192q0 104 45.5 200.5t134 160.5t198.5 64q80 0 144 -62l88 105h27q-100 -119 -100 -120q77 -85 77 -211q0 -75 -26.5 -151t-73 -137.5t-117.5 -100.5t-153 -39q-106 0 -175 82l-105 -125h-27zM154 177l341 407q-15 97 -98 97
q-35 0 -65.5 -19t-52 -47.5t-40.5 -71.5t-30.5 -82.5t-23.5 -88.5q-27 -115 -31 -195zM498 555l-345 -411q1 -141 102 -141q36 0 67 18t52.5 45.5t40 70.5t30.5 83t24 92q34 150 29 243z" />
    <glyph glyph-name="Ugrave" unicode="&#xd9;" horiz-adv-x="668" 
d="M276 -10q-114 0 -167.5 50t-53.5 133q0 32 9 65l91 368q14 60 -53 60h-20l5 18h322l-5 -18h-28q-65 0 -79 -60l-92 -379q-7 -28 -7 -65q0 -122 120 -122q77 0 121.5 48.5t68.5 147.5l76 305q17 65 2.5 95t-69.5 30h-2l5 18h224l-5 -18h-4q-52 0 -79 -28.5t-44 -96.5
l-78 -312q-14 -56 -31 -95t-45.5 -74t-74 -52.5t-107.5 -17.5zM509 739l-137 60q-42 19 -42 52q0 15 14 30.5t34 15.5q33 0 57 -34l81 -117z" />
    <glyph glyph-name="Uacute" unicode="&#xda;" horiz-adv-x="668" 
d="M276 -10q-114 0 -167.5 50t-53.5 133q0 32 9 65l91 368q14 60 -53 60h-20l5 18h322l-5 -18h-28q-65 0 -79 -60l-92 -379q-7 -28 -7 -65q0 -122 120 -122q77 0 121.5 48.5t68.5 147.5l76 305q17 65 2.5 95t-69.5 30h-2l5 18h224l-5 -18h-4q-52 0 -79 -28.5t-44 -96.5
l-78 -312q-14 -56 -31 -95t-45.5 -74t-74 -52.5t-107.5 -17.5zM413 740l-8 11l92 98q41 44 76 44q19 0 31.5 -12.5t12.5 -30.5q0 -44 -61 -63z" />
    <glyph glyph-name="Ucircumflex" unicode="&#xdb;" horiz-adv-x="668" 
d="M276 -10q-114 0 -167.5 50t-53.5 133q0 32 9 65l91 368q14 60 -53 60h-20l5 18h322l-5 -18h-28q-65 0 -79 -60l-92 -379q-7 -28 -7 -65q0 -122 120 -122q77 0 121.5 48.5t68.5 147.5l76 305q17 65 2.5 95t-69.5 30h-2l5 18h224l-5 -18h-4q-52 0 -79 -28.5t-44 -96.5
l-78 -312q-14 -56 -31 -95t-45.5 -74t-74 -52.5t-107.5 -17.5zM342 740l-13 11l119 138h80l46 -142l-16 -9l-92 69z" />
    <glyph glyph-name="Udieresis" unicode="&#xdc;" horiz-adv-x="668" 
d="M276 -10q-114 0 -167.5 50t-53.5 133q0 32 9 65l91 368q14 60 -53 60h-20l5 18h322l-5 -18h-28q-65 0 -79 -60l-92 -379q-7 -28 -7 -65q0 -122 120 -122q77 0 121.5 48.5t68.5 147.5l76 305q17 65 2.5 95t-69.5 30h-2l5 18h224l-5 -18h-4q-52 0 -79 -28.5t-44 -96.5
l-78 -312q-14 -56 -31 -95t-45.5 -74t-74 -52.5t-107.5 -17.5zM536 738q-24 0 -42 18t-18 42t18 41.5t42 17.5q25 0 42 -17.5t17 -41.5t-17.5 -42t-41.5 -18zM370 738q-24 0 -42 18t-18 42t18 41.5t42 17.5t41.5 -17.5t17.5 -41.5t-17.5 -42t-41.5 -18z" />
    <glyph glyph-name="Yacute" unicode="&#xdd;" horiz-adv-x="653" 
d="M92 0l5 18h38q33 0 51 17t27 54l50 202l-101 313q-6 19 -12 30.5t-22 21.5t-40 10h-4l5 18h307l-5 -18h-25q-65 0 -48 -61l80 -276l169 225q45 60 45 84q0 28 -56 28h-15l5 18h190l-5 -18q-35 -5 -56 -24t-66 -77q-8 -11 -13 -17l-191 -245l-54 -214q-10 -39 -0.5 -55
t45.5 -16h41l-5 -18h-340zM434 743l-8 11l92 98q41 44 76 44q19 0 31.5 -12.5t12.5 -30.5q0 -44 -61 -63z" />
    <glyph glyph-name="Thorn" unicode="&#xde;" horiz-adv-x="591" 
d="M-65 0l5 18h21q35 0 52.5 13t26.5 48l132 526q9 35 -2 48t-46 13h-21l3 18h328l-3 -18h-38q-36 0 -53.5 -13t-25.5 -48l-11 -47h52q110 0 169.5 -51t59.5 -127q0 -103 -94 -160.5t-234 -57.5h-53l-21 -83q-9 -35 2 -48t46 -13h37l-4 -18h-328zM207 180h57q81 0 118 42.5
t54 142.5q8 45 8 84q-1 50 -20 69.5t-59 19.5h-7q-34 0 -51.5 -14.5t-25.5 -45.5z" />
    <glyph glyph-name="germandbls" unicode="&#xdf;" horiz-adv-x="516" 
d="M-118 -206q-38 0 -61 19t-23 43q0 27 15 43.5t38 16.5q54 0 54 -61q0 -7 -1.5 -14t-2.5 -11t-1.5 -7t1.5 -4.5t7 -1.5q15 0 33 39t32 96l113 454h-61l5 20h61l15 60q22 93 80.5 153t140.5 60q71 0 115.5 -28.5t43.5 -76.5q-1 -42 -25 -73.5t-68 -66.5q-16 -13 -50 -32.5
t-53 -35.5t-19 -34q0 -15 20 -29t56 -30.5t47 -23.5q27 -16 44 -29.5t32 -39t15 -55.5q-1 -77 -63.5 -116.5t-141.5 -39.5q-60 0 -87.5 26t-23.5 65q3 31 20.5 50t42.5 19q20 0 32.5 -13t12.5 -31q0 -39 -31 -51q-5 -2 -15.5 -3t-15.5 -4t-4 -10q1 -13 19.5 -21.5t45.5 -8.5
q50 0 78 29.5t27 73.5q-1 27 -18.5 46t-52.5 42q-43 28 -63 55t-19 64q0 26 15.5 48.5t45 54t47.5 56.5q32 47 34 127q1 41 -13 62t-35 21q-29 0 -48 -43t-41 -132l-83 -330q-30 -119 -61.5 -197t-65.5 -118.5t-66.5 -56t-74.5 -15.5z" />
    <glyph glyph-name="agrave" unicode="&#xe0;" horiz-adv-x="519" 
d="M111 -6q-55 0 -91 38.5t-36 116.5q0 117 75.5 203.5t173.5 86.5q87 0 107 -101h5q45 43 84 106h33l-88 -304q-15 -51 -15 -64q0 -27 21 -27q34 0 84 83l14 -10q-65 -128 -155 -128q-74 0 -74 65q0 21 5 41h-1q-49 -106 -142 -106zM150 32q37 0 74 54.5t58 132.5
q15 57 15 117q0 36 -14.5 57.5t-35.5 21.5q-82 0 -127 -202q-13 -59 -13 -105q0 -76 43 -76zM312 483l-137 60q-42 19 -42 52q0 15 14 30.5t34 15.5q33 0 57 -34l81 -117z" />
    <glyph glyph-name="aacute" unicode="&#xe1;" horiz-adv-x="519" 
d="M111 -6q-55 0 -91 38.5t-36 116.5q0 117 75.5 203.5t173.5 86.5q87 0 107 -101h5q45 43 84 106h33l-88 -304q-15 -51 -15 -64q0 -27 21 -27q34 0 84 83l14 -10q-65 -128 -155 -128q-74 0 -74 65q0 21 5 41h-1q-49 -106 -142 -106zM150 32q37 0 74 54.5t58 132.5
q15 57 15 117q0 36 -14.5 57.5t-35.5 21.5q-82 0 -127 -202q-13 -59 -13 -105q0 -76 43 -76zM211 486l-8 11l92 98q41 44 76 44q19 0 31.5 -12.5t12.5 -30.5q0 -44 -61 -63z" />
    <glyph glyph-name="acircumflex" unicode="&#xe2;" horiz-adv-x="519" 
d="M111 -6q-55 0 -91 38.5t-36 116.5q0 117 75.5 203.5t173.5 86.5q87 0 107 -101h5q45 43 84 106h33l-88 -304q-15 -51 -15 -64q0 -27 21 -27q34 0 84 83l14 -10q-65 -128 -155 -128q-74 0 -74 65q0 21 5 41h-1q-49 -106 -142 -106zM150 32q37 0 74 54.5t58 132.5
q15 57 15 117q0 36 -14.5 57.5t-35.5 21.5q-82 0 -127 -202q-13 -59 -13 -105q0 -76 43 -76zM137 484l-13 11l119 138h80l46 -142l-16 -9l-92 69z" />
    <glyph glyph-name="atilde" unicode="&#xe3;" horiz-adv-x="519" 
d="M111 -6q-55 0 -91 38.5t-36 116.5q0 117 75.5 203.5t173.5 86.5q87 0 107 -101h5q45 43 84 106h33l-88 -304q-15 -51 -15 -64q0 -27 21 -27q34 0 84 83l14 -10q-65 -128 -155 -128q-74 0 -74 65q0 21 5 41h-1q-49 -106 -142 -106zM150 32q37 0 74 54.5t58 132.5
q15 57 15 117q0 36 -14.5 57.5t-35.5 21.5q-82 0 -127 -202q-13 -59 -13 -105q0 -76 43 -76zM134 489l-13 3q26 60 47.5 88.5t50.5 28.5q16 0 71.5 -14t66.5 -14q24 0 43 32l12 -2q-25 -59 -47 -88t-51 -29q-17 0 -71 13.5t-65 13.5q-25 0 -44 -32z" />
    <glyph glyph-name="adieresis" unicode="&#xe4;" horiz-adv-x="519" 
d="M111 -6q-55 0 -91 38.5t-36 116.5q0 117 75.5 203.5t173.5 86.5q87 0 107 -101h5q45 43 84 106h33l-88 -304q-15 -51 -15 -64q0 -27 21 -27q34 0 84 83l14 -10q-65 -128 -155 -128q-74 0 -74 65q0 21 5 41h-1q-49 -106 -142 -106zM150 32q37 0 74 54.5t58 132.5
q15 57 15 117q0 36 -14.5 57.5t-35.5 21.5q-82 0 -127 -202q-13 -59 -13 -105q0 -76 43 -76zM333 484q-24 0 -42 18t-18 42t18 41.5t42 17.5q25 0 42 -17.5t17 -41.5t-17.5 -42t-41.5 -18zM167 484q-24 0 -42 18t-18 42t18 41.5t42 17.5t41.5 -17.5t17.5 -41.5t-17.5 -42
t-41.5 -18z" />
    <glyph glyph-name="aring" unicode="&#xe5;" horiz-adv-x="519" 
d="M111 -6q-55 0 -91 38.5t-36 116.5q0 117 75.5 203.5t173.5 86.5q87 0 107 -101h5q45 43 84 106h33l-88 -304q-15 -51 -15 -64q0 -27 21 -27q34 0 84 83l14 -10q-65 -128 -155 -128q-74 0 -74 65q0 21 5 41h-1q-49 -106 -142 -106zM150 32q37 0 74 54.5t58 132.5
q15 57 15 117q0 36 -14.5 57.5t-35.5 21.5q-82 0 -127 -202q-13 -59 -13 -105q0 -76 43 -76zM259 474q-44 0 -69 26.5t-25 63.5q0 36 27 63t67 27q42 0 68 -27t26 -63q0 -37 -25.5 -63.5t-68.5 -26.5zM259 499q24 0 39.5 18.5t15.5 46.5q0 29 -15.5 47t-39.5 18t-39.5 -18
t-15.5 -47t15 -47t40 -18z" />
    <glyph glyph-name="ae" unicode="&#xe6;" horiz-adv-x="666" 
d="M78 -6q-44 0 -73.5 25.5t-29.5 66.5q0 72 66.5 109.5t223.5 68.5l5 19q37 140 -65 140q-33 0 -58.5 -9t-25.5 -20q0 -13 11 -21q24 -17 24 -45q-1 -28 -17.5 -42t-37.5 -14q-22 0 -38 16t-16 42q0 49 45.5 80.5t116.5 31.5q54 0 91 -21t42 -59q33 36 82.5 58.5t97.5 22.5
q47 0 81.5 -23.5t33.5 -68.5q-1 -59 -65 -96.5t-202 -65.5q-3 -12 -3 -34q0 -59 14 -90t54 -31q35 0 75.5 24t75.5 74l15 -12q-88 -126 -209 -126q-67 0 -104 40.5t-39 107.5h-2q-59 -148 -169 -148zM372 209q84 19 123 54t39 95q0 64 -38 64t-75 -61.5t-49 -151.5zM134 37
q31 0 62.5 43t50.5 121l14 46q-91 -17 -125.5 -52t-38.5 -95q-5 -63 37 -63z" />
    <glyph glyph-name="ccedilla" unicode="&#xe7;" horiz-adv-x="425" 
d="M125 -207q-64 0 -100 42l13 15q29 -25 68 -25q24 0 38.5 12.5t14.5 31.5q0 37 -34 37q-13 0 -21 -2l37 88q-65 1 -107 46.5t-42 116.5q0 109 84.5 198.5t190.5 89.5q69 0 100.5 -32t31.5 -83q0 -30 -17.5 -48.5t-40.5 -18.5t-38.5 16t-15.5 38q0 24 17 39.5t37 15.5
q4 0 8.5 -0.5t6.5 -1t4 0t2.5 2t0.5 5.5q0 17 -19.5 30t-46.5 13q-79 0 -128.5 -85.5t-49.5 -183.5q0 -113 78 -113q73 0 145 97l15 -13q-88 -121 -199 -128l-24 -59q11 3 28 3q36 0 57 -17.5t21 -46.5q0 -37 -33 -58.5t-82 -21.5z" />
    <glyph glyph-name="egrave" unicode="&#xe8;" horiz-adv-x="424" 
d="M144 -8q-67 0 -110 45t-42 119q2 111 88 199t196 88q52 0 82.5 -26t30.5 -66q0 -25 -10.5 -46.5t-33 -37.5t-45 -28t-58 -22t-59 -16t-61.5 -14q-3 -24 -3 -34q0 -121 68 -121q35 0 75.5 24t75.5 74l15 -12q-88 -126 -209 -126zM124 207q82 19 121 55t41 96q3 64 -38 64
q-38 0 -75 -62.5t-49 -152.5zM312 483l-137 60q-42 19 -42 52q0 15 14 30.5t34 15.5q33 0 57 -34l81 -117z" />
    <glyph glyph-name="eacute" unicode="&#xe9;" horiz-adv-x="424" 
d="M144 -8q-67 0 -110 45t-42 119q2 111 88 199t196 88q52 0 82.5 -26t30.5 -66q0 -25 -10.5 -46.5t-33 -37.5t-45 -28t-58 -22t-59 -16t-61.5 -14q-3 -24 -3 -34q0 -121 68 -121q35 0 75.5 24t75.5 74l15 -12q-88 -126 -209 -126zM124 207q82 19 121 55t41 96q3 64 -38 64
q-38 0 -75 -62.5t-49 -152.5zM211 486l-8 11l92 98q41 44 76 44q19 0 31.5 -12.5t12.5 -30.5q0 -44 -61 -63z" />
    <glyph glyph-name="ecircumflex" unicode="&#xea;" horiz-adv-x="424" 
d="M144 -8q-67 0 -110 45t-42 119q2 111 88 199t196 88q52 0 82.5 -26t30.5 -66q0 -25 -10.5 -46.5t-33 -37.5t-45 -28t-58 -22t-59 -16t-61.5 -14q-3 -24 -3 -34q0 -121 68 -121q35 0 75.5 24t75.5 74l15 -12q-88 -126 -209 -126zM124 207q82 19 121 55t41 96q3 64 -38 64
q-38 0 -75 -62.5t-49 -152.5zM151 484l-13 11l119 138h80l46 -142l-16 -9l-92 69z" />
    <glyph glyph-name="edieresis" unicode="&#xeb;" horiz-adv-x="424" 
d="M144 -8q-67 0 -110 45t-42 119q2 111 88 199t196 88q52 0 82.5 -26t30.5 -66q0 -25 -10.5 -46.5t-33 -37.5t-45 -28t-58 -22t-59 -16t-61.5 -14q-3 -24 -3 -34q0 -121 68 -121q35 0 75.5 24t75.5 74l15 -12q-88 -126 -209 -126zM124 207q82 19 121 55t41 96q3 64 -38 64
q-38 0 -75 -62.5t-49 -152.5zM343 484q-24 0 -42 18t-18 42t18 41.5t42 17.5q25 0 42 -17.5t17 -41.5t-17.5 -42t-41.5 -18zM177 484q-24 0 -42 18t-18 42t18 41.5t42 17.5t41.5 -17.5t17.5 -41.5t-17.5 -42t-41.5 -18z" />
    <glyph glyph-name="igrave" unicode="&#xec;" horiz-adv-x="294" 
d="M79 -6q-42 0 -61.5 21t-19.5 52q0 14 14 62l68 224q7 25 7 33q0 24 -44 24h-34l5 17l200 12q0 -51 -24 -128l-54 -175q-16 -48 -16 -67q0 -26 23 -26q32 0 86 93l15 -11q-66 -131 -165 -131zM200 483l-137 60q-42 19 -42 52q0 15 14 30.5t34 15.5q33 0 57 -34l81 -117z
" />
    <glyph glyph-name="iacute" unicode="&#xed;" horiz-adv-x="294" 
d="M79 -6q-42 0 -61.5 21t-19.5 52q0 14 14 62l68 224q7 25 7 33q0 24 -44 24h-34l5 17l200 12q0 -51 -24 -128l-54 -175q-16 -48 -16 -67q0 -26 23 -26q32 0 86 93l15 -11q-66 -131 -165 -131zM104 486l-8 11l92 98q41 44 76 44q19 0 31.5 -12.5t12.5 -30.5q0 -44 -61 -63z
" />
    <glyph glyph-name="icircumflex" unicode="&#xee;" horiz-adv-x="294" 
d="M79 -6q-42 0 -61.5 21t-19.5 52q0 14 14 62l68 224q7 25 7 33q0 24 -44 24h-34l5 17l200 12q0 -51 -24 -128l-54 -175q-16 -48 -16 -67q0 -26 23 -26q32 0 86 93l15 -11q-66 -131 -165 -131zM44 484l-13 11l119 138h80l46 -142l-16 -9l-92 69z" />
    <glyph glyph-name="idieresis" unicode="&#xef;" horiz-adv-x="294" 
d="M79 -6q-42 0 -61.5 21t-19.5 52q0 14 14 62l68 224q7 25 7 33q0 24 -44 24h-34l5 17l200 12q0 -51 -24 -128l-54 -175q-16 -48 -16 -67q0 -26 23 -26q32 0 86 93l15 -11q-66 -131 -165 -131zM240 484q-24 0 -42 18t-18 42t18 41.5t42 17.5q25 0 42 -17.5t17 -41.5
t-17.5 -42t-41.5 -18zM74 484q-24 0 -42 18t-18 42t18 41.5t42 17.5t41.5 -17.5t17.5 -41.5t-17.5 -42t-41.5 -18z" />
    <glyph glyph-name="eth" unicode="&#xf0;" horiz-adv-x="472" 
d="M154 -8q-72 0 -120.5 52t-48.5 134q0 79 41 141t101.5 93t126.5 31q40 0 64 -21q7 74 -10 142l-81 -47l-12 23l85 50q-19 56 -55 91l15 19q54 -36 92 -80l90 53l12 -23l-86 -50q70 -92 71 -210q0 -107 -44 -200.5t-110 -145.5t-131 -52zM151 10q42 0 79 64t55 141.5
t18 134.5q0 75 -46 75q-42 0 -79.5 -66.5t-56 -143t-18.5 -126.5q0 -79 48 -79z" />
    <glyph glyph-name="ntilde" unicode="&#xf1;" horiz-adv-x="529" 
d="M326 -6q-42 0 -63 21.5t-21 58.5q0 31 13 65l43 115q2 5 8.5 22t10.5 28.5t8 27.5t4 27q0 27 -19 27q-37 0 -93.5 -81t-77.5 -154l-44 -151h-122l108 352q6 20 6 33q0 26 -46 26h-32l5 17l194 8q0 -49 -27 -128l-11 -30l3 -1q48 79 93 119.5t95 40.5q41 0 62.5 -23
t21.5 -63q0 -35 -25 -98l-41 -106q-21 -54 -21 -75q0 -29 21 -29q32 0 85 89l14 -10q-65 -128 -152 -128zM174 489l-13 3q26 60 47.5 88.5t50.5 28.5q16 0 71.5 -14t66.5 -14q24 0 43 32l12 -2q-25 -59 -47 -88t-51 -29q-17 0 -71 13.5t-65 13.5q-25 0 -44 -32z" />
    <glyph glyph-name="ograve" unicode="&#xf2;" horiz-adv-x="472" 
d="M154 -8q-72 0 -120.5 52t-48.5 134q0 79 41 141t101.5 93t126.5 31q72 0 121 -52t49 -133q0 -114 -83.5 -190t-186.5 -76zM151 10q42 0 79 64t55 141.5t18 134.5q0 75 -46 75q-42 0 -79.5 -66.5t-56 -143t-18.5 -126.5q0 -79 48 -79zM324 483l-137 60q-42 19 -42 52
q0 15 14 30.5t34 15.5q33 0 57 -34l81 -117z" />
    <glyph glyph-name="oacute" unicode="&#xf3;" horiz-adv-x="472" 
d="M154 -8q-72 0 -120.5 52t-48.5 134q0 79 41 141t101.5 93t126.5 31q72 0 121 -52t49 -133q0 -114 -83.5 -190t-186.5 -76zM151 10q42 0 79 64t55 141.5t18 134.5q0 75 -46 75q-42 0 -79.5 -66.5t-56 -143t-18.5 -126.5q0 -79 48 -79zM211 486l-8 11l92 98q41 44 76 44
q19 0 31.5 -12.5t12.5 -30.5q0 -44 -61 -63z" />
    <glyph glyph-name="ocircumflex" unicode="&#xf4;" horiz-adv-x="472" 
d="M154 -8q-72 0 -120.5 52t-48.5 134q0 79 41 141t101.5 93t126.5 31q72 0 121 -52t49 -133q0 -114 -83.5 -190t-186.5 -76zM151 10q42 0 79 64t55 141.5t18 134.5q0 75 -46 75q-42 0 -79.5 -66.5t-56 -143t-18.5 -126.5q0 -79 48 -79zM153 484l-13 11l119 138h80l46 -142
l-16 -9l-92 69z" />
    <glyph glyph-name="otilde" unicode="&#xf5;" horiz-adv-x="472" 
d="M154 -8q-72 0 -120.5 52t-48.5 134q0 79 41 141t101.5 93t126.5 31q72 0 121 -52t49 -133q0 -114 -83.5 -190t-186.5 -76zM151 10q42 0 79 64t55 141.5t18 134.5q0 75 -46 75q-42 0 -79.5 -66.5t-56 -143t-18.5 -126.5q0 -79 48 -79zM145 489l-13 3q26 60 47.5 88.5
t50.5 28.5q16 0 71.5 -14t66.5 -14q24 0 43 32l12 -2q-25 -59 -47 -88t-51 -29q-17 0 -71 13.5t-65 13.5q-25 0 -44 -32z" />
    <glyph glyph-name="odieresis" unicode="&#xf6;" horiz-adv-x="472" 
d="M154 -8q-72 0 -120.5 52t-48.5 134q0 79 41 141t101.5 93t126.5 31q72 0 121 -52t49 -133q0 -114 -83.5 -190t-186.5 -76zM151 10q42 0 79 64t55 141.5t18 134.5q0 75 -46 75q-42 0 -79.5 -66.5t-56 -143t-18.5 -126.5q0 -79 48 -79zM340 484q-24 0 -42 18t-18 42
t18 41.5t42 17.5q25 0 42 -17.5t17 -41.5t-17.5 -42t-41.5 -18zM174 484q-24 0 -42 18t-18 42t18 41.5t42 17.5t41.5 -17.5t17.5 -41.5t-17.5 -42t-41.5 -18z" />
    <glyph glyph-name="divide" unicode="&#xf7;" horiz-adv-x="486" 
d="M243 412q-22 0 -38.5 18t-16.5 41q0 24 16.5 41t38.5 17t37.5 -17t15.5 -41q0 -23 -15.5 -41t-37.5 -18zM38 302v45h409v-45h-409zM243 119q-22 0 -38.5 18t-16.5 41t16.5 40.5t38.5 17.5q21 0 37 -17.5t16 -40.5t-16 -41t-37 -18z" />
    <glyph glyph-name="oslash" unicode="&#xf8;" horiz-adv-x="472" 
d="M-40 -51q5 6 13 15.5t25 29.5t28 33l12 13q-53 53 -53 139q0 117 82.5 190.5t186.5 73.5q58 0 102 -35l63 75h26l-74 -88q53 -53 53 -137q0 -113 -83.5 -189t-186.5 -76q-58 0 -101 34l-17 -19q-16 -20 -33 -40l-17 -19h-26zM105 120l198 226q0 79 -46 79
q-39 0 -73.5 -55t-53.5 -122.5t-25 -127.5zM151 11q38 0 72.5 52t53.5 119.5t24 130.5l-198 -226q0 -76 48 -76z" />
    <glyph glyph-name="ugrave" unicode="&#xf9;" horiz-adv-x="536" 
d="M81 -6q-41 0 -62.5 23t-21.5 63q0 29 25 99l58 164q8 21 8 43q0 24 -44 24h-34l5 17l201 9q2 -51 -25 -126l-49 -133q-29 -84 -29 -105q0 -27 19 -27q37 0 93.5 78.5t77.5 151.5l44 151h122l-87 -279q-18 -59 -18 -78q0 -26 21 -26q32 0 85 89l14 -10q-65 -128 -155 -128
q-41 0 -59.5 21t-18.5 52q0 22 11 53l10 28l-3 1q-47 -78 -92 -116.5t-96 -38.5zM348 483l-137 60q-42 19 -42 52q0 15 14 30.5t34 15.5q33 0 57 -34l81 -117z" />
    <glyph glyph-name="uacute" unicode="&#xfa;" horiz-adv-x="536" 
d="M81 -6q-41 0 -62.5 23t-21.5 63q0 29 25 99l58 164q8 21 8 43q0 24 -44 24h-34l5 17l201 9q2 -51 -25 -126l-49 -133q-29 -84 -29 -105q0 -27 19 -27q37 0 93.5 78.5t77.5 151.5l44 151h122l-87 -279q-18 -59 -18 -78q0 -26 21 -26q32 0 85 89l14 -10q-65 -128 -155 -128
q-41 0 -59.5 21t-18.5 52q0 22 11 53l10 28l-3 1q-47 -78 -92 -116.5t-96 -38.5zM229 486l-8 11l92 98q41 44 76 44q19 0 31.5 -12.5t12.5 -30.5q0 -44 -61 -63z" />
    <glyph glyph-name="ucircumflex" unicode="&#xfb;" horiz-adv-x="536" 
d="M81 -6q-41 0 -62.5 23t-21.5 63q0 29 25 99l58 164q8 21 8 43q0 24 -44 24h-34l5 17l201 9q2 -51 -25 -126l-49 -133q-29 -84 -29 -105q0 -27 19 -27q37 0 93.5 78.5t77.5 151.5l44 151h122l-87 -279q-18 -59 -18 -78q0 -26 21 -26q32 0 85 89l14 -10q-65 -128 -155 -128
q-41 0 -59.5 21t-18.5 52q0 22 11 53l10 28l-3 1q-47 -78 -92 -116.5t-96 -38.5zM175 484l-13 11l119 138h80l46 -142l-16 -9l-92 69z" />
    <glyph glyph-name="udieresis" unicode="&#xfc;" horiz-adv-x="536" 
d="M81 -6q-41 0 -62.5 23t-21.5 63q0 29 25 99l58 164q8 21 8 43q0 24 -44 24h-34l5 17l201 9q2 -51 -25 -126l-49 -133q-29 -84 -29 -105q0 -27 19 -27q37 0 93.5 78.5t77.5 151.5l44 151h122l-87 -279q-18 -59 -18 -78q0 -26 21 -26q32 0 85 89l14 -10q-65 -128 -155 -128
q-41 0 -59.5 21t-18.5 52q0 22 11 53l10 28l-3 1q-47 -78 -92 -116.5t-96 -38.5zM381 484q-24 0 -42 18t-18 42t18 41.5t42 17.5q25 0 42 -17.5t17 -41.5t-17.5 -42t-41.5 -18zM215 484q-24 0 -42 18t-18 42t18 41.5t42 17.5t41.5 -17.5t17.5 -41.5t-17.5 -42t-41.5 -18z
" />
    <glyph glyph-name="yacute" unicode="&#xfd;" horiz-adv-x="430" 
d="M8 -205q-35 0 -58 20.5t-24 49.5q-1 28 15.5 46t40.5 18q22 0 36 -13t14 -36q0 -12 -8.5 -27t-8.5 -18q0 -13 12 -13q55 0 138 133q-11 129 -52 308q-14 62 -24.5 85.5t-23.5 23.5q-28 0 -77 -76l-13 12q26 46 42 68t44.5 40t66.5 18q44 0 68 -39.5t46 -150.5
q15 -83 21 -130q84 146 84 195q0 13 -16.5 40t-16.5 47q0 17 11.5 31t32.5 14q43 0 43 -62q0 -38 -42 -130.5t-113 -206.5q-94 -152 -137 -199.5t-101 -47.5zM231 486l-8 11l92 98q41 44 76 44q19 0 31.5 -12.5t12.5 -30.5q0 -44 -61 -63z" />
    <glyph glyph-name="thorn" unicode="&#xfe;" horiz-adv-x="495" 
d="M-148 -204l5 18h12q32 0 47.5 17.5t26.5 55.5l207 722q7 25 7 35q0 14 -9.5 19t-33.5 5h-29l5 17l199 18l-74 -260q-22 -75 -34 -113h3q23 48 60.5 78t81.5 30t80.5 -37.5t36.5 -110.5q0 -128 -74 -212t-158 -84q-88 0 -92 93h-2l-24 -96l-28 -106q-11 -36 -4 -53.5
t38 -17.5h27l-5 -18h-269zM189 25q52 0 94 91t42 206q0 76 -41 76q-33 0 -72.5 -57t-60.5 -133q-20 -67 -11 -125t49 -58z" />
    <glyph glyph-name="ydieresis" unicode="&#xff;" horiz-adv-x="430" 
d="M8 -205q-35 0 -58 20.5t-24 49.5q-1 28 15.5 46t40.5 18q22 0 36 -13t14 -36q0 -12 -8.5 -27t-8.5 -18q0 -13 12 -13q55 0 138 133q-11 129 -52 308q-14 62 -24.5 85.5t-23.5 23.5q-28 0 -77 -76l-13 12q26 46 42 68t44.5 40t66.5 18q44 0 68 -39.5t46 -150.5
q15 -83 21 -130q84 146 84 195q0 13 -16.5 40t-16.5 47q0 17 11.5 31t32.5 14q43 0 43 -62q0 -38 -42 -130.5t-113 -206.5q-94 -152 -137 -199.5t-101 -47.5zM325 484q-24 0 -42 18t-18 42t18 41.5t42 17.5q25 0 42 -17.5t17 -41.5t-17.5 -42t-41.5 -18zM159 484
q-24 0 -42 18t-18 42t18 41.5t42 17.5t41.5 -17.5t17.5 -41.5t-17.5 -42t-41.5 -18z" />
    <glyph glyph-name="dotlessi" unicode="&#x131;" horiz-adv-x="294" 
d="M79 -6q-42 0 -61.5 21t-19.5 52q0 14 14 62l68 224q7 25 7 33q0 24 -44 24h-34l5 17l200 12q0 -51 -24 -128l-54 -175q-16 -48 -16 -67q0 -26 23 -26q32 0 86 93l15 -11q-66 -131 -165 -131z" />
    <glyph glyph-name="Lslash" unicode="&#x141;" horiz-adv-x="597" 
d="M-71 0l5 18h29q63 0 78 61l47 187l-74 -33l5 30l77 34l76 308q8 31 -3 46t-48 15h-27l5 18h343l-5 -18h-37q-38 0 -57.5 -14.5t-27.5 -46.5l-63 -251l157 71l-5 -31q-160 -71 -160 -72l-61 -243q-15 -60 49 -60h40q57 0 99.5 17.5t74 56.5t52.5 83t46 115h18l-90 -291
h-543z" />
    <glyph glyph-name="lslash" unicode="&#x142;" horiz-adv-x="292" 
d="M70 -6q-76 0 -76 63q0 25 12 69l45 153l-57 -32l3 27l62 35l85 300q7 25 7 35q0 14 -9.5 19t-33.5 5h-29l5 17l209 18q-94 -333 -95 -333l60 33l-4 -27l-64 -36l-14 -50l-28 -100l-15 -51q-15 -52 -15 -69q0 -29 21 -29q32 0 86 91l14 -10q-65 -128 -169 -128z" />
    <glyph glyph-name="OE" unicode="&#x152;" horiz-adv-x="932" 
d="M792 0h-528q-106 0 -175.5 71t-69.5 194q0 101 33.5 182.5t90 132t128 77.5t150.5 27h530l-54 -257h-19q16 131 -13.5 184.5t-132.5 53.5h-18q-66 0 -80 -60l-58 -241h10q59 0 94.5 17.5t53 46.5t33.5 84h18l-80 -322h-18q19 88 -7.5 122t-97.5 34h-10l-67 -267
q-15 -60 49 -60h31q99 0 161 65t115 194h18zM279 19h6q63 0 78 61l130 524q8 32 -3.5 46.5t-45.5 14.5h-13q-96 0 -177.5 -124t-81.5 -328q0 -95 32 -144.5t75 -49.5z" />
    <glyph glyph-name="oe" unicode="&#x153;" horiz-adv-x="709" 
d="M154 -6q-72 0 -120.5 52t-48.5 134q0 117 82.5 190t186.5 73q87 -2 135 -68q81 68 172 68q52 0 82.5 -26t30.5 -66q0 -25 -10.5 -46t-33.5 -37t-44.5 -27.5t-58 -22t-58.5 -16t-62 -13.5q-3 -24 -3 -34q0 -121 68 -121q35 0 75.5 24t75.5 74l15 -12q-88 -126 -209 -126
q-74 0 -118 53q-73 -53 -157 -53zM409 209q83 19 122 53t39 91q0 69 -37 69q-38 0 -75 -61.5t-49 -151.5zM151 12q42 0 79 63.5t55 140.5t18 134q0 75 -46 75q-42 0 -79.5 -66t-56 -142t-18.5 -126q0 -79 48 -79z" />
    <glyph glyph-name="Scaron" unicode="&#x160;" horiz-adv-x="509" 
d="M213 -11q-47 0 -76.5 11t-66.5 35q-24 15 -35 15q-30 0 -56 -59h-12l58 262h17q-3 -245 171 -245q58 0 97 34t39 93q0 42 -32.5 78.5t-109.5 78.5q-119 65 -119 184q0 107 62.5 162.5t159.5 55.5q63 0 130 -43q22 -14 33 -14q24 0 51 57h15l-56 -262h-18
q3 120 -39.5 181.5t-114.5 61.5q-62 0 -89.5 -32.5t-26.5 -80.5q1 -46 26 -77t81 -64q81 -49 114 -93t33 -107q0 -103 -65.5 -167.5t-170.5 -64.5zM312 738l-46 142l16 9l92 -69l124 67l13 -11l-119 -138h-80z" />
    <glyph glyph-name="scaron" unicode="&#x161;" horiz-adv-x="419" 
d="M142 -8q-72 0 -120 35t-48 80q0 27 17.5 45t40.5 18q20 0 36.5 -13.5t16.5 -37.5q0 -18 -10.5 -29t-21 -18t-10.5 -15q0 -17 30 -32t72 -15q46 0 75 19.5t31 49.5q3 32 -19.5 51t-76.5 43q-63 28 -89.5 55.5t-23.5 78.5q4 62 55.5 100t125.5 38q68 0 110.5 -29.5
t42.5 -67.5q0 -25 -14.5 -42t-38.5 -17q-20 0 -35 12.5t-15 33.5q0 19 13 36t13 23q0 15 -23.5 24t-54.5 9q-36 0 -63 -16.5t-29 -45.5t17 -48t77 -44q67 -28 94.5 -62t20.5 -86q-9 -65 -65 -99t-131 -34zM204 485l-46 142l16 9l92 -69l124 67l13 -11l-119 -138h-80z" />
    <glyph glyph-name="Ydieresis" unicode="&#x178;" horiz-adv-x="653" 
d="M92 0l5 18h38q33 0 51 17t27 54l50 202l-101 313q-6 19 -12 30.5t-22 21.5t-40 10h-4l5 18h307l-5 -18h-25q-65 0 -48 -61l80 -276l169 225q45 60 45 84q0 28 -56 28h-15l5 18h190l-5 -18q-35 -5 -56 -24t-66 -77q-8 -11 -13 -17l-191 -245l-54 -214q-10 -39 -0.5 -55
t45.5 -16h41l-5 -18h-340zM542 741q-24 0 -42 18t-18 42t18 41.5t42 17.5q25 0 42 -17.5t17 -41.5t-17.5 -42t-41.5 -18zM376 741q-24 0 -42 18t-18 42t18 41.5t42 17.5t41.5 -17.5t17.5 -41.5t-17.5 -42t-41.5 -18z" />
    <glyph glyph-name="Zcaron" unicode="&#x17d;" horiz-adv-x="594" 
d="M-53 0l7 28l521 638h-139q-100 0 -150.5 -49t-96.5 -183h-20l71 250h493l-5 -28l-522 -638h155q96 0 146 56t101 197h22l-83 -271h-500zM321 742l-46 142l16 9l92 -69l124 67l13 -11l-119 -138h-80z" />
    <glyph glyph-name="zcaron" unicode="&#x17e;" horiz-adv-x="443" 
d="M-13 -6q-28 0 -25 33q6 60 157 163q44 30 97 60.5t78.5 49.5t44.5 46l-3 3q-43 -46 -104 -46q-26 0 -62.5 14.5t-59.5 14.5q-28 0 -53.5 -22t-42.5 -62h-11q8 33 19.5 62t29.5 60t45.5 49t60.5 18q40 0 87 -28.5t85 -28.5q29 0 42 32q11 24 28 24q22 0 19 -28
q-4 -37 -59.5 -86.5t-138.5 -97.5q-111 -65 -144 -93q-13 -11 -23 -23l4 -2q38 25 78 25q27 0 64.5 -15t63.5 -15q83 0 108 90h11q-12 -79 -53 -138t-108 -59q-37 0 -71 17t-60 34t-44 17q-11 0 -18.5 -10.5t-8.5 -22.5q-1 -14 -10.5 -24.5t-22.5 -10.5zM200 485l-46 142
l16 9l92 -69l124 67l13 -11l-119 -138h-80z" />
    <glyph glyph-name="florin" unicode="&#x192;" horiz-adv-x="448" 
d="M-78 -205q-30 0 -52.5 16.5t-22.5 44.5t18 47.5t42 19.5q22 0 35 -11.5t13 -30.5t-14 -34t-15 -20q-1 -7 2.5 -10t11.5 -3q24 0 44 42t49 149q18 65 76 296q17 64 22 76h-71l6 24h73q50 130 120 195t140 65q47 0 68.5 -23.5t19.5 -59.5q-2 -27 -20.5 -47t-45.5 -20
q-21 0 -36 13t-15 36q0 43 43 57q19 6 19 9q2 17 -31 17q-35 0 -66 -50t-72 -192h107l-6 -24h-107q-7 -26 -31 -116q-35 -136 -76 -232.5t-81.5 -145t-76 -68.5t-70.5 -20z" />
    <glyph glyph-name="circumflex" unicode="&#x2c6;" 
d="M163 484l-13 11l119 138h80l46 -142l-16 -9l-92 69z" />
    <glyph glyph-name="caron" unicode="&#x2c7;" 
d="M240 485l-46 142l16 9l92 -69l124 67l13 -11l-119 -138h-80z" />
    <glyph glyph-name="breve" unicode="&#x2d8;" 
d="M282 489q-43 0 -61.5 38.5t-5.5 106.5l15 3q2 -27 21 -44t49 -17t57.5 17t42.5 44l13 -3q-42 -145 -131 -145z" />
    <glyph glyph-name="dotaccent" unicode="&#x2d9;" 
d="M311 477q-26 0 -44 18t-18 44t18 44t44 18t44 -18t18 -44t-18 -44t-44 -18z" />
    <glyph glyph-name="ring" unicode="&#x2da;" 
d="M299 474q-44 0 -69 26.5t-25 63.5q0 36 27 63t67 27q42 0 68 -27t26 -63q0 -37 -25.5 -63.5t-68.5 -26.5zM299 499q24 0 39.5 18.5t15.5 46.5q0 29 -15.5 47t-39.5 18t-39.5 -18t-15.5 -47t15 -47t40 -18z" />
    <glyph glyph-name="ogonek" unicode="&#x2db;" 
d="M109 -209q-31 0 -51 17.5t-19 45.5q1 86 172 146h17q-100 -57 -100 -130q0 -18 11.5 -27.5t29.5 -9.5q27 0 57 18l5 -13q-57 -47 -122 -47z" />
    <glyph glyph-name="tilde" unicode="&#x2dc;" 
d="M164 489l-13 3q26 60 47.5 88.5t50.5 28.5q16 0 71.5 -14t66.5 -14q24 0 43 32l12 -2q-25 -59 -47 -88t-51 -29q-17 0 -71 13.5t-65 13.5q-25 0 -44 -32z" />
    <glyph glyph-name="hungarumlaut" unicode="&#x2dd;" 
d="M333 483l-7 8l85 105q34 42 66 42q14 0 24 -9.5t10 -22.5q0 -38 -61 -67zM188 483l-8 8l86 105q34 42 65 42q15 0 25 -9.5t9 -23.5q0 -37 -60 -66z" />
    <glyph glyph-name="Delta" unicode="&#x394;" horiz-adv-x="518" 
d="M246 -19l96 368q7 25 7 33q0 24 -44 24h-99l-56 -225q-93 -387 -268 -387q-38 0 -61 19t-23 43q0 26 16 43t37 17q54 0 54 -59q0 -7 -1.5 -14.5t-2.5 -11.5t-1.5 -7.5t1.5 -5t7 -1.5q15 0 33.5 39.5t31.5 95.5l107 454h-63l5 20h63l9 37q21 87 66 143t93 76.5t101 20.5
q51 0 82.5 -24t31.5 -57q0 -27 -17 -48.5t-44 -21.5q-21 0 -36 15t-15 35t12.5 38.5t12.5 22.5q0 15 -22 15q-12 0 -26.5 -6.5t-33.5 -22t-37 -50t-30 -83.5l-22 -90h103l164 13q0 -47 -24 -128l-30 -101q-56 -187 -120 -287t-146 -100q-36 0 -57.5 18t-21.5 41q0 25 15 41
t35 16q50 0 50 -56q0 -10 -3 -21t-2.5 -14t8.5 -3q14 0 32 39.5t33 96.5z" />
    <glyph glyph-name="Delta" unicode="&#x2206;" horiz-adv-x="518" 
d="M246 -19l96 368q7 25 7 33q0 24 -44 24h-99l-56 -225q-93 -387 -268 -387q-38 0 -61 19t-23 43q0 26 16 43t37 17q54 0 54 -59q0 -7 -1.5 -14.5t-2.5 -11.5t-1.5 -7.5t1.5 -5t7 -1.5q15 0 33.5 39.5t31.5 95.5l107 454h-63l5 20h63l9 37q21 87 66 143t93 76.5t101 20.5
q51 0 82.5 -24t31.5 -57q0 -27 -17 -48.5t-44 -21.5q-21 0 -36 15t-15 35t12.5 38.5t12.5 22.5q0 15 -22 15q-12 0 -26.5 -6.5t-33.5 -22t-37 -50t-30 -83.5l-22 -90h103l164 13q0 -47 -24 -128l-30 -101q-56 -187 -120 -287t-146 -100q-36 0 -57.5 18t-21.5 41q0 25 15 41
t35 16q50 0 50 -56q0 -10 -3 -21t-2.5 -14t8.5 -3q14 0 32 39.5t33 96.5z" />
    <glyph glyph-name="Omega" unicode="&#x3a9;" horiz-adv-x="489" 
d="M30 305l10 40h409l-10 -40h-409z" />
    <glyph glyph-name="Omega" unicode="&#x2126;" horiz-adv-x="489" 
d="M30 305l10 40h409l-10 -40h-409z" />
    <glyph glyph-name="pi" unicode="&#x3c0;" horiz-adv-x="734" 
d="M367 -16q-140 0 -235.5 103t-95.5 255q0 151 96 254.5t235 103.5t235 -103.5t96 -254.5t-96 -254.5t-235 -103.5zM367 2q133 0 221.5 97t88.5 243t-88.5 243t-221.5 97t-221.5 -97t-88.5 -243t88.5 -243t221.5 -97zM208 144v16h15q30 0 30 27v317q0 28 -30 28h-15v16h168
q175 0 175 -112q0 -60 -47 -90t-123 -30h-26v-129q0 -27 30 -27h27v-16h-204zM355 332h27q56 0 56 102q0 98 -53 98h-4q-15 0 -20.5 -6t-5.5 -21v-173z" />
    <glyph glyph-name="endash" unicode="&#x2013;" horiz-adv-x="422" 
d="M-9 209l10 42h376l-10 -42h-376z" />
    <glyph glyph-name="emdash" unicode="&#x2014;" horiz-adv-x="844" 
d="M-9 209l10 42h798l-10 -42h-798z" />
    <glyph glyph-name="quoteleft" unicode="&#x2018;" horiz-adv-x="228" 
d="M149 411q-28 0 -47 20t-21 52q-10 138 170 216l12 -19q-58 -23 -102.5 -63t-43.5 -75q0 -6 2.5 -7t12.5 1.5t20 2.5q28 0 45 -18.5t17 -44.5q0 -28 -17.5 -46.5t-47.5 -18.5z" />
    <glyph glyph-name="quoteright" unicode="&#x2019;" horiz-adv-x="228" 
d="M93 407l-12 19q58 23 102.5 63t43.5 75q0 6 -2.5 7t-12.5 -1.5t-20 -2.5q-28 0 -45 18.5t-17 44.5q0 28 17.5 46.5t47.5 18.5q28 0 47 -20t21 -52q10 -138 -170 -216z" />
    <glyph glyph-name="quotesinglbase" unicode="&#x201a;" horiz-adv-x="228" 
d="M-70 -157l-12 19q58 23 102.5 63t43.5 75q0 6 -2.5 7t-12.5 -1.5t-20 -2.5q-28 0 -45 18.5t-17 44.5q0 28 17.5 46.5t47.5 18.5q28 0 47 -20t21 -52q10 -138 -170 -216z" />
    <glyph glyph-name="quotedblleft" unicode="&#x201c;" horiz-adv-x="373" 
d="M293 411q-28 0 -47 20t-21 52q-10 138 170 216l12 -19q-58 -23 -102.5 -63t-43.5 -75q0 -6 2.5 -7t12.5 1.5t20 2.5q28 0 45 -18.5t17 -44.5q0 -28 -17.5 -46.5t-47.5 -18.5zM129 411q-28 0 -47 20t-21 52q-10 138 170 216l12 -19q-58 -23 -102.5 -63t-43.5 -75
q0 -6 2.5 -7t12.5 1.5t20 2.5q28 0 45 -18.5t17 -44.5q0 -28 -17.5 -46.5t-47.5 -18.5z" />
    <glyph glyph-name="quotedblright" unicode="&#x201d;" horiz-adv-x="373" 
d="M257 407l-12 19q58 23 102.5 63t43.5 75q0 6 -2.5 7t-12.5 -1.5t-20 -2.5q-28 0 -45 18.5t-17 44.5q0 28 17.5 46.5t47.5 18.5q28 0 47 -20t21 -52q10 -138 -170 -216zM93 407l-12 19q58 23 102.5 63t43.5 75q0 6 -2.5 7t-12.5 -1.5t-20 -2.5q-28 0 -45 18.5t-17 44.5
q0 28 17.5 46.5t47.5 18.5q28 0 47 -20t21 -52q10 -138 -170 -216z" />
    <glyph glyph-name="quotedblbase" unicode="&#x201e;" horiz-adv-x="373" 
d="M94 -157l-12 19q58 23 102.5 63t43.5 75q0 6 -2.5 7t-12.5 -1.5t-20 -2.5q-28 0 -45 18.5t-17 44.5q0 28 17.5 46.5t47.5 18.5q28 0 47 -20t21 -52q10 -138 -170 -216zM-70 -157l-12 19q58 23 102.5 63t43.5 75q0 6 -2.5 7t-12.5 -1.5t-20 -2.5q-28 0 -45 18.5t-17 44.5
q0 28 17.5 46.5t47.5 18.5q28 0 47 -20t21 -52q10 -138 -170 -216z" />
    <glyph glyph-name="dagger" unicode="&#x2020;" horiz-adv-x="390" 
d="M91 -11q10 38 16 72t9 64.5t4 52t-0.5 48.5t-2.5 38.5t-4 37t-4 30.5q25 22 39.5 36.5t35 45.5t29.5 64q-32 -4 -65 -33q-30 -25 -57 -25q-24 0 -38 17.5t-11 46.5q3 28 23 46.5t46 18.5q28 0 53 -27q24 -26 53 -30q4 26 -14 68q-19 43 -12 71q8 32 29.5 47t45.5 15
q26 0 44.5 -14.5t13.5 -47.5q-4 -29 -45 -71q-38 -38 -48 -68q34 5 63 30q32 27 58 27t40 -18.5t10 -46.5t-23.5 -46t-45.5 -18q-30 0 -53 25q-27 29 -53 33q-15 -68 28 -140l3 -6l-18 -30q-19 -30 -23.5 -38t-21.5 -37.5t-25 -49.5t-21.5 -51.5t-23.5 -65t-20 -71.5h-14z
" />
    <glyph glyph-name="daggerdbl" unicode="&#x2021;" horiz-adv-x="390" 
d="M105 -9q-25 0 -44 16t-14 49q1 7 3.5 13.5t9 15t9.5 12t13 14.5t12 13q38 40 48 69q-5 -1 -9 -2t-8.5 -3t-7.5 -3.5t-8 -5t-6.5 -5t-7.5 -6.5t-7 -6q-32 -26 -62 -26q-26 0 -39 18t-9 47q4 28 24 45.5t46 17.5q24 0 53 -25l9.5 -9.5t10.5 -9.5t11 -6.5t14 -4.5
q17 76 -34 134q77 53 101 133q-32 -4 -64 -31q-32 -26 -62 -26q-26 0 -39 18t-9 47q4 28 24 45.5t46 17.5q24 0 53 -25q33 -28 55 -30q5 28 -14 72q-17 44 -14 65q5 32 30 48.5t49 16.5q25 0 44 -16t14 -49q-1 -5 -2.5 -10t-5 -10.5t-6 -9t-7.5 -9.5t-8 -9t-9.5 -10
t-8.5 -10q-38 -40 -48 -69q27 2 62 30q31 25 62 25q25 0 38 -17.5t10 -46.5t-23 -46.5t-47 -17.5q-23 0 -53 26q-33 28 -53 31q-17 -81 37 -133q-81 -57 -104 -134q38 3 72 30q31 25 62 25q25 0 38 -17.5t10 -46.5t-23 -46.5t-47 -17.5q-23 0 -53 26q-31 27 -63 31
q-5 -28 14 -72q17 -45 14 -65q-5 -32 -30 -48.5t-49 -16.5z" />
    <glyph glyph-name="bullet" unicode="&#x2022;" horiz-adv-x="432" 
d="M218 217q-56 0 -93.5 37.5t-37.5 93.5q0 55 37.5 92.5t93.5 37.5t93.5 -37.5t37.5 -92.5q0 -56 -37.5 -93.5t-93.5 -37.5z" />
    <glyph glyph-name="ellipsis" unicode="&#x2026;" horiz-adv-x="715" 
d="M528 -10q-28 0 -48.5 20t-20.5 48t20.5 48.5t48.5 20.5q27 0 47.5 -20.5t20.5 -48.5t-20.5 -48t-47.5 -20zM283 -10q-28 0 -48.5 20t-20.5 48t20.5 48.5t48.5 20.5q27 0 47.5 -20.5t20.5 -48.5t-20.5 -48t-47.5 -20zM38 -10q-28 0 -48.5 20t-20.5 48t20.5 48.5t48.5 20.5
q27 0 47.5 -20.5t20.5 -48.5t-20.5 -48t-47.5 -20z" />
    <glyph glyph-name="perthousand" unicode="&#x2030;" horiz-adv-x="1039" 
d="M171 338q-54 0 -89 40.5t-35 99.5q0 22 6 44q16 64 66 99t110 35q51 0 86 -37.5t36 -93.5q0 -21 -4 -38q-15 -67 -66 -108t-110 -41zM57 -6l527 659h36l-527 -659h-36zM805 -8q-54 0 -89 40.5t-35 99.5q0 22 6 44q16 64 66 99t110 35q50 0 85.5 -38t36.5 -94
q0 -20 -4 -37q-15 -67 -66 -108t-110 -41zM462 -8q-54 0 -89 40.5t-35 99.5q0 22 6 44q16 64 66 99t110 35q50 0 85.5 -38t36.5 -94q0 -20 -4 -37q-15 -67 -66 -108t-110 -41zM160 353q24 -4 42.5 29.5t38.5 108.5q18 71 20 107q1 38 -21 43q-45 10 -83 -134
q-20 -77 -20 -111q0 -39 23 -43zM794 7q24 -4 42.5 29.5t38.5 108.5q20 76 20 111q0 34 -21 39q-45 10 -83 -134q-20 -73 -20 -112q0 -37 23 -42zM451 7q24 -4 42.5 29.5t38.5 108.5q20 76 20 111q0 34 -21 39q-45 10 -83 -134q-20 -73 -20 -112q0 -37 23 -42z" />
    <glyph glyph-name="guilsinglleft" unicode="&#x2039;" horiz-adv-x="283" 
d="M164 0l-196 225l309 224h13l-188 -230l75 -219h-13z" />
    <glyph glyph-name="guilsinglright" unicode="&#x203a;" horiz-adv-x="283" 
d="M-76 0l188 230l-75 219h13l196 -225l-309 -224h-13z" />
    <glyph glyph-name="fraction" unicode="&#x2044;" horiz-adv-x="269" 
d="M-132 -6l499 659h32l-501 -659h-30z" />
    <glyph glyph-name="fraction" unicode="&#x2215;" horiz-adv-x="269" 
d="M-132 -6l499 659h32l-501 -659h-30z" />
    <glyph glyph-name="Euro" unicode="&#x20ac;" horiz-adv-x="479" 
d="M228 -15q-101 0 -149.5 73t-32.5 200h-58l6 23h56q7 52 20 87h-54l7 24h55q43 122 126 196.5t192 74.5q65 0 102.5 -30t35.5 -83q-2 -44 -23 -67.5t-48 -23.5q-26 0 -40.5 14t-13.5 38q1 26 19 41.5t40 19.5q3 0 7.5 1t6.5 1t5.5 1t5 2.5t3 3.5t2 5.5t0.5 7.5
q0 19 -25 34t-56 15q-69 0 -122.5 -70t-86.5 -181h178l-7 -24h-178q-11 -39 -19 -87h178l-6 -23h-176q-10 -73 -11 -127.5t20.5 -86.5t67.5 -32t87.5 35t68.5 96h20q-31 -78 -84 -118t-119 -40z" />
    <glyph glyph-name="trademark" unicode="&#x2122;" horiz-adv-x="820" 
d="M177 371v16h18q25 0 25 21v256q-39 -1 -55.5 -27.5t-28.5 -89.5h-14l6 137h268l6 -137h-13q-11 61 -29 88.5t-57 28.5v-256q0 -21 25 -21h18v-16h-169zM577 367l-89 258v-191q0 -30 7.5 -38.5t31.5 -8.5h6v-16h-104v16h3q22 0 29 9t7 38v211q0 21 -23 21h-14v18h117
l70 -201l64 201h121v-18h-11q-23 0 -23 -21v-237q0 -21 23 -21h11v-16h-152v16h9q25 0 25 21v217l-84 -258h-24z" />
    <glyph glyph-name="partialdiff" unicode="&#x2202;" horiz-adv-x="620" 
d="M-72 0l5 18h29q63 0 78 60l131 528q15 60 -52 60h-24l5 18h304q95 0 154.5 -43t59.5 -117q0 -47 -26 -85.5t-67.5 -61.5t-87 -35.5t-91.5 -14.5v-1q141 -29 154 -191q1 -10 2 -25l1.5 -22.5t1.5 -18.5t2.5 -16t4 -12.5t5.5 -10.5t8 -6.5t11.5 -4.5t14.5 -1h11l-5 -18
h-195l-2 123q-2 113 -24.5 155.5t-62.5 42.5h-30l-61 -243q-7 -30 5 -45t49 -15h32l-5 -18h-335zM248 339h55q105 0 149 101q26 58 26 129q0 52 -19 73.5t-56 21.5h-11q-66 0 -80 -59z" />
    <glyph glyph-name="product" unicode="&#x220f;" horiz-adv-x="734" 
d="M367 -16q-140 0 -235.5 103t-95.5 255q0 151 96 254.5t235 103.5t235 -103.5t96 -254.5t-96 -254.5t-235 -103.5zM367 2q133 0 221.5 97t88.5 243t-88.5 243t-221.5 97t-221.5 -97t-88.5 -243t88.5 -243t221.5 -97zM189 149v16h12q33 0 33 31v306q0 30 -33 30h-12v16h183
q74 0 115.5 -26t41.5 -78q0 -41 -39.5 -66t-100.5 -28v-1q59 -11 104 -84q4 -6 14 -24t16.5 -27.5t16.5 -18.5t19 -9q24 0 27 45h15q0 -42 -25 -67t-63 -25q-72 0 -87 106q-7 49 -26.5 73.5t-41.5 24.5h-24v-147q0 -16 7 -23.5t25 -7.5h20v-16h-197zM334 357h14q75 0 75 89
q0 85 -53 85h-6q-17 0 -23.5 -6.5t-6.5 -22.5v-145z" />
    <glyph glyph-name="summation" unicode="&#x2211;" horiz-adv-x="758" 
d="M570 356q-75 0 -126.5 55.5t-51.5 136.5q0 60 34.5 102.5t81.5 42.5q31 0 53 -20t22 -47q0 -18 -12.5 -32.5t-30.5 -14.5t-31.5 13.5t-13.5 30.5q0 15 9 35q9 18 5 19q-2 1 -5 0q-18 -4 -31 -25t-13 -52q0 -63 47.5 -114t105.5 -51q29 0 49.5 11t22.5 31q1 8 -1 9
q-2 0 -12 -9q-13 -11 -33 -11q-16 0 -28.5 14.5t-12.5 34.5t13.5 33.5t30.5 13.5q25 0 43.5 -24t18.5 -57q0 -51 -39.5 -88t-94.5 -37zM188 356q-55 0 -94.5 37t-39.5 88q0 33 18.5 57t43.5 24q17 0 30.5 -13.5t13.5 -33.5t-12.5 -34.5t-28.5 -14.5q-20 0 -33 11l-3 3
q-10 11 -10 1v-4q2 -20 22.5 -31t49.5 -11q58 0 105.5 51t47.5 114q0 31 -13 52t-31 25q-4 1 -6 0t-1.5 -3.5t1.5 -5t3.5 -6t2.5 -4.5q9 -20 9 -35q0 -17 -13.5 -30.5t-31.5 -13.5t-30.5 14.5t-12.5 32.5q0 27 22 47t53 20q47 0 81.5 -42.5t34.5 -102.5q0 -81 -51.5 -136.5
t-126.5 -55.5zM508 -9q-47 0 -81.5 42.5t-34.5 102.5q0 81 51.5 136.5t126.5 55.5q55 0 94.5 -37t39.5 -88q0 -33 -18.5 -57t-43.5 -24q-17 0 -30.5 13.5t-13.5 33.5t12.5 34.5t28.5 14.5q20 0 33 -11l3 -3q10 -11 10 -1v4q-2 20 -22.5 31t-49.5 11q-58 0 -105.5 -51
t-47.5 -114q0 -31 13 -52t31 -25q11 -3 3 14q-1 1 -2 2.5t-1 2.5q-9 20 -9 35q0 17 13.5 30.5t31.5 13.5t30.5 -14.5t12.5 -32.5q0 -27 -22 -47t-53 -20zM250 -9q-31 0 -53 20t-22 47q0 18 12.5 32.5t30.5 14.5t31.5 -13.5t13.5 -30.5q0 -15 -9 -35q-9 -18 -5 -19q2 -1 5 0
q18 4 31 25t13 52q0 63 -47.5 114t-105.5 51q-29 0 -49.5 -11t-22.5 -31q-1 -8 1 -9q2 0 12 9q13 11 33 11q16 0 28.5 -14.5t12.5 -34.5t-13.5 -33.5t-30.5 -13.5q-25 0 -43.5 24t-18.5 57q0 51 39.5 88t94.5 37q75 0 126.5 -55.5t51.5 -136.5q0 -60 -34.5 -102.5
t-81.5 -42.5z" />
    <glyph glyph-name="minus" unicode="&#x2212;" horiz-adv-x="486" 
d="M38 302v45h409v-45h-409z" />
    <glyph glyph-name="radical" unicode="&#x221a;" horiz-adv-x="551" 
d="M102 -14l-66 232q-12 43 -26.5 56.5t-55.5 14.5l4 14h192l47 -211h3q159 444 281 568q29 30 65 35.5t55 -15.5q21 -19 16 -52t-39 -62q-282 -242 -398 -569z" />
    <glyph glyph-name="infinity" unicode="&#x221e;" horiz-adv-x="837" 
d="M634 703q52 -1 83 -24.5t31 -56.5q0 -27 -17 -48.5t-44 -21.5q-21 0 -36 15t-15 35t12.5 38.5t12.5 22.5q0 15 -22 15q-12 0 -26.5 -6.5t-34 -22t-38 -50t-30.5 -83.5l-22 -90h105l164 13q0 -51 -24 -128l-54 -175q-16 -48 -16 -67q0 -26 23 -26q32 0 86 93l15 -11
q-66 -131 -165 -131q-42 0 -61 21t-19 52q0 18 13 62l67 220q7 25 7 33q0 24 -44 24h-101l-48 -195q-29 -116 -63 -195t-72 -119.5t-73.5 -56.5t-77.5 -16q-38 0 -61 19t-23 43q0 26 16 43t37 17q54 0 54 -60q0 -7 -1.5 -14.5t-2.5 -11.5t-1.5 -7t1.5 -4.5t7 -1.5
q56 0 87 135l99 424h-158l-56 -225q-29 -117 -60 -195.5t-65 -119t-67 -56.5t-74 -16q-38 0 -61 19t-23 43q0 26 16 43t37 17q54 0 54 -60q0 -7 -1.5 -14.5t-2.5 -11.5t-1.5 -7t1.5 -4.5t7 -1.5q15 0 34.5 39.5t32.5 95.5l107 454h-65l5 20h64l9 40q15 66 41 112t58 68.5
t61.5 31.5t61.5 9q52 0 81 -21t29 -54q0 -12 -3 -22q64 117 210 113zM208 426h158l9 40q14 58 32 94q-16 -18 -43 -18q-22 0 -36.5 15t-14.5 35t12.5 38.5t12.5 22.5q0 15 -17 15q-54 0 -94 -162z" />
    <glyph glyph-name="integral" unicode="&#x222b;" horiz-adv-x="758" 
d="M570 356q-75 0 -126.5 55.5t-51.5 136.5q0 60 34.5 102.5t81.5 42.5q31 0 53 -20t22 -47q0 -18 -12.5 -32.5t-30.5 -14.5t-31.5 13.5t-13.5 30.5q0 15 9 35q9 18 5 19q-2 1 -5 0q-18 -4 -31 -25t-13 -52q0 -63 47.5 -114t105.5 -51q29 0 49.5 11t22.5 31q1 8 -1 9
q-2 0 -12 -9q-13 -11 -33 -11q-16 0 -28.5 14.5t-12.5 34.5t13.5 33.5t30.5 13.5q25 0 43.5 -24t18.5 -57q0 -51 -39.5 -88t-94.5 -37zM188 356q-55 0 -94.5 37t-39.5 88q0 33 18.5 57t43.5 24q17 0 30.5 -13.5t13.5 -33.5t-12.5 -34.5t-28.5 -14.5q-20 0 -33 11l-3 3
q-10 11 -10 1v-4q2 -20 22.5 -31t49.5 -11q58 0 105.5 51t47.5 114q0 31 -13 52t-31 25q-4 1 -6 0t-1.5 -3.5t1.5 -5t3.5 -6t2.5 -4.5q9 -20 9 -35q0 -17 -13.5 -30.5t-31.5 -13.5t-30.5 14.5t-12.5 32.5q0 27 22 47t53 20q47 0 81.5 -42.5t34.5 -102.5q0 -81 -51.5 -136.5
t-126.5 -55.5zM508 -9q-47 0 -81.5 42.5t-34.5 102.5q0 81 51.5 136.5t126.5 55.5q55 0 94.5 -37t39.5 -88q0 -33 -18.5 -57t-43.5 -24q-17 0 -30.5 13.5t-13.5 33.5t12.5 34.5t28.5 14.5q20 0 33 -11l3 -3q10 -11 10 -1v4q-2 20 -22.5 31t-49.5 11q-58 0 -105.5 -51
t-47.5 -114q0 -31 13 -52t31 -25q11 -3 3 14q-1 1 -2 2.5t-1 2.5q-9 20 -9 35q0 17 13.5 30.5t31.5 13.5t30.5 -14.5t12.5 -32.5q0 -27 -22 -47t-53 -20zM250 -9q-31 0 -53 20t-22 47q0 18 12.5 32.5t30.5 14.5t31.5 -13.5t13.5 -30.5q0 -15 -9 -35q-9 -18 -5 -19q2 -1 5 0
q18 4 31 25t13 52q0 63 -47.5 114t-105.5 51q-29 0 -49.5 -11t-22.5 -31q-1 -8 1 -9q2 0 12 9q13 11 33 11q16 0 28.5 -14.5t12.5 -34.5t-13.5 -33.5t-30.5 -13.5q-25 0 -43.5 24t-18.5 57q0 51 39.5 88t94.5 37q75 0 126.5 -55.5t51.5 -136.5q0 -60 -34.5 -102.5
t-81.5 -42.5z" />
    <glyph glyph-name="approxequal" unicode="&#x2248;" horiz-adv-x="486" 
d="M74 124l-32 32l168 169l-167 168l32 32l168 -167l168 167l32 -32l-167 -168l168 -169l-32 -32l-169 168z" />
    <glyph glyph-name="notequal" unicode="&#x2260;" horiz-adv-x="597" 
d="M-118 -206q-38 0 -61 19t-23 43q0 26 16 43t37 17q54 0 54 -60q0 -7 -1.5 -14.5t-2.5 -11.5t-1.5 -7t1.5 -4.5t7 -1.5q15 0 34.5 39.5t32.5 95.5l107 454h-65l5 20h64l9 40q15 66 41 112t58 68.5t61.5 31.5t61.5 9q52 0 81 -21t29 -54q0 -12 -3 -22q59 107 176 107
q51 0 79.5 -21t28.5 -54q0 -27 -17 -48.5t-44 -21.5q-21 0 -36 15t-15 35t12.5 38.5t12.5 22.5q0 15 -17 15q-54 0 -94 -162l-22 -90h102l-5 -20h-101l-48 -195q-29 -116 -63 -195t-72 -119.5t-73.5 -56.5t-77.5 -16q-38 0 -61 19t-23 43q0 26 16 43t37 17q54 0 54 -60
q0 -7 -1.5 -14.5t-2.5 -11.5t-1.5 -7t1.5 -4.5t7 -1.5q56 0 87 135l99 424h-158l-56 -225q-29 -117 -60 -195.5t-65 -119t-67 -56.5t-74 -16zM208 426h158l9 40q14 58 32 94q-16 -18 -43 -18q-22 0 -36.5 15t-14.5 35t12.5 38.5t12.5 22.5q0 15 -17 15q-54 0 -94 -162z" />
    <glyph glyph-name="lessequal" unicode="&#x2264;" horiz-adv-x="758" 
d="M570 356q-75 0 -126.5 55.5t-51.5 136.5q0 60 34.5 102.5t81.5 42.5q31 0 53 -20t22 -47q0 -18 -12.5 -32.5t-30.5 -14.5t-31.5 13.5t-13.5 30.5q0 15 9 35q9 18 5 19q-2 1 -5 0q-18 -4 -31 -25t-13 -52q0 -63 47.5 -114t105.5 -51q29 0 49.5 11t22.5 31q1 8 -1 9
q-2 0 -12 -9q-13 -11 -33 -11q-16 0 -28.5 14.5t-12.5 34.5t13.5 33.5t30.5 13.5q25 0 43.5 -24t18.5 -57q0 -51 -39.5 -88t-94.5 -37zM188 356q-55 0 -94.5 37t-39.5 88q0 33 18.5 57t43.5 24q17 0 30.5 -13.5t13.5 -33.5t-12.5 -34.5t-28.5 -14.5q-20 0 -33 11l-3 3
q-10 11 -10 1v-4q2 -20 22.5 -31t49.5 -11q58 0 105.5 51t47.5 114q0 31 -13 52t-31 25q-4 1 -6 0t-1.5 -3.5t1.5 -5t3.5 -6t2.5 -4.5q9 -20 9 -35q0 -17 -13.5 -30.5t-31.5 -13.5t-30.5 14.5t-12.5 32.5q0 27 22 47t53 20q47 0 81.5 -42.5t34.5 -102.5q0 -81 -51.5 -136.5
t-126.5 -55.5zM508 -9q-47 0 -81.5 42.5t-34.5 102.5q0 81 51.5 136.5t126.5 55.5q55 0 94.5 -37t39.5 -88q0 -33 -18.5 -57t-43.5 -24q-17 0 -30.5 13.5t-13.5 33.5t12.5 34.5t28.5 14.5q20 0 33 -11l3 -3q10 -11 10 -1v4q-2 20 -22.5 31t-49.5 11q-58 0 -105.5 -51
t-47.5 -114q0 -31 13 -52t31 -25q11 -3 3 14q-1 1 -2 2.5t-1 2.5q-9 20 -9 35q0 17 13.5 30.5t31.5 13.5t30.5 -14.5t12.5 -32.5q0 -27 -22 -47t-53 -20zM250 -9q-31 0 -53 20t-22 47q0 18 12.5 32.5t30.5 14.5t31.5 -13.5t13.5 -30.5q0 -15 -9 -35q-9 -18 -5 -19q2 -1 5 0
q18 4 31 25t13 52q0 63 -47.5 114t-105.5 51q-29 0 -49.5 -11t-22.5 -31q-1 -8 1 -9q2 0 12 9q13 11 33 11q16 0 28.5 -14.5t12.5 -34.5t-13.5 -33.5t-30.5 -13.5q-25 0 -43.5 24t-18.5 57q0 51 39.5 88t94.5 37q75 0 126.5 -55.5t51.5 -136.5q0 -60 -34.5 -102.5
t-81.5 -42.5z" />
    <glyph glyph-name="greaterequal" unicode="&#x2265;" horiz-adv-x="758" 
d="M570 356q-75 0 -126.5 55.5t-51.5 136.5q0 60 34.5 102.5t81.5 42.5q31 0 53 -20t22 -47q0 -18 -12.5 -32.5t-30.5 -14.5t-31.5 13.5t-13.5 30.5q0 15 9 35q9 18 5 19q-2 1 -5 0q-18 -4 -31 -25t-13 -52q0 -63 47.5 -114t105.5 -51q29 0 49.5 11t22.5 31q1 8 -1 9
q-2 0 -12 -9q-13 -11 -33 -11q-16 0 -28.5 14.5t-12.5 34.5t13.5 33.5t30.5 13.5q25 0 43.5 -24t18.5 -57q0 -51 -39.5 -88t-94.5 -37zM188 356q-55 0 -94.5 37t-39.5 88q0 33 18.5 57t43.5 24q17 0 30.5 -13.5t13.5 -33.5t-12.5 -34.5t-28.5 -14.5q-20 0 -33 11l-3 3
q-10 11 -10 1v-4q2 -20 22.5 -31t49.5 -11q58 0 105.5 51t47.5 114q0 31 -13 52t-31 25q-4 1 -6 0t-1.5 -3.5t1.5 -5t3.5 -6t2.5 -4.5q9 -20 9 -35q0 -17 -13.5 -30.5t-31.5 -13.5t-30.5 14.5t-12.5 32.5q0 27 22 47t53 20q47 0 81.5 -42.5t34.5 -102.5q0 -81 -51.5 -136.5
t-126.5 -55.5zM508 -9q-47 0 -81.5 42.5t-34.5 102.5q0 81 51.5 136.5t126.5 55.5q55 0 94.5 -37t39.5 -88q0 -33 -18.5 -57t-43.5 -24q-17 0 -30.5 13.5t-13.5 33.5t12.5 34.5t28.5 14.5q20 0 33 -11l3 -3q10 -11 10 -1v4q-2 20 -22.5 31t-49.5 11q-58 0 -105.5 -51
t-47.5 -114q0 -31 13 -52t31 -25q11 -3 3 14q-1 1 -2 2.5t-1 2.5q-9 20 -9 35q0 17 13.5 30.5t31.5 13.5t30.5 -14.5t12.5 -32.5q0 -27 -22 -47t-53 -20zM250 -9q-31 0 -53 20t-22 47q0 18 12.5 32.5t30.5 14.5t31.5 -13.5t13.5 -30.5q0 -15 -9 -35q-9 -18 -5 -19q2 -1 5 0
q18 4 31 25t13 52q0 63 -47.5 114t-105.5 51q-29 0 -49.5 -11t-22.5 -31q-1 -8 1 -9q2 0 12 9q13 11 33 11q16 0 28.5 -14.5t12.5 -34.5t-13.5 -33.5t-30.5 -13.5q-25 0 -43.5 24t-18.5 57q0 51 39.5 88t94.5 37q75 0 126.5 -55.5t51.5 -136.5q0 -60 -34.5 -102.5
t-81.5 -42.5z" />
    <glyph glyph-name="lozenge" unicode="&#x25ca;" horiz-adv-x="758" 
d="M570 356q-75 0 -126.5 55.5t-51.5 136.5q0 60 34.5 102.5t81.5 42.5q31 0 53 -20t22 -47q0 -18 -12.5 -32.5t-30.5 -14.5t-31.5 13.5t-13.5 30.5q0 15 9 35q9 18 5 19q-2 1 -5 0q-18 -4 -31 -25t-13 -52q0 -63 47.5 -114t105.5 -51q29 0 49.5 11t22.5 31q1 8 -1 9
q-2 0 -12 -9q-13 -11 -33 -11q-16 0 -28.5 14.5t-12.5 34.5t13.5 33.5t30.5 13.5q25 0 43.5 -24t18.5 -57q0 -51 -39.5 -88t-94.5 -37zM188 356q-55 0 -94.5 37t-39.5 88q0 33 18.5 57t43.5 24q17 0 30.5 -13.5t13.5 -33.5t-12.5 -34.5t-28.5 -14.5q-20 0 -33 11l-3 3
q-10 11 -10 1v-4q2 -20 22.5 -31t49.5 -11q58 0 105.5 51t47.5 114q0 31 -13 52t-31 25q-4 1 -6 0t-1.5 -3.5t1.5 -5t3.5 -6t2.5 -4.5q9 -20 9 -35q0 -17 -13.5 -30.5t-31.5 -13.5t-30.5 14.5t-12.5 32.5q0 27 22 47t53 20q47 0 81.5 -42.5t34.5 -102.5q0 -81 -51.5 -136.5
t-126.5 -55.5zM508 -9q-47 0 -81.5 42.5t-34.5 102.5q0 81 51.5 136.5t126.5 55.5q55 0 94.5 -37t39.5 -88q0 -33 -18.5 -57t-43.5 -24q-17 0 -30.5 13.5t-13.5 33.5t12.5 34.5t28.5 14.5q20 0 33 -11l3 -3q10 -11 10 -1v4q-2 20 -22.5 31t-49.5 11q-58 0 -105.5 -51
t-47.5 -114q0 -31 13 -52t31 -25q11 -3 3 14q-1 1 -2 2.5t-1 2.5q-9 20 -9 35q0 17 13.5 30.5t31.5 13.5t30.5 -14.5t12.5 -32.5q0 -27 -22 -47t-53 -20zM250 -9q-31 0 -53 20t-22 47q0 18 12.5 32.5t30.5 14.5t31.5 -13.5t13.5 -30.5q0 -15 -9 -35q-9 -18 -5 -19q2 -1 5 0
q18 4 31 25t13 52q0 63 -47.5 114t-105.5 51q-29 0 -49.5 -11t-22.5 -31q-1 -8 1 -9q2 0 12 9q13 11 33 11q16 0 28.5 -14.5t12.5 -34.5t-13.5 -33.5t-30.5 -13.5q-25 0 -43.5 24t-18.5 57q0 51 39.5 88t94.5 37q75 0 126.5 -55.5t51.5 -136.5q0 -60 -34.5 -102.5
t-81.5 -42.5z" />
    <glyph glyph-name="apple" unicode="&#xf8ff;" horiz-adv-x="758" 
d="M570 356q-75 0 -126.5 55.5t-51.5 136.5q0 60 34.5 102.5t81.5 42.5q31 0 53 -20t22 -47q0 -18 -12.5 -32.5t-30.5 -14.5t-31.5 13.5t-13.5 30.5q0 15 9 35q9 18 5 19q-2 1 -5 0q-18 -4 -31 -25t-13 -52q0 -63 47.5 -114t105.5 -51q29 0 49.5 11t22.5 31q1 8 -1 9
q-2 0 -12 -9q-13 -11 -33 -11q-16 0 -28.5 14.5t-12.5 34.5t13.5 33.5t30.5 13.5q25 0 43.5 -24t18.5 -57q0 -51 -39.5 -88t-94.5 -37zM188 356q-55 0 -94.5 37t-39.5 88q0 33 18.5 57t43.5 24q17 0 30.5 -13.5t13.5 -33.5t-12.5 -34.5t-28.5 -14.5q-20 0 -33 11l-3 3
q-10 11 -10 1v-4q2 -20 22.5 -31t49.5 -11q58 0 105.5 51t47.5 114q0 31 -13 52t-31 25q-4 1 -6 0t-1.5 -3.5t1.5 -5t3.5 -6t2.5 -4.5q9 -20 9 -35q0 -17 -13.5 -30.5t-31.5 -13.5t-30.5 14.5t-12.5 32.5q0 27 22 47t53 20q47 0 81.5 -42.5t34.5 -102.5q0 -81 -51.5 -136.5
t-126.5 -55.5zM508 -9q-47 0 -81.5 42.5t-34.5 102.5q0 81 51.5 136.5t126.5 55.5q55 0 94.5 -37t39.5 -88q0 -33 -18.5 -57t-43.5 -24q-17 0 -30.5 13.5t-13.5 33.5t12.5 34.5t28.5 14.5q20 0 33 -11l3 -3q10 -11 10 -1v4q-2 20 -22.5 31t-49.5 11q-58 0 -105.5 -51
t-47.5 -114q0 -31 13 -52t31 -25q11 -3 3 14q-1 1 -2 2.5t-1 2.5q-9 20 -9 35q0 17 13.5 30.5t31.5 13.5t30.5 -14.5t12.5 -32.5q0 -27 -22 -47t-53 -20zM250 -9q-31 0 -53 20t-22 47q0 18 12.5 32.5t30.5 14.5t31.5 -13.5t13.5 -30.5q0 -15 -9 -35q-9 -18 -5 -19q2 -1 5 0
q18 4 31 25t13 52q0 63 -47.5 114t-105.5 51q-29 0 -49.5 -11t-22.5 -31q-1 -8 1 -9q2 0 12 9q13 11 33 11q16 0 28.5 -14.5t12.5 -34.5t-13.5 -33.5t-30.5 -13.5q-25 0 -43.5 24t-18.5 57q0 51 39.5 88t94.5 37q75 0 126.5 -55.5t51.5 -136.5q0 -60 -34.5 -102.5
t-81.5 -42.5z" />
    <glyph glyph-name="NUL" horiz-adv-x="0" 
 />
    <glyph glyph-name="R.alt" horiz-adv-x="620" 
d="M-72 0l5 18h29q63 0 78 60l131 528q15 60 -52 60h-24l5 18h304q95 0 154.5 -43t59.5 -117q0 -47 -26 -85.5t-67.5 -61.5t-87 -35.5t-91.5 -14.5v-1q141 -29 154 -191q1 -10 2 -25l1.5 -22.5t1.5 -18.5t2.5 -16t4 -12.5t5.5 -10.5t8 -6.5t11.5 -4.5t14.5 -1h11l-5 -18
h-195l-2 123q-2 113 -24.5 155.5t-62.5 42.5h-30l-61 -243q-7 -30 5 -45t49 -15h32l-5 -18h-335zM248 339h55q105 0 149 101q26 58 26 129q0 52 -19 73.5t-56 21.5h-11q-66 0 -80 -59z" />
    </font>
</defs>
</svg>
